<?xml version="1.0" encoding="utf-8"?>
<svg viewBox="0 0 24 24" width="24" height="24" fill="#000000" xmlns="http://www.w3.org/2000/svg">
  <path d="M0 0h24v24H0z" fill="none"/>
  <path d="M 8.227 12.661 C 9.607 12.661 10.727 11.541 10.727 10.161 C 10.727 8.781 9.607 7.661 8.227 7.661 C 6.847 7.661 5.727 8.781 5.727 10.161 C 5.727 11.541 6.847 12.661 8.227 12.661 Z M 8.227 3.161 C 12.097 3.161 15.227 6.291 15.227 10.161 C 15.227 15.411 8.227 23.161 8.227 23.161 C 8.227 23.161 1.227 15.411 1.227 10.161 C 1.227 6.291 4.357 3.161 8.227 3.161 Z" style="fill: rgb(182, 185, 202);"/>
  <path d="M 12.755 2 C 8.885 2 4.768 6.262 4.768 10.132 C 4.768 15.382 12.755 22 12.755 22 C 12.755 22 19.755 14.25 19.755 9 C 19.755 5.13 16.625 2 12.755 2 Z M 5.549 10.074 C 5.549 7.314 9.995 4 12.755 4 C 15.515 4 17.755 6.24 17.755 9 C 17.755 11.88 14.875 16.19 12.755 18.88 C 10.675 16.21 5.549 12.924 5.549 10.074 Z" style="fill: rgb(182, 185, 202);"/>
</svg>