<?xml version="1.0" standalone="no"?>
<!DOCTYPE svg PUBLIC "-//W3C//DTD SVG 1.1//EN" "http://www.w3.org/Graphics/SVG/1.1/DTD/svg11.dtd" >
<svg xmlns="http://www.w3.org/2000/svg">
<metadata></metadata>
<defs>
<font id="UniversCondensedMediumItalic" horiz-adv-x="831" >
<font-face units-per-em="2048" ascent="1638" descent="-410" />
<missing-glyph horiz-adv-x="453" />
<glyph horiz-adv-x="0" />
<glyph horiz-adv-x="2048" />
<glyph unicode=" "  horiz-adv-x="453" />
<glyph unicode="&#x09;" horiz-adv-x="453" />
<glyph unicode="&#xa0;" horiz-adv-x="453" />
<glyph unicode="!" horiz-adv-x="604" d="M56 0l60 196h202l-60 -196h-202zM191 321l291 1094h193l-363 -1094h-121z" />
<glyph unicode="&#x22;" horiz-adv-x="755" d="M287 967l102 444h203l-169 -444h-136zM591 967l102 444h203l-169 -444h-136z" />
<glyph unicode="#" horiz-adv-x="944" d="M102 389l27 113h717l-27 -113h-717zM119 -71l360 1496h129l-360 -1496h-129zM218 874l27 113h717l-27 -113h-717zM455 -71l360 1496h129l-360 -1496h-129z" />
<glyph unicode="$" horiz-adv-x="944" d="M159 394q-1 51 21 118h176q-27 -103 -7 -145.5t95 -42.5q48 0 84.5 36t55.5 102q12 43 -6 80q-19 36 -83 94q-127 118 -159 187q-17 37 -18 82q0 38 13 82q33 113 114.5 169t212.5 56q156 0 213 -74q36 -45 35 -118q0 -48 -15 -107h-174q23 92 6 130t-85 38 q-48 0 -82.5 -29t-50.5 -83q-13 -46 7 -86t91 -104q123 -113 153 -183q13 -34 14 -75q-1 -46 -16 -99q-30 -104 -106 -163t-180 -59q-198 0 -268 76q-42 44 -41 118zM226 -49l104 324l15 49h162l-15 -49l-82 -324h-184zM565 1081l8 29l83 324h184l-105 -324l-8 -29h-162z " />
<glyph unicode="%" horiz-adv-x="1360" d="M154 -48l1005 1472h136l-1005 -1472h-136zM250 941l59 204q42 144 100 198t170 54q125 0 162 -58t-3 -194l-59 -204q-42 -145 -96.5 -197.5t-161.5 -52.5q-129 0 -169.5 58.5t-1.5 191.5zM369.5 818q5.5 -31 49.5 -31q41 0 67.5 34.5t51.5 118.5l59 204q27 92 21 123 t-50 31q-39 0 -67 -36.5t-51 -117.5l-59 -204q-27 -91 -21.5 -122zM743 271l59 204q42 144 100.5 198t170.5 54q125 0 161.5 -58t-3.5 -194l-59 -204q-42 -145 -96 -197.5t-161 -52.5q-129 0 -169.5 58.5t-2.5 191.5zM863 148q5 -31 49 -31q41 0 68 34.5t51 118.5l59 204 q27 92 21 123t-50 31q-39 0 -66.5 -36.5t-51.5 -117.5l-59 -204q-26 -91 -21 -122z" />
<glyph unicode="&#x26;" horiz-adv-x="1246" d="M88 338q0 165 132 308q102 110 243 166q-45 85 -63 136q-22 63 -22 134q0 143 100.5 241.5t246.5 98.5q125 0 204 -68.5t79 -175.5q0 -123 -89 -223q-74 -83 -242 -182l192 -362q26 55 47 121q43 133 53 261h94h95q-13 -166 -70 -321q-49 -135 -126 -235l126 -237h-96 h-96l-58 108q-49 -39 -104 -68q-115 -60 -236 -60q-180 0 -295 100t-115 258zM282 361q0 -100 65 -164q65 -63 167 -63q81 0 161 48q47 28 87 70l-241 452q-110 -62 -165 -128q-74 -89 -74 -215zM549 1095q0 -56 16 -100q12 -34 49 -104q105 61 156 115q66 70 66 154 q0 48 -33.5 80t-84.5 32q-68 0 -119 -53q-50 -53 -50 -124z" />
<glyph unicode="'" horiz-adv-x="453" d="M287 967l98 444h203l-163 -444h-138z" />
<glyph unicode="(" horiz-adv-x="453" d="M48 -184q-5 226 18 447q23 220 65 355q49 159 170.5 396t235.5 394h129q-147 -254 -225.5 -423.5t-138.5 -366.5q-63 -205 -95 -405t-30 -397h-129z" />
<glyph unicode=")" horiz-adv-x="453" d="M-144 -184q146 254 224 423.5t139 366.5q63 205 94.5 405t31.5 397h129q3 -226 -20 -447q-23 -220 -64 -355q-49 -159 -170.5 -396t-234.5 -394h-129z" />
<glyph unicode="*" horiz-adv-x="944" d="M338 1069v125l235 -26l-141 189l108 65l99 -216l94 218l110 -62l-138 -194l235 25v-125l-235 26l141 -189l-108 -65l-99 216l-94 -218l-110 62l138 194z" />
<glyph unicode="+" horiz-adv-x="1360" d="M264 511v124h337v337h124v-337h337v-124h-337v-337h-124v337h-337z" />
<glyph unicode="," horiz-adv-x="453" d="M-119 -213l222 443h206l-299 -443h-129z" />
<glyph unicode="-" horiz-adv-x="453" d="M75 430l46 156h272l-46 -156h-272z" />
<glyph unicode="." horiz-adv-x="453" d="M-2 0l67 231h212l-67 -231h-212z" />
<glyph unicode="/" horiz-adv-x="453" d="M-166 -155l683 1566h142l-683 -1566h-142z" />
<glyph unicode="0" horiz-adv-x="944" d="M53 221q-1 76 31 178l187 606q71 231 164.5 325.5t250.5 94.5q219 0 300 -107q45 -60 46 -152q-1 -71 -28 -161l-187 -606q-69 -226 -164.5 -322.5t-250.5 -96.5q-232 0 -309 101q-41 53 -40 140zM256 192.5q25 -59.5 135 -59.5q80 0 134 58t94 188l187 606 q49 160 26.5 223.5t-129.5 63.5q-83 0 -145 -76q-60 -76 -112 -246l-169 -548q-46 -150 -21 -209.5z" />
<glyph unicode="1" horiz-adv-x="944" d="M263 0l339 1170q-35 -29 -68 -51q-65 -44 -168 -81l59 204q88 31 147 67q57 35 129 102h162l-409 -1411h-95h-96z" />
<glyph unicode="2" horiz-adv-x="944" d="M-30 0l24 84l25 85q393 320 590 565q196 244 196 414q0 67 -30.5 97t-97.5 30q-75 0 -124.5 -55.5t-66.5 -157.5h-194q32 192 125.5 277.5t272.5 85.5q153 0 228 -64.5t74 -197.5v-2q0 -229 -191 -466q-164 -206 -573 -541h528l-44 -154h-742z" />
<glyph unicode="3" horiz-adv-x="944" d="M45 343l16 56h196l-16 -56q-27 -116 0 -163t119 -47q87 0 149 64.5t99 193.5l2 7q43 147 -1 201t-208 54h-30l46 156h132q83 0 135.5 54.5t88.5 176.5l2 7q35 120 8.5 174t-119.5 54q-74 0 -126 -52.5t-82 -158.5h-194q57 199 153.5 280t274.5 81q198 0 269 -98 q39 -53 39 -137q-1 -67 -26 -155l-2 -7q-53 -183 -140 -250q-54 -40 -144 -56q83 -23 112 -74q20 -36 20 -98q0 -94 -45 -249l-2 -7q-45 -154 -144 -234q-97 -80 -242 -80q-232 0 -308.5 81.5t-31.5 281.5z" />
<glyph unicode="4" horiz-adv-x="944" d="M27 344l32 103l32 104l704 855h133h134l-279 -908h145l-48 -154h-145l-105 -344h-179l105 344h-529zM235 498h369l225 732l-551 -679z" />
<glyph unicode="5" horiz-adv-x="944" d="M92 324l16 56h194l-16 -56q-26 -107 1.5 -149t123.5 -42q91 0 152 70.5t108 230.5l13 47q50 171 32.5 233.5t-115.5 62.5q-66 0 -124 -50t-104 -146h-193l254 829h675l-45 -154h-493l-121 -415l28 19q105 70 225 70q164 0 203 -104q14 -37 14 -91q0 -100 -46 -258 l-14 -47q-77 -266 -169 -358q-90 -92 -278 -92q-221 0 -301.5 86t-19.5 258z" />
<glyph unicode="6" horiz-adv-x="944" d="M51 220q1 106 50 267l180 584q62 201 153 274t280 73q203 0 279 -99t8 -274h-176q28 125 1 172t-128 47q-89 0 -143 -54t-93 -181l-71 -232q129 93 257 94q163 0 211 -95q22 -42 22 -105q0 -78 -33 -186l-42 -135q-69 -226 -155 -305q-83 -78 -258 -78q-249 0 -315 110 q-26 47 -27 123zM252.5 187.5q28.5 -52.5 135.5 -52.5q91 0 142 51.5t92 186.5l42 135q37 122 17.5 177t-100.5 55q-97 0 -169 -62t-107 -176l-42 -135q-39 -127 -10.5 -179.5z" />
<glyph unicode="7" horiz-adv-x="944" d="M91 0l823 1254l1 2h-572l45 154h751l-23 -78l-22 -78l-785 -1254h-218z" />
<glyph unicode="8" horiz-adv-x="944" d="M50 215q0 33 7.5 72.5t21.5 83.5q82 251 173 322q49 38 144 56l-25 11q-84 45 -84 155q0 49 10 100t34 125q45 140 142 212.5t238 72.5q163 0 246.5 -59.5t82.5 -175.5v-3q0 -40 -8.5 -87t-26.5 -101q-50 -153 -129 -219q-47 -39 -114 -54l24 -15q81 -51 82 -160 q-1 -38 -9 -81.5t-26 -98.5q-69 -211 -165.5 -301t-255.5 -90q-179 0 -270 59.5t-92 175.5zM251 248q0 -60 35 -89t108 -29q92 0 147 62.5t109 227.5q13 39 18.5 69t5.5 55q1 57 -36 83q-36 26 -116 26q-83 0 -140.5 -62.5t-102.5 -202.5q-14 -43 -21 -77.5t-7 -62.5z M476 928q1 -60 33.5 -89.5t100.5 -29.5h-9q78 0 130 52.5t91 170.5q12 39 18.5 70t6.5 56q0 55 -33 82t-100 27h-9q-73 0 -119.5 -42t-77.5 -137q-16 -50 -24 -89.5t-8 -70.5z" />
<glyph unicode="9" horiz-adv-x="944" d="M65.5 89q-71.5 103 7.5 309h179q-47 -152 -20.5 -209t142.5 -57q92 0 149 56t97 187l77 250q-133 -84 -265 -84q-154 0 -211 99q-28 50 -29 121q0 67 27 154l40 131q68 219 153.5 295t265.5 76q246 0 316 -115q32 -53 32 -138q0 -100 -45 -247l-180 -584 q-62 -201 -155 -274q-92 -73 -286 -73q-223 0 -294.5 103zM400 745.5q27 -53.5 117 -53.5q97 0 161 55t99 169l41 131q34 112 1.5 164.5t-137.5 52.5q-81 0 -141 -57t-93 -166l-41 -131q-34 -111 -7 -164.5z" />
<glyph unicode=":" horiz-adv-x="453" d="M-2 0l67 231h212l-67 -231h-212zM214 746l67 231h212l-67 -231h-212z" />
<glyph unicode=";" horiz-adv-x="453" d="M-119 -213l216 444h206l-299 -444h-123zM208 746l67 231h212l-67 -231h-212z" />
<glyph unicode="&#x3c;" horiz-adv-x="2039" d="M410 542v72v72l1225 549v-145l-1066 -475l1066 -479v-145z" />
<glyph unicode="=" horiz-adv-x="1360" d="M266 384v125h798v-125h-798zM266 603v125h798v-125h-798z" />
<glyph unicode="&#x3e;" horiz-adv-x="2039" d="M410 -9v145l1066 479l-1066 475v145l1225 -549v-72v-72z" />
<glyph unicode="?" horiz-adv-x="868" d="M149 0l56 196h204l-56 -196h-204zM273 322q47 192 76.5 267.5t79.5 128.5q193 204 243.5 265.5t65.5 111.5q30 104 9 148t-100 44q-76 0 -121 -58.5t-71 -191.5h-182q43 216 132 304t265 88q173 0 234.5 -83.5t13.5 -250.5q-30 -102 -98.5 -189t-277.5 -288 q-44 -43 -65.5 -92t-61.5 -204h-142z" />
<glyph unicode="@" horiz-adv-x="1360" d="M22 256l200 690q71 242 241 362.5t441 120.5q305 0 412.5 -153.5t17.5 -461.5l-114 -393q-50 -173 -114 -244q-62 -70 -165 -70q-141 1 -166 141q-21 -32 -43 -57q-75 -84 -169 -84q-151 0 -202 74.5t-6 230.5l75 259q46 157 120.5 232.5t184.5 75.5q98 0 140 -106l3 -7 l27 93h173l-145 -500q-39 -133 -36.5 -169t50.5 -36q26 0 48 37.5t49 129.5l114 393q75 257 19.5 362.5t-266.5 105.5q-208 0 -339.5 -96t-187.5 -289l-175 -604q-71 -243 -4 -342.5t301 -99.5q46 0 153 12t153 22l-53 -146q-29 -15 -136.5 -25t-236.5 -10q-220 0 -326 160 t-38 392zM527.5 295.5q14.5 -38.5 66.5 -38.5t89 45t76 154l49 169q28 96 15.5 148t-63.5 52q-53 0 -90 -38t-60 -117l-75 -259q-22 -77 -7.5 -115.5z" />
<glyph unicode="A" horiz-adv-x="1057" d="M-78 0l762 1411h122h123l-92 -1411h-99h-99l26 317h-383l-161 -317h-99h-100zM364 476h315l59 735z" />
<glyph unicode="B" horiz-adv-x="1020" d="M-17 0l409 1411h91h267q199 0 266 -100q35 -53 35 -136q0 -74 -28 -172l-4 -13q-40 -137 -133 -203q-76 -54 -195 -63q128 -18 176 -79q36 -44 36 -126q-1 -75 -32 -183l-4 -14q-48 -164 -166 -243q-116 -79 -312 -79h-315h-91zM211 158h198q115 0 178.5 55.5 t102.5 190.5l4 14q17 59 17 102q0 48 -21 75q-40 52 -174 52h-163zM399 805h154q123 0 188.5 51t101.5 174l3 13q18 61 18 103q0 40 -16 62q-33 46 -156 45h-162z" />
<glyph unicode="C" horiz-adv-x="1020" d="M62 233q0 80 31 187l147 507q81 281 194 391.5t317 110.5q213 0 276 -105q30 -51 30 -136q0 -87 -36 -207h-195q34 116 34 181q0 29 -7 48q-22 61 -133 61q-90 0 -156 -71q-64 -70 -105 -212l-169 -579q-25 -85 -25 -143q0 -36 10 -62q25 -66 117 -66q98 0 162.5 60.5 t100.5 185.5l16 56h189l-16 -56q-39 -214 -151 -309q-110 -95 -324 -95q-202 0 -272 110q-35 56 -35 143z" />
<glyph unicode="D" horiz-adv-x="1057" d="M-19 0l409 1411h96h234q263 0 333 -115q31 -51 31 -142q0 -106 -48 -266l-94 -324q-102 -355 -209 -459.5t-370 -104.5h-286h-96zM219 158h130q178 0 245 64.5t137 304.5l94 324q62 213 62 299q0 20 -4 34q-19 68 -169 69h-176z" />
<glyph unicode="E" horiz-adv-x="868" d="M-19 0l409 1411h639l-24 -79l-24 -80h-444l-130 -448h418l-23 -79l-23 -80h-418l-141 -486h460l-24 -79l-24 -80h-651z" />
<glyph unicode="F" d="M-10 0l409 1411h602l-24 -79l-24 -80h-407l-130 -448h389l-23 -79l-23 -80h-389l-187 -645h-96h-97z" />
<glyph unicode="G" horiz-adv-x="1057" d="M76 242q0 76 29 175l147 507q86 298 198 401.5t347 103.5q213 0 279 -99q32 -50 32 -131t-33 -194h-195q22 87 22 143q0 43 -13 67q-29 56 -148 56q-103 0 -164 -65t-107 -223l-168 -579q-25 -85 -25 -141q0 -44 15 -71q34 -61 159 -61q86 1 185 37l115 421h-204l46 159 h408l-206 -708q-183 -59 -376 -60q-220 0 -300 109q-43 60 -43 153z" />
<glyph unicode="H" horiz-adv-x="1057" d="M-15 0l409 1411h96h97l-176 -607h413l176 607h96h97l-409 -1411h-96h-97l187 645h-413l-187 -645h-96h-97z" />
<glyph unicode="I" horiz-adv-x="453" d="M-19 0l409 1411h96h97l-409 -1411h-96h-97z" />
<glyph unicode="J" horiz-adv-x="868" d="M-42 305l31 111h192l-29 -111q-13 -50 -13 -84q0 -29 10 -47q21 -38 97 -38q86 0 139.5 58.5t93.5 195.5l296 1021h96h97l-319 -1100q-52 -180 -152 -254q-97 -74 -287 -74q-166 0 -231 82q-39 49 -39 125q0 51 18 115z" />
<glyph unicode="K" horiz-adv-x="1020" d="M-2 0l409 1411h96h97l-409 -1411h-96h-97zM412 762l530 649h105h105l-543 -661l190 -750h-99h-100z" />
<glyph unicode="L" horiz-adv-x="793" d="M-15 0l409 1411h96h97l-363 -1252h422l-24 -79l-24 -80h-613z" />
<glyph unicode="M" horiz-adv-x="1397" d="M-21 0l409 1411h156h157l-60 -1076l567 1076h156h157l-409 -1411h-96h-97l366 1229l-649 -1229h-95h-95l67 1211l-351 -1211h-91h-92z" />
<glyph unicode="N" horiz-adv-x="1095" d="M-25 0l409 1411h145h145l20 -1214l352 1214h87h88l-409 -1411h-147h-148l-20 1197l-347 -1197h-87h-88z" />
<glyph unicode="O" horiz-adv-x="1057" d="M67 243q0 76 29 175l147 507q86 297 192.5 400.5t325.5 103.5q220 0 298 -110q43 -61 43 -154q0 -77 -29 -176l-147 -507q-86 -296 -193 -399q-105 -103 -324 -103q-220 0 -299 110q-43 60 -43 153zM282 199q31 -61 149 -61q97 0 166 70.5t110 212.5l168 579 q25 87 25 144q0 40 -12 66q-30 61 -150 61q-97 0 -165.5 -70.5t-109.5 -212.5l-169 -579q-25 -87 -25 -143q0 -41 13 -67z" />
<glyph unicode="P" horiz-adv-x="944" d="M-7 0l409 1411h96h236q205 0 270 -104q32 -51 32 -132q0 -83 -33 -196l-4 -15q-52 -179 -160.5 -264.5t-282.5 -85.5h-192l-178 -614h-96h-97zM410 772h171q86 0 146.5 60.5t95.5 180.5l4 15q19 65 19 110q0 40 -15 64q-32 51 -145 51h-136z" />
<glyph unicode="Q" horiz-adv-x="1057" d="M64 243q0 76 29 175l147 507q86 297 192.5 400.5t325.5 103.5q220 0 297 -111q43 -61 43 -155q0 -78 -29 -178l-148 -507q-59 -208 -197 -336l200 14l-45 -156h-151l-322 -20q-220 0 -299 110q-43 60 -43 153zM279 199q31 -61 149 -61q97 0 166 70.5t110 212.5l168 579 q25 87 25 144q0 41 -13 66q-30 61 -149 61q-97 0 -165.5 -70.5t-109.5 -212.5l-169 -579q-25 -87 -25 -143q0 -41 13 -67z" />
<glyph unicode="R" horiz-adv-x="1020" d="M-15 0l434 1411h94h252q207 0 285 -96q45 -55 45 -140q0 -63 -24 -140l-4 -13q-48 -156 -138 -231q-86 -72 -223 -74q99 -19 141 -64q36 -39 36 -110q0 -59 -25 -140q-34 -111 -53 -202l-5 -26q-12 -69 -17.5 -108t-6.5 -66h-98h-99q3 23 9 59t19 101l9 41q19 90 53 201 q23 74 23 124q0 40 -15 65q-34 55 -159 55h-145l-199 -647h-94h-95zM421 805h196q96 0 162 56.5t101 169.5l4 13q17 54 17 94q0 44 -21 68q-39 47 -169 47h-152z" />
<glyph unicode="S" horiz-adv-x="982" d="M26 219v5q0 69 24 160l16 56h186l-16 -56q-18 -70 -18 -119q0 -45 16 -71q32 -56 146 -56q98 0 169 62t104 177q9 33 9 62q0 38 -16 70q-29 55 -127 125q-184 131 -231 227q-24 49 -24 113q1 62 22 137q46 159 161.5 238.5t299.5 79.5q186 0 254 -105q41 -63 42 -161 q0 -69 -20 -154h-195q23 89 23 145q0 35 -9 58q-23 59 -117 59q-96 0 -164.5 -56.5t-98.5 -160.5q-8 -27 -8 -52q0 -39 20 -74q33 -55 139 -131q178 -127 221 -227q20 -47 20 -108q0 -71 -26 -161q-44 -151 -171 -236q-125 -85 -306 -85q-214 0 -286 95q-39 53 -39 144z" />
<glyph unicode="T" horiz-adv-x="982" d="M248 0l363 1252h-346l24 79l24 80h882l-24 -79l-24 -80h-343l-363 -1252h-96h-97z" />
<glyph unicode="U" horiz-adv-x="1057" d="M106 426l286 985h99h99l-294 -1013q-25 -89 -26 -144q0 -35 11 -58q28 -57 139 -57q100 0 171 74.5t115 224.5l282 973h96h97l-286 -985q-72 -250 -188 -348q-113 -98 -334 -98q-198 0 -266 112q-33 54 -33 135q0 89 32 199z" />
<glyph unicode="V" horiz-adv-x="944" d="M200 0l130 1411h98h99l-148 -1207l595 1207h99h99l-739 -1411h-116h-117z" />
<glyph unicode="W" horiz-adv-x="1397" d="M196 0l122 1411h93h94l-116 -1089l458 1089h118h119l-130 -1059l461 1059h92h93l-645 -1411h-108h-108l139 1101l-466 -1101h-108h-108z" />
<glyph unicode="X" horiz-adv-x="1057" d="M-70 0l560 745l-134 666h98h98l93 -475l349 475h105h105l-508 -689l141 -722h-98h-98l-101 525l-394 -525h-108h-108z" />
<glyph unicode="Y" horiz-adv-x="944" d="M216 0l172 560l-76 851h100h100l26 -633l407 633h104h105l-573 -851l-172 -560h-96h-97z" />
<glyph unicode="Z" horiz-adv-x="944" d="M-63 0l28 98l28 98l832 1029l22 27h-525l24 79l24 80h739l-28 -93l-28 -93l-832 -1029l-30 -37h562l-24 -79l-24 -80h-768z" />
<glyph unicode="[" horiz-adv-x="453" d="M-105 -184l489 1592h299l-29 -92h-159l-432 -1408h159l-28 -92h-299z" />
<glyph unicode="\" horiz-adv-x="604" d="M197 1411h137l193 -1566h-137z" />
<glyph unicode="]" horiz-adv-x="453" d="M-192 -184l28 92h159l432 1408h-159l29 92h299l-489 -1592h-299z" />
<glyph unicode="^" horiz-adv-x="1020" d="M99 993v94q139 102 214 196q76 95 145 253h53h53q69 -158 144 -252q76 -95 216 -197v-94q-232 105 -368 219l-46 41l-44 -40q-136 -114 -367 -220z" />
<glyph unicode="_" horiz-adv-x="1020" d="M0 -407h1020v-105h-1020v105z" />
<glyph unicode="`" horiz-adv-x="944" d="M453 1410h205l75 -307h-146z" />
<glyph unicode="a" d="M6 144q1 71 32 174l3 10q46 149 144 212t283 63h18q96 0 93 -10l29 96q24 69 24 111q0 20 -6 34q-17 44 -93 44q-59 0 -97.5 -39t-65.5 -127h-182q35 139 124 214.5t216 75.5q183 0 244 -92q32 -47 32 -118q-1 -69 -29 -158l-195 -634h-165l26 87q-14 -17 -30 -31 q-88 -76 -213 -76q-137 0 -176 81q-15 33 -16 83zM196 144q15 -42 81 -42q67 0 121.5 50t88.5 143l54 176q3 11 -47 11h-17q-117 0 -173.5 -40t-88.5 -145l-3 -10q-21 -67 -21 -109q0 -20 5 -34z" />
<glyph unicode="b" d="M-37 0l409 1411h93h94l-144 -496q92 87 209 87q139 0 176 -83q15 -34 16 -86q0 -75 -32 -185l-115 -396q-41 -139 -115 -206q-72 -66 -186 -66q-138 1 -197 124l-30 -104h-178zM222 183q5 -81 97 -81q63 0 110.5 54t78.5 162l100 345q25 85 25 134q0 20 -4 34 q-14 49 -81 49q-76 0 -128.5 -70.5t-104.5 -240.5l-23 -78q-70 -209 -70 -295v-13z" />
<glyph unicode="c" horiz-adv-x="793" d="M39 195q0 72 28 168l86 296q52 178 138.5 260.5t221.5 82.5q156 0 216 -83q38 -51 37 -131v-6q0 -48 -15 -107h-180q20 71 20 116q0 21 -4 37q-14 50 -73 50q-61 0 -102.5 -54t-79.5 -186l-86 -296q-30 -104 -30 -159q0 -15 2 -27q11 -52 78 -52q55 0 91.5 37t59.5 115 l11 39h179l-11 -39q-30 -141 -117 -209q-84 -67 -232 -67q-157 0 -212 98q-26 48 -26 117z" />
<glyph unicode="d" d="M13 166q-1 80 34 198l73 252q62 212 139.5 299t205.5 87q136 0 192 -95l146 504h93h94l-409 -1411h-87h-87l24 86l-9 -10q-93 -96 -217 -96q-137 0 -177 94q-15 35 -15 86v6zM196 160q10 -58 91 -58q65 0 114 61.5t101 210.5l67 231q36 122 36 185q0 16 -3 28 q-12 58 -90 59q-75 0 -125 -65q-48 -65 -94 -222l-58 -201q-41 -142 -41 -206q0 -13 2 -23z" />
<glyph unicode="e" horiz-adv-x="793" d="M20 201q1 70 27 161l74 255q61 212 156.5 298.5t266.5 86.5q158 0 211 -98q26 -48 27 -119q0 -73 -28 -168l-54 -184h-448l-20 -70q-34 -118 -34 -177q0 -18 3 -30q14 -52 101 -52q60 0 100 44q43 45 69 137h173q-36 -171 -118 -238q-79 -67 -249 -67q-167 0 -227 98 q-29 50 -30 123zM288 556h263l18 62q36 125 36 184q0 14 -2 24q-11 52 -90 52q-72 0 -120 -59q-46 -59 -87 -201z" />
<glyph unicode="f" horiz-adv-x="604" d="M44 0l248 847h-135l39 135h136l33 114q57 197 124 262.5t211 65.5q56 0 110 -12l-34 -115q-24 4 -54 3q-70 0 -106 -42t-71 -162l-33 -114h165l-39 -135h-164l-243 -847h-93h-94z" />
<glyph unicode="g" d="M-98 -115l11 39h162l-11 -39q-8 -34 -8 -60q0 -33 13 -53q23 -35 92 -35q81 0 132 67t99 237l16 53q-90 -80 -206 -80q-132 0 -178 80q-23 40 -23 99q1 57 22 133l59 204q81 278 159.5 375t222.5 97h2q123 0 192 -113l27 93h168l-274 -941q-71 -248 -164 -338t-279 -90 q-148 0 -211 73q-39 45 -39 110q0 40 16 89zM191 187q13 -52 68 -52q82 0 137.5 59.5t105.5 199.5l64 220q30 98 30 157q0 23 -5 41q-17 61 -98 61q-72 0 -123 -74t-103 -253l-59 -204q-21 -72 -21 -119q0 -20 4 -36z" />
<glyph unicode="h" d="M-38 0l409 1411h93h94l-147 -508q99 99 224 99h2q109 0 153 -74q25 -42 24 -99q0 -45 -15 -98l-212 -731h-89h-90l209 722q13 45 13 77q0 23 -6 39q-16 38 -73 39q-80 0 -135.5 -75t-106.5 -251l-160 -551h-93h-94z" />
<glyph unicode="i" horiz-adv-x="378" d="M-46 0l285 982h93h94l-285 -982h-93h-94zM303 1214l56 193h192l-56 -193h-192z" />
<glyph unicode="j" horiz-adv-x="378" d="M-286 -382l39 122l48 -3q46 0 78 44t60 147l305 1054h93h94l-285 -979q-67 -250 -130 -320q-61 -70 -213 -70q-51 0 -89 5zM309 1214l56 193h192l-56 -193h-192z" />
<glyph unicode="k" d="M-10 0l434 1411h90h91l-434 -1411h-90h-91zM346 570l353 412h101h101l-366 -427l117 -555h-90h-91z" />
<glyph unicode="l" horiz-adv-x="378" d="M-48 0l409 1411h93h94l-409 -1411h-93h-94z" />
<glyph unicode="m" horiz-adv-x="1246" d="M-38 0l285 982h89h89l-28 -94l2 2q99 112 233 112q127 0 156 -89l8 -43q7 12 15 20q94 112 217 112q138 0 182 -75q22 -36 22 -93t-23 -136l-202 -698h-93h-94l212 731q12 42 12 72q0 21 -6 37q-16 36 -68 37q-75 0 -128.5 -75t-104.5 -251l-160 -551h-91h-92l212 730 q12 43 12 73q0 21 -6 37q-16 36 -69 37q-76 0 -129.5 -75t-104.5 -251l-160 -551h-93h-94z" />
<glyph unicode="n" d="M-39 0l302 982h89h89l-27 -87q97 107 221 107q132 0 173 -83q18 -37 18 -90q0 -66 -28 -158l-206 -671h-89h-90l210 685q20 65 20 109q0 20 -4 35q-14 48 -71 48q-90 0 -147.5 -75t-103.5 -251l-169 -551h-93h-94z" />
<glyph unicode="o" d="M38 204q-1 69 26 158l74 255q61 212 154 298.5t257 86.5q171 0 231 -98q32 -51 31 -127q1 -69 -26 -160l-74 -255q-61 -210 -154 -296q-91 -86 -256 -86q-170 0 -232 98q-31 51 -31 126zM220 158q15 -54 100 -54q72 0 118.5 58.5t87.5 200.5l74 255q33 113 33 172 q0 20 -4 34q-15 54 -100 54q-71 0 -119 -59q-46 -59 -87 -201l-74 -255q-33 -112 -33 -171q0 -20 4 -34z" />
<glyph unicode="p" d="M-151 -367l391 1349h87h87l-26 -88l2 2q95 106 226 106q129 0 169 -91q18 -38 18 -92v-6q1 -70 -27 -165l-115 -396q-41 -139 -115 -206q-72 -66 -186 -66q-131 2 -195 102l-129 -449h-93h-94zM214 184q5 -82 97 -82q63 0 110.5 54t78.5 162l100 345q25 85 25 134 q0 20 -4 34q-14 49 -81 49q-76 0 -128.5 -70.5t-104.5 -240.5l-23 -78q-71 -211 -71 -296q0 -6 1 -11z" />
<glyph unicode="q" d="M23 151q1 83 38 213l73 252q62 212 140.5 299t208.5 87q149 0 203 -109l26 89h168l-391 -1349h-87h-87l119 413q-84 -66 -203 -66q-154 0 -193 87q-14 34 -15 84zM218 160q11 -58 92 -58q75 0 123.5 61.5t91.5 210.5l67 231q34 118 34 180q0 20 -3 33q-14 59 -97 59 q-66 0 -116.5 -69t-93.5 -218l-58 -201q-41 -142 -41 -206q0 -14 1 -23z" />
<glyph unicode="r" horiz-adv-x="566" d="M-38 0l285 982h87h87l-26 -105l13 13q109 109 249 110l-47 -182h-14q-122 0 -181.5 -54.5t-109.5 -212.5l-160 -551h-91h-92z" />
<glyph unicode="s" horiz-adv-x="755" d="M0 180q1 40 12 85l12 39h182l-12 -39q-8 -34 -8 -61q0 -32 10 -56q20 -44 74 -44q57 0 95.5 36t59.5 108q6 21 6 40q0 24 -10 45q-16 37 -77 93q-124 114 -159 188q-20 43 -21 91q0 35 11 72q33 113 112.5 169t205.5 56q170 0 230 -78q34 -44 34 -112q0 -54 -22 -125 h-189q25 82 25 125q0 15 -3 26q-12 40 -80 40q-48 0 -81.5 -32t-52.5 -97q-4 -15 -4 -30q0 -26 13 -50q20 -38 88 -101q119 -110 151 -186q17 -39 17 -87q0 -40 -14 -89q-30 -106 -121 -166q-89 -60 -218 -60q-153 0 -222 75q-43 50 -44 125z" />
<glyph unicode="t" horiz-adv-x="604" d="M92 50q-14 28 -15 73q0 69 33 180l158 544h-129l39 135h129l51 177l205 76l-73 -253h157l-39 -135h-157l-158 -544q-21 -71 -22 -115q1 -23 7 -38q16 -46 85 -46q22 0 44 5l-38 -122q-47 -7 -97 -7q-144 0 -180 70z" />
<glyph unicode="u" d="M24 153q0 56 21 127l204 702h93h94l-211 -727q-13 -44 -13 -75q0 -22 6 -38q16 -38 70 -37q77 0 131.5 75t105.5 251l160 551h91h92l-285 -982h-86h-86l33 104l-11 -12q-98 -112 -234 -112q-113 0 -155 80q-20 39 -20 93z" />
<glyph unicode="v" horiz-adv-x="793" d="M135 0l53 982h88h88l-63 -783l394 783h92h92l-511 -982h-116h-117z" />
<glyph unicode="w" horiz-adv-x="1322" d="M131 0l61 982h84h85l-56 -795l383 795h116h117l-76 -783l380 783h88h89l-488 -982h-119h-120l68 758l-379 -758h-116h-117z" />
<glyph unicode="x" horiz-adv-x="793" d="M-75 0l375 515l-87 467h85h85l57 -322l235 322h93h94l-367 -495l91 -487h-85h-85l-61 331l-247 -331h-91h-92z" />
<glyph unicode="y" d="M-47 -367l201 346l30 1003h90h90l-40 -742l404 742h94h95l-774 -1349h-95h-95z" />
<glyph unicode="z" horiz-adv-x="680" d="M-65 0l24 86l25 86l503 638l34 43h-339l19 64l19 65h521l-25 -86l-25 -86l-503 -638l-34 -43h339l-19 -64l-18 -65h-521z" />
<glyph unicode="{" horiz-adv-x="906" d="M202 459l40 169q101 0 160 73.5t102 252.5l48 202q64 265 153.5 341t331.5 68l-38 -160q-120 4 -168.5 -43.5t-86.5 -205.5l-48 -202q-65 -268 -158 -354q-44 -38 -116 -61q48 -26 74 -66q61 -98 3 -339l-48 -202q-35 -145 -5.5 -198.5t140.5 -50.5l-38 -160 q-223 -7 -284.5 81t-4.5 328l48 202q39 163 13 244t-118 81z" />
<glyph unicode="|" horiz-adv-x="1020" d="M458 -512v2048h105v-2048h-105z" />
<glyph unicode="}" horiz-adv-x="906" d="M-98 -477l38 160q111 -3 165.5 50.5t89.5 198.5l48 202q60 251 172 367q33 35 77 62q-25 24 -39 54q-65 123 -13 337l48 202q38 158 12.5 205.5t-147.5 43.5l38 160q203 6 272.5 -92t16.5 -317l-48 -202q-42 -175 -20 -253t119 -94l-36 -149q-95 -15 -160 -95.5 t-100 -228.5l-48 -202q-57 -240 -162 -328q-104 -88 -323 -81z" />
<glyph unicode="~" horiz-adv-x="2039" d="M414 494q93 133 166 187t158 54q53 0 127.5 -13.5t204.5 -46.5q161 -41 235 -58t95 -17q74 0 130.5 29t119.5 101l34 -36q-63 -134 -136 -189t-188 -55q-67 0 -141.5 13.5t-190.5 47.5q-137 40 -208 56t-107 16q-76 0 -136 -27.5t-132 -94.5z" />
<glyph unicode="&#xa1;" horiz-adv-x="604" d="M-51 -407l355 1086h133l-292 -1086h-196zM306 811l60 196h202l-60 -196h-202z" />
<glyph unicode="&#xa2;" horiz-adv-x="944" d="M180 421q0 69 26 160l73 250q64 219 148 298t253 79q142 0 196 -82q30 -48 31 -121q-1 -54 -17 -121h-180q31 104 16 153.5t-76 49.5t-104 -58q-41 -57 -82 -196l-72 -250q-41 -142 -31 -197.5t77 -55.5q69 0 106.5 33t61.5 118l12 39h179l-12 -39 q-29 -140 -119.5 -207.5t-247.5 -67.5t-211 96q-28 48 -27 119zM237 -49l94 275l30 104h153l-65 -226l-44 -153h-168zM581 1087l34 117l52 230h168l-44 -153l-57 -194h-153z" />
<glyph unicode="&#xa3;" horiz-adv-x="944" d="M62 0l44 154h69l161 552h-75l45 155h75l62 215q63 215 135.5 284t237.5 69q143 0 184.5 -75.5t-8.5 -246.5l-20 -70h-175l20 70q31 100 22 136t-65 36q-47 0 -84.5 -49.5t-67.5 -153.5l-62 -215h176l-45 -155h-176l-161 -552h349l-22 -77l-22 -77h-597z" />
<glyph unicode="&#xa4;" horiz-adv-x="944" d="M66 317l137 137q-90 117 -91 274q0 159 92 275l-138 138l79 79l138 -138q117 93 274 92q157 0 274 -92l138 138l79 -79l-138 -138q93 -116 93 -275q0 -156 -92 -274l137 -137l-79 -79l-137 137q-116 -91 -275 -92q-158 0 -275 92l-137 -137zM232 728q0 -137 94 -231 t231 -94t231.5 94t94.5 231t-94.5 231.5t-231.5 94.5t-231 -94.5t-94 -231.5z" />
<glyph unicode="&#xa5;" horiz-adv-x="944" d="M4 131l31 101h257l29 94h-257l31 101h257l40 129l-80 841h100h101l27 -627l406 627h104h104l-569 -841l-40 -129h257l-31 -101h-257l-29 -94h257l-31 -101h-257l-40 -131h-96h-97l40 131h-257z" />
<glyph unicode="&#xa6;" horiz-adv-x="1020" d="M458 458h105v-919h-105v919zM458 564v919h105v-919h-105z" />
<glyph unicode="&#xa7;" horiz-adv-x="944" d="M219 717q0 126 91 187q48 32 124 47q-66 40 -99 74q-61 62 -61 144q0 133 80 197q79 63 245 63q50 0 89 -5.5t76 -17.5v-131q-39 13 -73.5 17.5t-91.5 4.5q-83 0 -122.5 -30.5t-39.5 -93.5q0 -43 40 -79t145 -90q128 -66 176.5 -122.5t48.5 -141.5q0 -130 -96 -193 q-37 -25 -92 -39q77 -44 114 -82q61 -63 61 -158q0 -149 -89.5 -220.5t-275.5 -71.5q-54 0 -100 7t-95 23v136q61 -20 102 -27t93 -7q94 0 145 40.5t51 115.5q0 54 -37 91.5t-135 81.5q-156 71 -215 131t-59 149zM390 742q0 -61 34 -100q35 -37 124 -79l67 39q69 51 69 116 q0 56 -26.5 91t-97.5 71l-14 7q-51 -10 -96 -42q-60 -45 -60 -103z" />
<glyph unicode="&#xa8;" horiz-adv-x="944" d="M388 1159l53 182h188l-53 -182h-188zM708 1159l53 182h188l-53 -182h-188z" />
<glyph unicode="&#xa9;" horiz-adv-x="1020" d="M309 1051q0 201 138.5 339.5t338.5 138.5q201 0 339.5 -138.5t138.5 -339.5q0 -200 -138.5 -338.5t-339.5 -138.5q-200 0 -338.5 138.5t-138.5 338.5zM374 1051q0 -173 119.5 -292.5t292.5 -119.5t293 119.5t120 292.5t-120 293t-293 120t-292.5 -120t-119.5 -293z M557 1060q0 116 75.5 195.5t184.5 79.5q58 0 114.5 -22t79.5 -54l-58 -62q-19 26 -58.5 44.5t-77.5 18.5q-78 0 -131.5 -58t-53.5 -142t54.5 -141.5t133.5 -57.5q37 0 77 19.5t61 47.5l58 -62q-24 -34 -81 -57t-115 -23q-110 0 -186.5 79.5t-76.5 194.5z" />
<glyph unicode="&#xaa;" horiz-adv-x="604" d="M194 878q0 48 20 113l2 4q31 101 100 144t200 43h61l12 40q20 56 9 80t-54 24q-25 0 -43 -22.5t-34 -72.5h-168q26 101 86 147.5t162 46.5q138 0 187 -60q27 -32 27 -85q1 -40 -17 -94l-95 -311q-4 -11 -8 -36l-11 -63h-166l17 53l-15 -13q-63 -54 -144 -54 q-89 0 -117 57q-11 24 -11 59zM371 892q10 -25 49 -25q25 0 49.5 28t43.5 79l32 104h-54q-46 0 -70.5 -22.5t-42.5 -81.5l-1 -4q-16 -53 -6 -78z" />
<glyph unicode="&#xab;" horiz-adv-x="906" d="M135 542l250 327h152l-229 -367l27 -394h-123zM466 542l250 327h152l-229 -367l27 -394h-123z" />
<glyph unicode="&#xac;" horiz-adv-x="1360" d="M264 667v125h798v-460h-125v335h-673z" />
<glyph unicode="&#xad;" horiz-adv-x="453" d="M75 430l46 156h272l-46 -156h-272z" />
<glyph unicode="&#xae;" horiz-adv-x="1020" d="M309 1046q0 201 138.5 339.5t338.5 138.5q201 0 339.5 -138.5t138.5 -339.5q0 -200 -138.5 -338.5t-339.5 -138.5q-200 0 -338.5 138.5t-138.5 338.5zM374 1046q0 -173 119.5 -292.5t292.5 -119.5t293 119.5t120 292.5t-120 293t-293 120t-292.5 -120t-119.5 -293z M619 807v506h187q62 0 104.5 -42.5t42.5 -104.5t-43 -105q-20 -20 -46 -31l89 -223h-91l-84 212h-84v-212h-75zM694 1094h112q30 0 51 21t21 51t-21 51t-51 21h-112v-72v-72z" />
<glyph unicode="&#xaf;" horiz-adv-x="1020" d="M0 1526v105h1020v-105h-1020z" />
<glyph unicode="&#xb0;" horiz-adv-x="944" d="M333 1109q0 150 81.5 235t225.5 85q145 0 226.5 -85t81.5 -235t-81.5 -234.5t-226.5 -84.5q-144 0 -225.5 84.5t-81.5 234.5zM474 1109q0 -96 44 -150t122 -54t122.5 54t44.5 150t-44.5 150.5t-122.5 54.5t-122 -54.5t-44 -150.5z" />
<glyph unicode="&#xb1;" horiz-adv-x="1360" d="M267 -37v125h798v-125h-798zM267 511v124h337v337h124v-337h337v-124h-337v-337h-124v337h-337z" />
<glyph unicode="&#xb2;" horiz-adv-x="566" d="M125 677l19 64l19 65q197 157 308 274q110 117 109 169q0 30 -15 44t-48 14q-34 0 -56 -20.5t-28 -58.5h-137q16 97 70 140t160 43q97 0 145 -36q46 -36 46 -110q0 -99 -106 -215q-92 -99 -319 -271h311l-30 -102h-448z" />
<glyph unicode="&#xb3;" horiz-adv-x="566" d="M176 844l8 28h136l-8 -28q-11 -48 -1.5 -67.5t45.5 -19.5q31 0 60 32.5t45 85.5l3 11q20 69 1.5 94t-87.5 25h-9l27 92h46q32 0 59 26t40 69l5 19q13 43 -2 69.5t-51 26.5q-23 0 -39.5 -19.5t-28.5 -59.5h-130q22 101 71.5 142t149.5 41q104 0 148 -54q27 -33 26 -80 q1 -31 -10 -67l-6 -19q-22 -79 -79 -120q-26 -18 -57 -29q40 -12 53 -35q12 -19 13 -55q-1 -47 -22 -121l-3 -11q-23 -77 -76.5 -117t-133.5 -40q-129 0 -172.5 40.5t-20.5 140.5z" />
<glyph unicode="&#xb4;" horiz-adv-x="944" d="M542 1097l189 307h217l-261 -307h-145z" />
<glyph unicode="&#xb5;" horiz-adv-x="1133" d="M-125 -337q83 200 135 338t74 215l222 764h200l-190 -634q-29 -99 14.5 -162.5t141.5 -63.5q105 0 187.5 105t144.5 316l127 439h190l-153 -529q-30 -103 -50 -234t-18 -217h-185q0 82 15 184q-21 -35 -43 -64q-102 -140 -227 -140q-110 0 -166 88q-21 38 -31 80 l-178 -485h-210z" />
<glyph unicode="&#xb6;" horiz-adv-x="944" d="M149 1045q0 216 161.5 348.5t425.5 132.5h260v-80h-138v-1772h-80v1772h-98v-1772h-80v892q-215 39 -333 163t-118 316z" />
<glyph unicode="&#xb7;" horiz-adv-x="453" d="M158 590l67 231h212l-67 -231h-212z" />
<glyph unicode="&#xb8;" horiz-adv-x="944" d="M-42 -387l244 271h154l-183 -271h-215z" />
<glyph unicode="&#xb9;" horiz-adv-x="566" d="M295 677l161 554l-7 -5q-54 -36 -139 -66l41 141q58 17 96 41q38 23 83 69h124l-213 -734h-73h-73z" />
<glyph unicode="&#xba;" horiz-adv-x="604" d="M195 915q1 42 16 95l48 165q40 138 106.5 194t189.5 56q126 0 174 -64q27 -36 27 -91q0 -41 -16 -95l-48 -165q-40 -136 -106.5 -192t-190.5 -56q-125 0 -173 63q-26 36 -27 90zM364 905q7 -27 51 -27q35 0 57.5 30.5t44.5 104.5l48 165q24 82 17 109t-51 27 q-35 0 -57.5 -30.5t-44.5 -105.5l-48 -165q-24 -81 -17 -108z" />
<glyph unicode="&#xbb;" horiz-adv-x="906" d="M42 108l228 367l-26 394h123l77 -434l-250 -327h-152zM373 108l228 367l-26 394h123l77 -434l-250 -327h-152z" />
<glyph unicode="&#xbc;" horiz-adv-x="1360" d="M124 -71l991 1510h150l-991 -1510h-150zM261 677l161 554l-7 -5q-54 -36 -139 -66l41 141q58 17 96 41q38 23 83 69h124l-213 -734h-73h-73zM603 151l21 66l20 66l344 437h98h99l-144 -469h96l-31 -100h-96l-46 -151h-127l46 151h-280zM743 251h171l113 368l-259 -336z " />
<glyph unicode="&#xbd;" horiz-adv-x="1360" d="M90 -71l991 1510h150l-991 -1510h-150zM273 677l161 554l-7 -5q-54 -36 -139 -66l41 141q58 17 96 41q38 23 83 69h124l-213 -734h-73h-73zM639 0l19 64l19 65q197 157 308 274q110 117 109 169q0 30 -15 44t-48 14q-34 0 -56 -20.5t-28 -58.5h-137q16 97 70 140t160 43 q97 0 145 -36q46 -36 46 -110q0 -99 -106 -215q-92 -99 -319 -271h311l-30 -102h-448z" />
<glyph unicode="&#xbe;" horiz-adv-x="1360" d="M178 844l8 28h136l-8 -28q-11 -48 -1.5 -67.5t45.5 -19.5q31 0 60 32.5t45 85.5l3 11q20 69 1.5 94t-87.5 25h-9l27 92h46q32 0 59 26t40 69l5 19q13 43 -2 69.5t-51 26.5q-23 0 -39.5 -19.5t-28.5 -59.5h-130q22 101 71.5 142t149.5 41q104 0 148 -54q27 -33 26 -80 q1 -31 -10 -67l-6 -19q-22 -79 -79 -120q-26 -18 -57 -29q40 -12 53 -35q12 -19 13 -55q-1 -47 -22 -121l-3 -11q-23 -77 -76.5 -117t-133.5 -40q-129 0 -172.5 40.5t-20.5 140.5zM189 -71l991 1510h150l-991 -1510h-150zM680 151l21 66l20 66l344 437h98h99l-144 -469h96 l-31 -100h-96l-46 -151h-127l46 151h-280zM820 251h171l113 368l-259 -336z" />
<glyph unicode="&#xbf;" horiz-adv-x="868" d="M-54 -136q28 98 96 186t281 303q47 48 68.5 98.5t63.5 210.5h142q-48 -195 -77.5 -271.5t-79.5 -131.5q-200 -221 -250 -284.5t-64 -110.5q-28 -98 -7 -140q21 -41 100 -41q76 0 121 58.5t72 191.5h182q-43 -216 -132 -304t-265 -88q-173 0 -235.5 80.5t-15.5 242.5z M460 788l57 196h204l-57 -196h-204z" />
<glyph unicode="&#xc0;" horiz-adv-x="1057" d="M-78 0l762 1411h122h123l-92 -1411h-99h-99l26 317h-383l-161 -317h-99h-100zM364 476h315l59 735zM639 1839h205l76 -307h-146z" />
<glyph unicode="&#xc1;" horiz-adv-x="1057" d="M-78 0l762 1411h122h123l-92 -1411h-99h-99l26 317h-383l-161 -317h-99h-100zM364 476h315l59 735zM707 1526l187 307h217l-259 -307h-145z" />
<glyph unicode="&#xc2;" horiz-adv-x="1057" d="M-78 0l762 1411h122h123l-92 -1411h-99h-99l26 317h-383l-161 -317h-99h-100zM364 476h315l59 735zM582 1523l241 288h100h100l75 -288h-132l-80 174l-161 -174h-143z" />
<glyph unicode="&#xc3;" horiz-adv-x="1057" d="M-78 0l762 1411h122h123l-92 -1411h-99h-99l26 317h-383l-161 -317h-99h-100zM364 476h315l59 735zM580 1532q55 139 87 183.5t77 44.5q32 0 66 -14t103 -55q24 -15 42.5 -23t26.5 -8q21 0 36.5 20t33.5 68h114q-50 -136 -85 -181q-33 -45 -86 -45q-25 0 -57.5 14 t-103.5 57q-24 14 -40.5 21.5t-23.5 7.5q-20 0 -37.5 -20t-38.5 -70h-114z" />
<glyph unicode="&#xc4;" horiz-adv-x="1057" d="M-78 0l762 1411h122h123l-92 -1411h-99h-99l26 317h-383l-161 -317h-99h-100zM364 476h315l59 735zM590 1563l59 182h196l-59 -182h-196zM917 1563l59 182h196l-59 -182h-196z" />
<glyph unicode="&#xc5;" horiz-adv-x="1057" d="M-78 0l762 1411h122h123l-92 -1411h-99h-99l26 317h-383l-161 -317h-99h-100zM364 476h315l59 735zM652 1714q0 80 55 135t135 55t135 -55t55 -135t-55 -135t-135 -55t-135 55t-55 135zM750 1714q0 -39 26.5 -65.5t65.5 -26.5t65.5 26.5t26.5 65.5t-26.5 65.5t-65.5 26.5 t-65.5 -26.5t-26.5 -65.5z" />
<glyph unicode="&#xc6;" horiz-adv-x="1435" d="M-77 0l868 1411h266h507l-24 -79l-24 -80h-485l-72 -448h427l-23 -79l-23 -80h-406l-78 -486h384l-24 -79l-24 -80h-361h-184l51 308h-385l-181 -308h-104h-105zM407 467h319l123 748z" />
<glyph unicode="&#xc7;" horiz-adv-x="1020" d="M60 -387l244 271h154l-178 -271h-220zM102 233q0 80 31 187l147 507q81 281 194 391.5t317 110.5q213 0 276 -105q30 -51 30 -131q1 -88 -36 -212h-195q49 168 27 229t-133 61q-90 0 -156 -71q-64 -70 -105 -212l-169 -579q-40 -138 -15 -204.5t117 -66.5 q98 0 162.5 60.5t100.5 185.5l16 56h189l-16 -56q-39 -214 -151 -309q-110 -95 -324 -95q-202 0 -272 110q-35 56 -35 143z" />
<glyph unicode="&#xc8;" horiz-adv-x="868" d="M-19 0l409 1411h639l-24 -79l-24 -80h-444l-130 -448h418l-23 -79l-23 -80h-418l-141 -486h460l-24 -79l-24 -80h-651zM510 1839h205l76 -307h-146z" />
<glyph unicode="&#xc9;" horiz-adv-x="868" d="M-19 0l409 1411h639l-24 -79l-24 -80h-444l-130 -448h418l-23 -79l-23 -80h-418l-141 -486h460l-24 -79l-24 -80h-651zM578 1526l187 307h217l-259 -307h-145z" />
<glyph unicode="&#xca;" horiz-adv-x="868" d="M-19 0l409 1411h639l-24 -79l-24 -80h-444l-130 -448h418l-23 -79l-23 -80h-418l-141 -486h460l-24 -79l-24 -80h-651zM453 1523l241 288h100h100l75 -288h-132l-80 174l-161 -174h-143z" />
<glyph unicode="&#xcb;" horiz-adv-x="868" d="M-19 0l409 1411h639l-24 -79l-24 -80h-444l-130 -448h418l-23 -79l-23 -80h-418l-141 -486h460l-24 -79l-24 -80h-651zM461 1563l59 182h196l-59 -182h-196zM788 1563l59 182h196l-59 -182h-196z" />
<glyph unicode="&#xcc;" horiz-adv-x="453" d="M-19 0l409 1411h96h97l-409 -1411h-96h-97zM319 1839h205l76 -307h-146z" />
<glyph unicode="&#xcd;" horiz-adv-x="453" d="M-19 0l409 1411h96h97l-409 -1411h-96h-97zM387 1526l187 307h217l-259 -307h-145z" />
<glyph unicode="&#xce;" horiz-adv-x="453" d="M-19 0l409 1411h96h97l-409 -1411h-96h-97zM262 1523l241 288h100h100l75 -288h-132l-80 174l-161 -174h-143z" />
<glyph unicode="&#xcf;" horiz-adv-x="453" d="M-19 0l409 1411h96h97l-409 -1411h-96h-97zM270 1563l59 182h196l-59 -182h-196zM597 1563l59 182h196l-59 -182h-196z" />
<glyph unicode="&#xd0;" horiz-adv-x="1057" d="M-19 0l184 634h-95l41 143h95l184 634h96h236q264 0 335 -115q32 -51 31 -139q1 -107 -47 -268l-94 -324q-103 -356 -210.5 -460.5t-371.5 -104.5h-288h-96zM219 158h131q180 0 247.5 65t137.5 305l94 324q77 265 58 333t-171 68h-178l-139 -476h204l-41 -143h-204z" />
<glyph unicode="&#xd1;" horiz-adv-x="1095" d="M-25 0l409 1411h145h145l20 -1214l352 1214h87h88l-409 -1411h-147h-148l-20 1197l-347 -1197h-87h-88zM576 1532q55 139 87 183.5t77 44.5q32 0 66 -14t103 -55q24 -15 42.5 -23t26.5 -8q21 0 36.5 20t33.5 68h114q-50 -136 -85 -181q-33 -45 -86 -45q-25 0 -57.5 14 t-103.5 57q-24 14 -40.5 21.5t-23.5 7.5q-20 0 -37.5 -20t-38.5 -70h-114z" />
<glyph unicode="&#xd2;" horiz-adv-x="1057" d="M67 243q0 76 29 175l147 507q86 297 192.5 400.5t325.5 103.5q220 0 298 -110q43 -61 43 -154q0 -77 -29 -176l-147 -507q-86 -296 -193 -399q-105 -103 -324 -103q-220 0 -299 110q-43 60 -43 153zM282 199q31 -61 149 -61q97 0 166 70.5t110 212.5l168 579 q43 149 12.5 210t-149.5 61q-97 0 -165.5 -70.5t-109.5 -212.5l-169 -579q-43 -149 -12 -210zM622 1839h205l76 -307h-146z" />
<glyph unicode="&#xd3;" horiz-adv-x="1057" d="M67 243q0 76 29 175l147 507q86 297 192.5 400.5t325.5 103.5q220 0 298 -110q43 -61 43 -154q0 -77 -29 -176l-147 -507q-86 -296 -193 -399q-105 -103 -324 -103q-220 0 -299 110q-43 60 -43 153zM282 199q31 -61 149 -61q97 0 166 70.5t110 212.5l168 579 q43 149 12.5 210t-149.5 61q-97 0 -165.5 -70.5t-109.5 -212.5l-169 -579q-43 -149 -12 -210zM690 1526l187 307h217l-259 -307h-145z" />
<glyph unicode="&#xd4;" horiz-adv-x="1057" d="M67 243q0 76 29 175l147 507q86 297 192.5 400.5t325.5 103.5q220 0 298 -110q43 -61 43 -154q0 -77 -29 -176l-147 -507q-86 -296 -193 -399q-105 -103 -324 -103q-220 0 -299 110q-43 60 -43 153zM282 199q31 -61 149 -61q97 0 166 70.5t110 212.5l168 579 q43 149 12.5 210t-149.5 61q-97 0 -165.5 -70.5t-109.5 -212.5l-169 -579q-43 -149 -12 -210zM565 1523l241 288h100h100l75 -288h-132l-80 174l-161 -174h-143z" />
<glyph unicode="&#xd5;" horiz-adv-x="1057" d="M67 243q0 76 29 175l147 507q86 297 192.5 400.5t325.5 103.5q220 0 298 -110q43 -61 43 -154q0 -77 -29 -176l-147 -507q-86 -296 -193 -399q-105 -103 -324 -103q-220 0 -299 110q-43 60 -43 153zM282 199q31 -61 149 -61q97 0 166 70.5t110 212.5l168 579 q43 149 12.5 210t-149.5 61q-97 0 -165.5 -70.5t-109.5 -212.5l-169 -579q-43 -149 -12 -210zM563 1532q55 139 87 183.5t77 44.5q32 0 66 -14t103 -55q24 -15 42.5 -23t26.5 -8q21 0 36.5 20t33.5 68h114q-50 -136 -85 -181q-33 -45 -86 -45q-25 0 -57.5 14t-103.5 57 q-24 14 -40.5 21.5t-23.5 7.5q-20 0 -37.5 -20t-38.5 -70h-114z" />
<glyph unicode="&#xd6;" horiz-adv-x="1057" d="M67 243q0 76 29 175l147 507q86 297 192.5 400.5t325.5 103.5q220 0 298 -110q43 -61 43 -154q0 -77 -29 -176l-147 -507q-86 -296 -193 -399q-105 -103 -324 -103q-220 0 -299 110q-43 60 -43 153zM282 199q31 -61 149 -61q97 0 166 70.5t110 212.5l168 579 q43 149 12.5 210t-149.5 61q-97 0 -165.5 -70.5t-109.5 -212.5l-169 -579q-43 -149 -12 -210zM573 1563l59 182h196l-59 -182h-196zM900 1563l59 182h196l-59 -182h-196z" />
<glyph unicode="&#xd7;" horiz-adv-x="1360" d="M323 296l278 277l-278 277l92 92l277 -278l277 278l92 -92l-278 -277l278 -277l-92 -92l-277 278l-277 -278z" />
<glyph unicode="&#xd8;" horiz-adv-x="1057" d="M59 243q0 76 29 175l147 507q86 297 192.5 400.5t325.5 103.5q220 0 298 -110q43 -61 43 -154q0 -77 -29 -176l-147 -507q-86 -296 -193 -399q-105 -103 -324 -103q-220 0 -299 110q-43 60 -43 153zM66 -105l952 1657l70 -35l-952 -1658zM274 199q31 -61 149 -61 q97 0 166 70.5t110 212.5l168 579q43 149 12.5 210t-149.5 61q-97 0 -165.5 -70.5t-109.5 -212.5l-169 -579q-43 -149 -12 -210z" />
<glyph unicode="&#xd9;" horiz-adv-x="1057" d="M74 232q0 84 32 194l286 985h99h99l-294 -1013q-25 -89 -26 -144q0 -35 11 -58q28 -57 139 -57q100 0 171 74.5t115 224.5l282 973h96h97l-286 -985q-72 -250 -188 -348q-113 -98 -334 -98q-198 0 -266 112q-34 56 -33 140zM622 1839h205l76 -307h-146z" />
<glyph unicode="&#xda;" horiz-adv-x="1057" d="M74 232q0 84 32 194l286 985h99h99l-294 -1013q-25 -89 -26 -144q0 -35 11 -58q28 -57 139 -57q100 0 171 74.5t115 224.5l282 973h96h97l-286 -985q-72 -250 -188 -348q-113 -98 -334 -98q-198 0 -266 112q-34 56 -33 140zM690 1526l187 307h217l-259 -307h-145z" />
<glyph unicode="&#xdb;" horiz-adv-x="1057" d="M74 232q0 84 32 194l286 985h99h99l-294 -1013q-25 -89 -26 -144q0 -35 11 -58q28 -57 139 -57q100 0 171 74.5t115 224.5l282 973h96h97l-286 -985q-72 -250 -188 -348q-113 -98 -334 -98q-198 0 -266 112q-34 56 -33 140zM565 1523l241 288h100h100l75 -288h-132 l-80 174l-161 -174h-143z" />
<glyph unicode="&#xdc;" horiz-adv-x="1057" d="M74 232q0 84 32 194l286 985h99h99l-294 -1013q-25 -89 -26 -144q0 -35 11 -58q28 -57 139 -57q100 0 171 74.5t115 224.5l282 973h96h97l-286 -985q-72 -250 -188 -348q-113 -98 -334 -98q-198 0 -266 112q-34 56 -33 140zM573 1563l59 182h196l-59 -182h-196zM900 1563 l59 182h196l-59 -182h-196z" />
<glyph unicode="&#xdd;" horiz-adv-x="944" d="M216 0l172 560l-76 851h100h100l26 -633l407 633h104h105l-573 -851l-172 -560h-96h-97zM635 1526l187 307h217l-259 -307h-145z" />
<glyph unicode="&#xde;" horiz-adv-x="944" d="M-7 0l409 1411h96h97l-94 -325h168q183 0 241.5 -112.5t-7.5 -337.5l-4 -15q-46 -159 -154 -242t-269 -83h-205l-85 -296h-96h-97zM317 454h124q108 0 177 52.5t100 158.5l4 15q40 136 13.5 192t-130.5 56h-150z" />
<glyph unicode="&#xdf;" horiz-adv-x="906" d="M-46 0l321 1096q48 164 154 246t272 82q158 0 215 -74t14 -222q-31 -107 -77 -165.5t-149 -122.5q-53 -32 -73 -49q-18 -16 -23 -31q-6 -23 9.5 -56t69.5 -109q85 -119 103 -192.5t-11 -174.5q-41 -139 -119 -194q-75 -54 -231 -54q-63 0 -113 5t-84 15l35 123 q27 -10 64 -14.5t87 -4.5q73 0 117 30t62 93q26 88 18 143t-57 131q-78 121 -99.5 177.5t-7.5 105.5q14 46 41 78.5t78 63.5l68 42q52 33 77 66.5t44 99.5q24 83 5 124.5t-82 41.5q-77 0 -139 -55q-61 -55 -88 -149l-314 -1096h-93h-94z" />
<glyph unicode="&#xe0;" d="M6 144q1 71 32 174l3 10q46 149 144 212t283 63q114 1 111 -10l29 96q35 102 18 145.5t-93 43.5q-59 0 -97.5 -39t-65.5 -127h-182q35 139 124 214.5t216 75.5q183 0 244 -92q32 -47 32 -118q-1 -69 -29 -158l-195 -634h-165l26 87q-14 -17 -30 -31q-88 -76 -213 -76 q-137 0 -176 81q-15 33 -16 83zM196 144.5q15 -42.5 81 -42.5q67 0 121.5 50t88.5 143l54 176q4 13 -64 11q-117 0 -173.5 -40t-88.5 -145l-3 -10q-31 -100 -16 -142.5zM416 1410h205l76 -307h-146z" />
<glyph unicode="&#xe1;" d="M6 144q1 71 32 174l3 10q46 149 144 212t283 63q114 1 111 -10l29 96q35 102 18 145.5t-93 43.5q-59 0 -97.5 -39t-65.5 -127h-182q35 139 124 214.5t216 75.5q183 0 244 -92q32 -47 32 -118q-1 -69 -29 -158l-195 -634h-165l26 87q-14 -17 -30 -31q-88 -76 -213 -76 q-137 0 -176 81q-15 33 -16 83zM196 144.5q15 -42.5 81 -42.5q67 0 121.5 50t88.5 143l54 176q4 13 -64 11q-117 0 -173.5 -40t-88.5 -145l-3 -10q-31 -100 -16 -142.5zM551 1097l187 307h217l-259 -307h-145z" />
<glyph unicode="&#xe2;" d="M6 144q1 71 32 174l3 10q46 149 144 212t283 63q114 1 111 -10l29 96q35 102 18 145.5t-93 43.5q-59 0 -97.5 -39t-65.5 -127h-182q35 139 124 214.5t216 75.5q183 0 244 -92q32 -47 32 -118q-1 -69 -29 -158l-195 -634h-165l26 87q-14 -17 -30 -31q-88 -76 -213 -76 q-137 0 -176 81q-15 33 -16 83zM196 144.5q15 -42.5 81 -42.5q67 0 121.5 50t88.5 143l54 176q4 13 -64 11q-117 0 -173.5 -40t-88.5 -145l-3 -10q-31 -100 -16 -142.5zM361 1103l241 288h100h100l75 -288h-132l-79 174l-162 -174h-143z" />
<glyph unicode="&#xe3;" d="M6 144q1 71 32 174l3 10q46 149 144 212t283 63q114 1 111 -10l29 96q35 102 18 145.5t-93 43.5q-59 0 -97.5 -39t-65.5 -127h-182q35 139 124 214.5t216 75.5q183 0 244 -92q32 -47 32 -118q-1 -69 -29 -158l-195 -634h-165l26 87q-14 -17 -30 -31q-88 -76 -213 -76 q-137 0 -176 81q-15 33 -16 83zM196 144.5q15 -42.5 81 -42.5q67 0 121.5 50t88.5 143l54 176q4 13 -64 11q-117 0 -173.5 -40t-88.5 -145l-3 -10q-31 -100 -16 -142.5zM365 1138q58 140 91.5 184.5t81.5 44.5q20 0 52.5 -14.5t107.5 -57.5q23 -12 42 -19t31 -7 q21 0 36.5 18.5t33.5 63.5h114q-51 -136 -85.5 -181t-87.5 -45q-21 0 -52.5 15t-107.5 59q-19 12 -37 18t-31 6q-21 0 -38 -19t-37 -66h-114z" />
<glyph unicode="&#xe4;" d="M6 144q1 71 32 174l3 10q46 149 144 212t283 63q114 1 111 -10l29 96q35 102 18 145.5t-93 43.5q-59 0 -97.5 -39t-65.5 -127h-182q35 139 124 214.5t216 75.5q183 0 244 -92q32 -47 32 -118q-1 -69 -29 -158l-195 -634h-165l26 87q-14 -17 -30 -31q-88 -76 -213 -76 q-137 0 -176 81q-15 33 -16 83zM196 144.5q15 -42.5 81 -42.5q67 0 121.5 50t88.5 143l54 176q4 13 -64 11q-117 0 -173.5 -40t-88.5 -145l-3 -10q-31 -100 -16 -142.5zM381 1159l53 182h188l-53 -182h-188zM701 1159l53 182h188l-53 -182h-188z" />
<glyph unicode="&#xe5;" d="M6 144q1 71 32 174l3 10q46 149 144 212t283 63q114 1 111 -10l29 96q35 102 18 145.5t-93 43.5q-59 0 -97.5 -39t-65.5 -127h-182q35 139 124 214.5t216 75.5q183 0 244 -92q32 -47 32 -118q-1 -69 -29 -158l-195 -634h-165l26 87q-14 -17 -30 -31q-88 -76 -213 -76 q-137 0 -176 81q-15 33 -16 83zM196 144.5q15 -42.5 81 -42.5q67 0 121.5 50t88.5 143l54 176q4 13 -64 11q-117 0 -173.5 -40t-88.5 -145l-3 -10q-31 -100 -16 -142.5zM429 1285q0 80 55 135t135 55t135 -55t55 -135t-55 -135t-135 -55t-135 55t-55 135zM527 1285 q0 -39 26.5 -65.5t65.5 -26.5t65.5 26.5t26.5 65.5t-26.5 65.5t-65.5 26.5t-65.5 -26.5t-26.5 -65.5z" />
<glyph unicode="&#xe6;" horiz-adv-x="1284" d="M28 149q0 64 28 156l3 10q44 142 139.5 202.5t275.5 60.5h112q44 143 41 212q-4 88 -84 88q-61 0 -101 -40t-68 -131h-182q37 142 124 218.5t211 76.5q179 0 226 -127l26 34q80 93 211 93h-1q163 0 219 -98q28 -49 28 -122q0 -71 -27 -165l-48 -164h-427l-15 -51 q-52 -179 -42 -238.5t92 -59.5q55 0 94 44.5t65 136.5h173q-36 -171 -111 -238q-73 -67 -227 -67q-150 0 -204 90q-14 25 -21 55q-30 -44 -69 -73q-91 -72 -227 -72q-148 0 -194 78q-20 36 -20 91zM221.5 141q14.5 -39 76.5 -39q63 0 114 46t82 130l52 170h-64 q-110 0 -162.5 -36t-81.5 -132l-3 -10q-28 -90 -13.5 -129zM770 576h242l23 81q39 133 27.5 177t-84.5 44q-66 0 -107.5 -50t-77.5 -171z" />
<glyph unicode="&#xe7;" horiz-adv-x="793" d="M-75 -387l244 271h154l-183 -271h-215zM36 195q0 72 28 168l86 296q52 178 138.5 260.5t221.5 82.5q156 0 216 -83q38 -51 37 -131q1 -50 -15 -113h-180q30 104 16 153.5t-73 49.5q-61 0 -102.5 -54t-79.5 -186l-86 -296q-39 -133 -28 -185.5t78 -52.5q55 0 91.5 37 t59.5 115l11 39h179l-11 -39q-30 -141 -117 -209q-84 -67 -232 -67q-157 0 -212 98q-26 48 -26 117z" />
<glyph unicode="&#xe8;" horiz-adv-x="793" d="M20 201q1 70 27 161l74 255q61 212 156.5 298.5t266.5 86.5q158 0 211 -98q26 -48 27 -119q0 -73 -28 -168l-54 -184h-448l-20 -70q-45 -155 -31 -207t101 -52q60 0 100 44q43 45 69 137h173q-36 -171 -118 -238q-79 -67 -249 -67q-167 0 -227 98q-29 50 -30 123z M288 556h263l18 62q45 156 34 208t-90 52q-72 0 -120 -59q-46 -59 -87 -201zM388 1410h205l76 -307h-146z" />
<glyph unicode="&#xe9;" horiz-adv-x="793" d="M20 201q1 70 27 161l74 255q61 212 156.5 298.5t266.5 86.5q158 0 211 -98q26 -48 27 -119q0 -73 -28 -168l-54 -184h-448l-20 -70q-45 -155 -31 -207t101 -52q60 0 100 44q43 45 69 137h173q-36 -171 -118 -238q-79 -67 -249 -67q-167 0 -227 98q-29 50 -30 123z M288 556h263l18 62q45 156 34 208t-90 52q-72 0 -120 -59q-46 -59 -87 -201zM523 1097l187 307h217l-259 -307h-145z" />
<glyph unicode="&#xea;" horiz-adv-x="793" d="M20 201q1 70 27 161l74 255q61 212 156.5 298.5t266.5 86.5q158 0 211 -98q26 -48 27 -119q0 -73 -28 -168l-54 -184h-448l-20 -70q-45 -155 -31 -207t101 -52q60 0 100 44q43 45 69 137h173q-36 -171 -118 -238q-79 -67 -249 -67q-167 0 -227 98q-29 50 -30 123z M288 556h263l18 62q45 156 34 208t-90 52q-72 0 -120 -59q-46 -59 -87 -201zM333 1103l241 288h100h100l75 -288h-132l-79 174l-162 -174h-143z" />
<glyph unicode="&#xeb;" horiz-adv-x="793" d="M20 201q1 70 27 161l74 255q61 212 156.5 298.5t266.5 86.5q158 0 211 -98q26 -48 27 -119q0 -73 -28 -168l-54 -184h-448l-20 -70q-45 -155 -31 -207t101 -52q60 0 100 44q43 45 69 137h173q-36 -171 -118 -238q-79 -67 -249 -67q-167 0 -227 98q-29 50 -30 123z M288 556h263l18 62q45 156 34 208t-90 52q-72 0 -120 -59q-46 -59 -87 -201zM353 1159l53 182h188l-53 -182h-188zM673 1159l53 182h188l-53 -182h-188z" />
<glyph unicode="&#xec;" horiz-adv-x="453" d="M-8 0l285 982h93h94l-285 -982h-93h-94zM202 1410h205l76 -307h-146z" />
<glyph unicode="&#xed;" horiz-adv-x="453" d="M-8 0l285 982h93h94l-285 -982h-93h-94zM337 1097l187 307h217l-259 -307h-145z" />
<glyph unicode="&#xee;" horiz-adv-x="453" d="M-8 0l285 982h93h94l-285 -982h-93h-94zM147 1103l241 288h100h100l75 -288h-132l-79 174l-162 -174h-143z" />
<glyph unicode="&#xef;" horiz-adv-x="453" d="M-8 0l285 982h93h94l-285 -982h-93h-94zM167 1159l53 182h188l-53 -182h-188zM487 1159l53 182h188l-53 -182h-188z" />
<glyph unicode="&#xf0;" d="M30 204q-1 69 26 158l74 255q61 212 154 298.5t257 86.5q65 0 113 -14q-26 270 -136 399l154 52q108 -123 140 -357q11 -78 11 -156q0 -151 -42 -293l-41 -144q-92 -316 -176.5 -412.5t-270.5 -96.5q-170 0 -232 98q-31 51 -31 126zM210 156q14 -52 102 -52 q72 0 118.5 58.5t87.5 200.5l74 255q45 156 31 208t-102 52q-71 0 -119 -59q-46 -59 -87 -201l-74 -255q-45 -155 -31 -207zM414 1238l456 158l31 -96l-456 -158z" />
<glyph unicode="&#xf1;" d="M-39 0l302 982h89h89l-27 -87q97 107 221 107q132 0 173 -83t-10 -248l-206 -671h-89h-90l210 685q30 96 16 144t-71 48q-90 0 -147.5 -75t-103.5 -251l-169 -551h-93h-94zM361 1138q58 140 91.5 184.5t81.5 44.5q20 0 52.5 -14.5t107.5 -57.5q23 -12 42 -19t31 -7 q21 0 36.5 18.5t33.5 63.5h114q-51 -136 -85.5 -181t-87.5 -45q-21 0 -52.5 15t-107.5 59q-19 12 -37 18t-31 6q-21 0 -38 -19t-37 -66h-114z" />
<glyph unicode="&#xf2;" d="M38 204q-1 69 26 158l74 255q61 212 154 298.5t257 86.5q171 0 231 -98q32 -51 31 -127q1 -69 -26 -160l-74 -255q-61 -210 -154 -296q-91 -86 -256 -86q-170 0 -232 98q-31 51 -31 126zM220 158.5q15 -54.5 100 -54.5q72 0 118.5 58.5t87.5 200.5l74 255 q44 151 29 205.5t-100 54.5q-71 0 -119 -59q-46 -59 -87 -201l-74 -255q-44 -150 -29 -204.5zM399 1410h205l76 -307h-146z" />
<glyph unicode="&#xf3;" d="M38 204q-1 69 26 158l74 255q61 212 154 298.5t257 86.5q171 0 231 -98q32 -51 31 -127q1 -69 -26 -160l-74 -255q-61 -210 -154 -296q-91 -86 -256 -86q-170 0 -232 98q-31 51 -31 126zM220 158.5q15 -54.5 100 -54.5q72 0 118.5 58.5t87.5 200.5l74 255 q44 151 29 205.5t-100 54.5q-71 0 -119 -59q-46 -59 -87 -201l-74 -255q-44 -150 -29 -204.5zM534 1097l187 307h217l-259 -307h-145z" />
<glyph unicode="&#xf4;" d="M38 204q-1 69 26 158l74 255q61 212 154 298.5t257 86.5q171 0 231 -98q32 -51 31 -127q1 -69 -26 -160l-74 -255q-61 -210 -154 -296q-91 -86 -256 -86q-170 0 -232 98q-31 51 -31 126zM220 158.5q15 -54.5 100 -54.5q72 0 118.5 58.5t87.5 200.5l74 255 q44 151 29 205.5t-100 54.5q-71 0 -119 -59q-46 -59 -87 -201l-74 -255q-44 -150 -29 -204.5zM344 1103l241 288h100h100l75 -288h-132l-79 174l-162 -174h-143z" />
<glyph unicode="&#xf5;" d="M38 204q-1 69 26 158l74 255q61 212 154 298.5t257 86.5q171 0 231 -98q32 -51 31 -127q1 -69 -26 -160l-74 -255q-61 -210 -154 -296q-91 -86 -256 -86q-170 0 -232 98q-31 51 -31 126zM220 158.5q15 -54.5 100 -54.5q72 0 118.5 58.5t87.5 200.5l74 255 q44 151 29 205.5t-100 54.5q-71 0 -119 -59q-46 -59 -87 -201l-74 -255q-44 -150 -29 -204.5zM348 1138q58 140 91.5 184.5t81.5 44.5q20 0 52.5 -14.5t107.5 -57.5q23 -12 42 -19t31 -7q21 0 36.5 18.5t33.5 63.5h114q-51 -136 -85.5 -181t-87.5 -45q-21 0 -52.5 15 t-107.5 59q-19 12 -37 18t-31 6q-21 0 -38 -19t-37 -66h-114z" />
<glyph unicode="&#xf6;" d="M38 204q-1 69 26 158l74 255q61 212 154 298.5t257 86.5q171 0 231 -98q32 -51 31 -127q1 -69 -26 -160l-74 -255q-61 -210 -154 -296q-91 -86 -256 -86q-170 0 -232 98q-31 51 -31 126zM220 158.5q15 -54.5 100 -54.5q72 0 118.5 58.5t87.5 200.5l74 255 q44 151 29 205.5t-100 54.5q-71 0 -119 -59q-46 -59 -87 -201l-74 -255q-44 -150 -29 -204.5zM364 1159l53 182h188l-53 -182h-188zM684 1159l53 182h188l-53 -182h-188z" />
<glyph unicode="&#xf7;" horiz-adv-x="1360" d="M308 511v125h798v-125h-798zM609 344q0 42 28.5 70.5t69.5 28.5t69.5 -28.5t28.5 -70.5q0 -41 -28.5 -69.5t-69.5 -28.5t-69.5 28.5t-28.5 69.5zM609 802q0 42 28.5 70.5t69.5 28.5t69.5 -28.5t28.5 -70.5q0 -41 -28.5 -69.5t-69.5 -28.5t-69.5 28.5t-28.5 69.5z" />
<glyph unicode="&#xf8;" d="M30 -116l728 1216l56 -29l-729 -1218zM39 204q-1 69 26 158l74 255q61 212 154 298.5t257 86.5q171 0 231 -98q32 -51 31 -127q1 -69 -26 -160l-74 -255q-61 -210 -154 -296q-91 -86 -256 -86q-170 0 -232 98q-31 51 -31 126zM219 156q14 -52 102 -52q72 0 118.5 58.5 t87.5 200.5l74 255q45 156 31 208t-102 52q-71 0 -119 -59q-46 -59 -87 -201l-74 -255q-45 -155 -31 -207z" />
<glyph unicode="&#xf9;" d="M24 153q0 56 21 127l204 702h93h94l-211 -727q-22 -75 -6.5 -112.5t69.5 -37.5q77 0 131.5 75t105.5 251l160 551h91h92l-285 -982h-86h-86l33 104l-11 -12q-98 -112 -234 -112q-113 0 -155 80q-20 39 -20 93zM392 1410h205l76 -307h-146z" />
<glyph unicode="&#xfa;" d="M24 153q0 56 21 127l204 702h93h94l-211 -727q-22 -75 -6.5 -112.5t69.5 -37.5q77 0 131.5 75t105.5 251l160 551h91h92l-285 -982h-86h-86l33 104l-11 -12q-98 -112 -234 -112q-113 0 -155 80q-20 39 -20 93zM527 1097l187 307h217l-259 -307h-145z" />
<glyph unicode="&#xfb;" d="M24 153q0 56 21 127l204 702h93h94l-211 -727q-22 -75 -6.5 -112.5t69.5 -37.5q77 0 131.5 75t105.5 251l160 551h91h92l-285 -982h-86h-86l33 104l-11 -12q-98 -112 -234 -112q-113 0 -155 80q-20 39 -20 93zM337 1103l241 288h100h100l75 -288h-132l-79 174l-162 -174 h-143z" />
<glyph unicode="&#xfc;" d="M24 153q0 56 21 127l204 702h93h94l-211 -727q-22 -75 -6.5 -112.5t69.5 -37.5q77 0 131.5 75t105.5 251l160 551h91h92l-285 -982h-86h-86l33 104l-11 -12q-98 -112 -234 -112q-113 0 -155 80q-20 39 -20 93zM357 1159l53 182h188l-53 -182h-188zM677 1159l53 182h188 l-53 -182h-188z" />
<glyph unicode="&#xfd;" d="M-47 -367l201 346l30 1003h90h90l-40 -742l404 742h94h95l-774 -1349h-95h-95zM517 1097l187 307h217l-259 -307h-145z" />
<glyph unicode="&#xfe;" d="M-151 -367l515 1778h93h94l-144 -496q92 87 209 87q129 0 169 -91q19 -40 18 -98q1 -70 -27 -165l-115 -396q-41 -139 -115 -206q-72 -66 -186 -66q-131 2 -195 102l-129 -449h-93h-94zM213.5 183.5q5.5 -81.5 97.5 -81.5q63 0 110.5 54t78.5 162l100 345q35 119 21 168 t-81 49q-76 0 -128.5 -70.5t-104.5 -240.5l-23 -78q-76 -226 -70.5 -307.5z" />
<glyph unicode="&#xff;" d="M-47 -367l201 346l30 1003h90h90l-40 -742l404 742h94h95l-774 -1349h-95h-95zM347 1159l53 182h188l-53 -182h-188zM667 1159l53 182h188l-53 -182h-188z" />
<glyph unicode="&#x100;" horiz-adv-x="1057" d="M-78 0l762 1411h122h123l-92 -1411h-99h-99l26 317h-383l-161 -317h-99h-100zM364 476h315l59 735zM623 1540l50 137h442l-50 -137h-442z" />
<glyph unicode="&#x101;" d="M6 144q1 71 32 174l3 10q46 149 144 212t283 63q114 1 111 -10l29 96q35 102 18 145.5t-93 43.5q-59 0 -97.5 -39t-65.5 -127h-182q35 139 124 214.5t216 75.5q183 0 244 -92q32 -47 32 -118q-1 -69 -29 -158l-195 -634h-165l26 87q-14 -17 -30 -31q-88 -76 -213 -76 q-137 0 -176 81q-15 33 -16 83zM196 144.5q15 -42.5 81 -42.5q67 0 121.5 50t88.5 143l54 176q4 13 -64 11q-117 0 -173.5 -40t-88.5 -145l-3 -10q-31 -100 -16 -142.5zM360 1135l35 137h534l-35 -137h-534z" />
<glyph unicode="&#x102;" horiz-adv-x="1057" d="M-78 0l762 1411h122h123l-92 -1411h-99h-99l26 317h-383l-161 -317h-99h-100zM364 476h315l59 735zM660 1811h146q-36 -85 -19 -129.5t85 -44.5q64 0 102 39.5t66 134.5h146q-29 -143 -111.5 -217t-214.5 -74q-144 0 -197.5 77t-2.5 214z" />
<glyph unicode="&#x103;" d="M6 144q1 71 32 174l3 10q46 149 144 212t283 63q114 1 111 -10l29 96q35 102 18 145.5t-93 43.5q-59 0 -97.5 -39t-65.5 -127h-182q35 139 124 214.5t216 75.5q183 0 244 -92q32 -47 32 -118q-1 -69 -29 -158l-195 -634h-165l26 87q-14 -17 -30 -31q-88 -76 -213 -76 q-137 0 -176 81q-15 33 -16 83zM196 144.5q15 -42.5 81 -42.5q67 0 121.5 50t88.5 143l54 176q4 13 -64 11q-117 0 -173.5 -40t-88.5 -145l-3 -10q-31 -100 -16 -142.5zM435.5 1174q-48.5 77 2.5 214h146q-35 -85 -18 -129.5t85 -44.5q64 0 102 39.5t65 134.5h146 q-44 -163 -121 -227q-75 -64 -225 -64q-134 0 -182.5 77z" />
<glyph unicode="&#x104;" horiz-adv-x="1057" d="M-78 0l762 1411h122h123l-92 -1411h-99h-99l26 317h-383l-161 -317h-99h-100zM364 476h315l59 735zM454 -158q21 72 97.5 138t181.5 102l22 -62q-59 -19 -108 -62.5t-62 -86.5q-13 -46 6 -77t61 -31q22 0 47 11t49 30l64 -84q-45 -41 -99.5 -65.5t-99.5 -24.5 q-104 0 -147 56q-41 56 -12 156z" />
<glyph unicode="&#x105;" d="M6 144q1 71 32 174l3 10q46 149 144 212t283 63q114 1 111 -10l29 96q35 102 18 145.5t-93 43.5q-59 0 -97.5 -39t-65.5 -127h-182q35 139 124 214.5t216 75.5q183 0 244 -92q32 -47 32 -118q-1 -69 -29 -158l-195 -634h-165l26 87q-14 -17 -30 -31q-88 -76 -213 -76 q-137 0 -176 81q-15 33 -16 83zM196 144.5q15 -42.5 81 -42.5q67 0 121.5 50t88.5 143l54 176q4 13 -64 11q-117 0 -173.5 -40t-88.5 -145l-3 -10q-31 -100 -16 -142.5zM259 -161q15 54 86.5 116t175.5 111l14 -42q-51 -26 -96 -69q-43 -43 -54 -79q-13 -46 4 -77t57 -31 q20 0 44.5 11t47.5 30l66 -82q-44 -41 -97 -65.5t-95 -24.5q-93 0 -136 57q-43 56 -17 145z" />
<glyph unicode="&#x106;" horiz-adv-x="1020" d="M62 233q0 80 31 187l147 507q81 281 194 391.5t317 110.5q213 0 276 -105q30 -51 30 -131q1 -88 -36 -212h-195q49 168 27 229t-133 61q-90 0 -156 -71q-64 -70 -105 -212l-169 -579q-40 -138 -15 -204.5t117 -66.5q98 0 162.5 60.5t100.5 185.5l16 56h189l-16 -56 q-39 -214 -151 -309q-110 -95 -324 -95q-202 0 -272 110q-35 56 -35 143zM717 1526l187 307h217l-259 -307h-145z" />
<glyph unicode="&#x107;" horiz-adv-x="793" d="M39 195q0 72 28 168l86 296q52 178 138.5 260.5t221.5 82.5q156 0 216 -83q38 -51 37 -131q1 -50 -15 -113h-180q30 104 16 153.5t-73 49.5q-61 0 -102.5 -54t-79.5 -186l-86 -296q-39 -133 -28 -185.5t78 -52.5q55 0 91.5 37t59.5 115l11 39h179l-11 -39 q-30 -141 -117 -209q-84 -67 -232 -67q-157 0 -212 98q-26 48 -26 117zM474 1097l187 307h217l-259 -307h-145z" />
<glyph unicode="&#x10c;" horiz-adv-x="1020" d="M62 233q0 80 31 187l147 507q81 281 194 391.5t317 110.5q213 0 276 -105q30 -51 30 -131q1 -88 -36 -212h-195q49 168 27 229t-133 61q-90 0 -156 -71q-64 -70 -105 -212l-169 -579q-40 -138 -15 -204.5t117 -66.5q98 0 162.5 60.5t100.5 185.5l16 56h189l-16 -56 q-39 -214 -151 -309q-110 -95 -324 -95q-202 0 -272 110q-35 56 -35 143zM606 1820h132l79 -174l162 174h143l-241 -288h-100h-100z" />
<glyph unicode="&#x10d;" horiz-adv-x="793" d="M39 195q0 72 28 168l86 296q52 178 138.5 260.5t221.5 82.5q156 0 216 -83q38 -51 37 -131q1 -50 -15 -113h-180q30 104 16 153.5t-73 49.5q-61 0 -102.5 -54t-79.5 -186l-86 -296q-39 -133 -28 -185.5t78 -52.5q55 0 91.5 37t59.5 115l11 39h179l-11 -39 q-30 -141 -117 -209q-84 -67 -232 -67q-157 0 -212 98q-26 48 -26 117zM367 1391h132l79 -174l162 174h143l-241 -288h-100h-100z" />
<glyph unicode="&#x10e;" horiz-adv-x="1057" d="M-19 0l409 1411h96h234q263 0 333 -115q31 -51 31 -138q1 -107 -48 -270l-94 -324q-102 -355 -209 -459.5t-370 -104.5h-286h-96zM219 158h130q178 0 245 64.5t137 304.5l94 324q77 265 58 333.5t-169 68.5h-176zM570 1820h132l79 -174l162 174h143l-241 -288h-100h-100z " />
<glyph unicode="&#x10f;" horiz-adv-x="1057" d="M13 166q-1 80 34 198l73 252q62 212 139.5 299t205.5 87q136 0 192 -95l146 504h93h94l-409 -1411h-87h-87l24 86l-9 -10q-93 -96 -217 -96q-137 0 -177 94q-16 37 -15 92zM195.5 159.5q10.5 -57.5 91.5 -57.5q65 0 114 61.5t101 210.5l67 231q45 155 33 213.5t-90 58.5 q-75 0 -125 -65q-48 -65 -94 -222l-58 -201q-50 -172 -39.5 -229.5zM984 1067l175 344h164l-235 -344h-104z" />
<glyph unicode="&#x110;" horiz-adv-x="1057" d="M-19 0l184 634h-95l41 143h95l184 634h96h236q264 0 335 -115q32 -51 31 -139q1 -107 -47 -268l-94 -324q-103 -356 -210.5 -460.5t-371.5 -104.5h-288h-96zM219 158h131q180 0 247.5 65t137.5 305l94 324q77 265 58 333t-171 68h-178l-139 -476h204l-41 -143h-204z" />
<glyph unicode="&#x111;" d="M13 165q-1 79 33 195l73 250q61 210 138 296t205 86q138 0 192 -95l149 514h93h94l-409 -1411h-87h-87l24 85l-10 -10q-92 -95 -216 -95q-137 0 -177 93q-16 38 -15 92zM195 159q11 -57 92 -57q65 0 114 61t100 208l66 227q45 153 32.5 211t-90.5 58q-75 0 -124 -64 t-94 -219l-58 -199q-49 -169 -38 -226zM535 1098l39 132h498l-39 -132h-498z" />
<glyph unicode="&#x112;" horiz-adv-x="868" d="M-19 0l409 1411h639l-24 -79l-24 -80h-444l-130 -448h418l-23 -79l-23 -80h-418l-141 -486h460l-24 -79l-24 -80h-651zM494 1540l50 137h442l-50 -137h-442z" />
<glyph unicode="&#x113;" horiz-adv-x="793" d="M20 201q1 70 27 161l74 255q61 212 156.5 298.5t266.5 86.5q158 0 211 -98q26 -48 27 -119q0 -73 -28 -168l-54 -184h-448l-20 -70q-45 -155 -31 -207t101 -52q60 0 100 44q43 45 69 137h173q-36 -171 -118 -238q-79 -67 -249 -67q-167 0 -227 98q-29 50 -30 123z M288 556h263l18 62q45 156 34 208t-90 52q-72 0 -120 -59q-46 -59 -87 -201zM332 1135l35 137h534l-35 -137h-534z" />
<glyph unicode="&#x116;" horiz-adv-x="868" d="M-19 0l409 1411h639l-24 -79l-24 -80h-444l-130 -448h418l-23 -79l-23 -80h-418l-141 -486h460l-24 -79l-24 -80h-651zM617 1563l57 197h210l-57 -197h-210z" />
<glyph unicode="&#x117;" horiz-adv-x="793" d="M20 201q1 70 27 161l74 255q61 212 156.5 298.5t266.5 86.5q158 0 211 -98q26 -48 27 -119q0 -73 -28 -168l-54 -184h-448l-20 -70q-45 -155 -31 -207t101 -52q60 0 100 44q43 45 69 137h173q-36 -171 -118 -238q-79 -67 -249 -67q-167 0 -227 98q-29 50 -30 123z M288 556h263l18 62q45 156 34 208t-90 52q-72 0 -120 -59q-46 -59 -87 -201zM514 1158l60 185h188l-60 -185h-188z" />
<glyph unicode="&#x118;" horiz-adv-x="868" d="M-19 0l409 1411h639l-24 -79l-24 -80h-444l-130 -448h418l-23 -79l-23 -80h-418l-141 -486h460l-24 -79l-24 -80h-651zM284 -158q21 72 97.5 138t181.5 102l22 -62q-59 -19 -108 -62.5t-62 -86.5q-13 -46 6 -77t61 -31q22 0 47 11t49 30l64 -84q-45 -41 -99.5 -65.5 t-99.5 -24.5q-104 0 -147 56q-41 56 -12 156z" />
<glyph unicode="&#x119;" horiz-adv-x="793" d="M20 201q1 70 27 161l74 255q61 212 156.5 298.5t266.5 86.5q158 0 211 -98q26 -48 27 -119q0 -73 -28 -168l-54 -184h-448l-20 -70q-45 -155 -31 -207t101 -52q60 0 100 44q43 45 69 137h173q-36 -171 -118 -238q-79 -67 -249 -67q-167 0 -227 98q-29 50 -30 123z M178 -161q15 54 86.5 116t175.5 111l14 -42q-51 -26 -96 -69q-43 -43 -54 -79q-13 -46 4 -77t57 -31q20 0 44.5 11t47.5 30l66 -82q-44 -41 -97 -65.5t-95 -24.5q-93 0 -136 57q-43 56 -17 145zM288 556h263l18 62q45 156 34 208t-90 52q-72 0 -120 -59q-46 -59 -87 -201z " />
<glyph unicode="&#x11a;" horiz-adv-x="868" d="M-19 0l409 1411h639l-24 -79l-24 -80h-444l-130 -448h418l-23 -79l-23 -80h-418l-141 -486h460l-24 -79l-24 -80h-651zM538 1820h132l79 -174l162 174h143l-241 -288h-100h-100z" />
<glyph unicode="&#x11b;" horiz-adv-x="793" d="M20 201q1 70 27 161l74 255q61 212 156.5 298.5t266.5 86.5q158 0 211 -98q26 -48 27 -119q0 -73 -28 -168l-54 -184h-448l-20 -70q-45 -155 -31 -207t101 -52q60 0 100 44q43 45 69 137h173q-36 -171 -118 -238q-79 -67 -249 -67q-167 0 -227 98q-29 50 -30 123z M288 556h263l18 62q45 156 34 208t-90 52q-72 0 -120 -59q-46 -59 -87 -201zM416 1391h132l79 -174l162 174h143l-241 -288h-100h-100z" />
<glyph unicode="&#x11e;" horiz-adv-x="1057" d="M76 242q0 76 29 175l147 507q86 298 198 401.5t347 103.5q213 0 278.5 -99.5t-0.5 -324.5h-195q38 154 9 210t-148 56q-103 0 -164 -65t-107 -223l-168 -579q-44 -150 -10 -211.5t159 -61.5q86 1 185 37l115 421h-204l46 159h408l-206 -708q-183 -59 -376 -60 q-220 0 -300 109q-43 60 -43 153zM645 1811h146q-36 -85 -19 -129.5t85 -44.5q64 0 102 39.5t66 134.5h146q-29 -143 -111.5 -217t-214.5 -74q-144 0 -197.5 77t-2.5 214z" />
<glyph unicode="&#x11f;" d="M-98 -115l11 39h162l-11 -39q-18 -77 5 -112.5t92 -35.5q81 0 132 67t99 237l16 53q-90 -80 -206 -80q-132 0 -178 80q-23 40 -23 99q1 57 22 133l59 204q81 278 159.5 375t222.5 97q124 1 194 -113l27 93h168l-274 -941q-71 -248 -164 -338t-279 -90q-148 0 -211 73.5 t-23 198.5zM191 187q13 -52 68 -52q82 0 137.5 59.5t105.5 199.5l64 220q42 137 25 198t-98 61q-72 0 -123 -74t-103 -253l-59 -204q-30 -103 -17 -155zM379.5 1174q-48.5 77 2.5 214h146q-35 -85 -18 -129.5t85 -44.5q64 0 102 39.5t65 134.5h146q-44 -163 -121 -227 q-75 -64 -225 -64q-134 0 -182.5 77z" />
<glyph unicode="&#x122;" horiz-adv-x="1057" d="M76 -387l244 271h154l-178 -271h-220zM82 242q0 76 29 175l147 507q86 298 198 401.5t347 103.5q213 0 278.5 -99.5t-0.5 -324.5h-195q38 154 9 210t-148 56q-103 0 -164 -65t-107 -223l-168 -579q-44 -150 -10 -211.5t159 -61.5q86 1 185 37l115 421h-204l46 159h408 l-206 -708q-183 -59 -376 -60q-220 0 -300 109q-43 60 -43 153z" />
<glyph unicode="&#x123;" d="M-98 -115l11 39h162l-11 -39q-18 -77 5 -112.5t92 -35.5q81 0 132 67t99 237l16 53q-90 -80 -206 -80q-132 0 -178 80q-23 40 -23 99q1 57 22 133l59 204q81 278 159.5 375t222.5 97q124 1 194 -113l27 93h168l-274 -941q-71 -248 -164 -338t-279 -90q-148 0 -211 73.5 t-23 198.5zM191 187q13 -52 68 -52q82 0 137.5 59.5t105.5 199.5l64 220q42 137 25 198t-98 61q-72 0 -123 -74t-103 -253l-59 -204q-30 -103 -17 -155zM401 1103l259 277h147l-183 -277h-223z" />
<glyph unicode="&#x12a;" horiz-adv-x="453" d="M-19 0l409 1411h96h97l-409 -1411h-96h-97zM303 1540l50 137h442l-50 -137h-442z" />
<glyph unicode="&#x12b;" horiz-adv-x="378" d="M-46 0l285 982h93h94l-285 -982h-93h-94zM108 1135l35 137h534l-35 -137h-534z" />
<glyph unicode="&#x12e;" horiz-adv-x="453" d="M-135 -158q21 72 97.5 138t181.5 102l22 -62q-59 -19 -108 -62.5t-62 -86.5q-13 -46 6 -77t61 -31q22 0 47 11t49 30l64 -84q-45 -41 -99.5 -65.5t-99.5 -24.5q-104 0 -147 56q-41 56 -12 156zM-18 0l409 1411h96h97l-409 -1411h-96h-97z" />
<glyph unicode="&#x12f;" horiz-adv-x="378" d="M-110 -161q15 54 86.5 116t175.5 111l14 -42q-51 -26 -96 -69q-43 -43 -54 -79q-13 -46 4 -77t57 -31q20 0 44.5 11t47.5 30l66 -82q-44 -41 -97 -65.5t-95 -24.5q-93 0 -136 57q-43 56 -17 145zM-28 0l285 982h93h94l-285 -982h-93h-94zM321 1214l56 193h192l-56 -193 h-192z" />
<glyph unicode="&#x130;" horiz-adv-x="453" d="M-19 0l409 1411h96h97l-409 -1411h-96h-97zM426 1563l57 197h210l-57 -197h-210z" />
<glyph unicode="&#x131;" horiz-adv-x="453" d="M-8 0l285 982h93h94l-285 -982h-93h-94z" />
<glyph unicode="&#x136;" horiz-adv-x="1020" d="M-2 0l409 1411h96h97l-409 -1411h-96h-97zM41 -387l244 271h154l-178 -271h-220zM412 762l530 649h105h105l-543 -661l190 -750h-99h-100z" />
<glyph unicode="&#x137;" d="M-10 -387l244 271h154l-178 -271h-220zM13 0l434 1411h90h91l-434 -1411h-90h-91zM369 570l353 412h101h101l-366 -427l117 -555h-90h-91z" />
<glyph unicode="&#x139;" horiz-adv-x="793" d="M-15 0l409 1411h96h97l-363 -1252h422l-24 -79l-24 -80h-613zM462 1526l187 307h217l-259 -307h-145z" />
<glyph unicode="&#x13a;" horiz-adv-x="378" d="M-48 0l409 1411h93h94l-409 -1411h-93h-94zM426 1526l187 307h217l-259 -307h-145z" />
<glyph unicode="&#x13b;" horiz-adv-x="793" d="M-15 -387l244 271h154l-178 -271h-220zM33 0l409 1411h96h97l-363 -1252h422l-24 -79l-24 -80h-613z" />
<glyph unicode="&#x13c;" horiz-adv-x="378" d="M-300 -387l244 271h154l-178 -271h-220zM-39 0l409 1411h93h94l-409 -1411h-93h-94z" />
<glyph unicode="&#x13d;" horiz-adv-x="793" d="M-15 0l409 1411h96h97l-363 -1252h422l-24 -79l-24 -80h-613zM619 1067l175 344h164l-235 -344h-104z" />
<glyph unicode="&#x13e;" horiz-adv-x="604" d="M-48 0l409 1411h93h94l-409 -1411h-93h-94zM537 1067l175 344h164l-235 -344h-104z" />
<glyph unicode="&#x141;" horiz-adv-x="793" d="M-23 562l45 191l635 195l-63 -196zM-10 0l409 1411h96h97l-363 -1252h422l-24 -79l-24 -80h-613z" />
<glyph unicode="&#x142;" horiz-adv-x="378" d="M-48 0l409 1411h93h94l-409 -1411h-93h-94zM4 536l57 197l450 173l-58 -197z" />
<glyph unicode="&#x143;" horiz-adv-x="1095" d="M-25 0l409 1411h145h145l20 -1214l352 1214h87h88l-409 -1411h-147h-148l-20 1197l-347 -1197h-87h-88zM703 1526l187 307h217l-259 -307h-145z" />
<glyph unicode="&#x144;" d="M-39 0l302 982h89h89l-27 -87q97 107 221 107q132 0 173 -83t-10 -248l-206 -671h-89h-90l210 685q30 96 16 144t-71 48q-90 0 -147.5 -75t-103.5 -251l-169 -551h-93h-94zM505 1097l187 307h217l-259 -307h-145z" />
<glyph unicode="&#x145;" horiz-adv-x="1095" d="M-25 0l409 1411h145h145l20 -1214l352 1214h87h88l-409 -1411h-147h-148l-20 1197l-347 -1197h-87h-88zM39 -387l244 271h154l-178 -271h-220z" />
<glyph unicode="&#x146;" d="M-39 -387l244 271h154l-178 -271h-220zM0 0l302 982h89h89l-27 -87q97 107 221 107q132 0 173 -83t-10 -248l-206 -671h-89h-90l210 685q30 96 16 144t-71 48q-90 0 -147.5 -75t-103.5 -251l-169 -551h-93h-94z" />
<glyph unicode="&#x147;" horiz-adv-x="1095" d="M-25 0l409 1411h145h145l20 -1214l352 1214h87h88l-409 -1411h-147h-148l-20 1197l-347 -1197h-87h-88zM663 1820h132l79 -174l162 174h143l-241 -288h-100h-100z" />
<glyph unicode="&#x148;" d="M-39 0l302 982h89h89l-27 -87q97 107 221 107q132 0 173 -83t-10 -248l-206 -671h-89h-90l210 685q30 96 16 144t-71 48q-90 0 -147.5 -75t-103.5 -251l-169 -551h-93h-94zM440 1391h132l79 -174l162 174h143l-241 -288h-100h-100z" />
<glyph unicode="&#x14c;" horiz-adv-x="1057" d="M67 243q0 76 29 175l147 507q86 297 192.5 400.5t325.5 103.5q220 0 298 -110q43 -61 43 -154q0 -77 -29 -176l-147 -507q-86 -296 -193 -399q-105 -103 -324 -103q-220 0 -299 110q-43 60 -43 153zM282 199q31 -61 149 -61q97 0 166 70.5t110 212.5l168 579 q43 149 12.5 210t-149.5 61q-97 0 -165.5 -70.5t-109.5 -212.5l-169 -579q-43 -149 -12 -210zM606 1540l50 137h442l-50 -137h-442z" />
<glyph unicode="&#x14d;" d="M38 204q-1 69 26 158l74 255q61 212 154 298.5t257 86.5q171 0 231 -98q32 -51 31 -127q1 -69 -26 -160l-74 -255q-61 -210 -154 -296q-91 -86 -256 -86q-170 0 -232 98q-31 51 -31 126zM220 158.5q15 -54.5 100 -54.5q72 0 118.5 58.5t87.5 200.5l74 255 q44 151 29 205.5t-100 54.5q-71 0 -119 -59q-46 -59 -87 -201l-74 -255q-44 -150 -29 -204.5zM343 1135l35 137h534l-35 -137h-534z" />
<glyph unicode="&#x150;" horiz-adv-x="1057" d="M67 243q0 76 29 175l147 507q86 297 192.5 400.5t325.5 103.5q220 0 298 -110q43 -61 43 -154q0 -77 -29 -176l-147 -507q-86 -296 -193 -399q-105 -103 -324 -103q-220 0 -299 110q-43 60 -43 153zM282 199q31 -61 149 -61q97 0 166 70.5t110 212.5l168 579 q43 149 12.5 210t-149.5 61q-97 0 -165.5 -70.5t-109.5 -212.5l-169 -579q-43 -149 -12 -210zM603 1520l187 307h217l-259 -307h-145zM889 1520l187 307h217l-259 -307h-145z" />
<glyph unicode="&#x151;" d="M38 204q-1 69 26 158l74 255q61 212 154 298.5t257 86.5q171 0 231 -98q32 -51 31 -127q1 -69 -26 -160l-74 -255q-61 -210 -154 -296q-91 -86 -256 -86q-170 0 -232 98q-31 51 -31 126zM220 158.5q15 -54.5 100 -54.5q72 0 118.5 58.5t87.5 200.5l74 255 q44 151 29 205.5t-100 54.5q-71 0 -119 -59q-46 -59 -87 -201l-74 -255q-44 -150 -29 -204.5zM410 1097l187 307h217l-259 -307h-145zM693 1097l187 307h217l-259 -307h-145z" />
<glyph unicode="&#x152;" horiz-adv-x="1397" d="M74 423l145 498q91 312 192 404t355 92l405 -6h349l-24 -79l-24 -80h-398l-130 -448h398l-23 -79l-23 -80h-398l-141 -486h412l-24 -79l-24 -80h-359q-175 0 -189 -3q-11 -3 -190 -3q-216 0 -293.5 107t-15.5 322zM261 211q30 -59 144 -59q148 1 174 26l310 1067 q-24 14 -166 14q-109 0 -175.5 -64.5t-109.5 -210.5l-165 -569q-42 -145 -12 -204z" />
<glyph unicode="&#x153;" horiz-adv-x="1284" d="M41 362l74 255q61 212 150 299q88 86 241 86q160 0 215 -98l10 -20l29 32q89 86 246 86q147 0 194 -98q23 -46 22 -111q0 -75 -29 -176l-54 -184h-436l-20 -70q-45 -155 -32 -207t97 -52q57 0 97 44.5t66 136.5h173q-36 -171 -112 -238q-74 -67 -231 -67q-155 0 -209 98 l-8 17l-26 -29q-87 -86 -240 -86q-160 0 -216 97.5t-1 284.5zM195 156q14 -52 102 -52q72 0 118.5 58.5t87.5 200.5l74 255q45 156 30 208q-13 52 -101 52q-71 0 -119 -59q-46 -59 -87 -201l-74 -255q-45 -155 -31 -207zM739 556h251l18 62q45 156 35.5 208t-85.5 52 q-68 0 -115 -59q-45 -59 -86 -201z" />
<glyph unicode="&#x154;" horiz-adv-x="1020" d="M-15 0l434 1411h94h252q207 0 285 -96q45 -55 45 -140q0 -63 -24 -140l-4 -13q-48 -156 -138 -231q-86 -72 -223 -74q99 -19 141 -64q66 -72 11 -250q-34 -111 -53 -202l-5 -26q-12 -69 -17.5 -108t-6.5 -66h-98h-99q3 23 9 59t19 101l9 41q19 90 53 201q42 134 8 189 t-159 55h-145l-199 -647h-94h-95zM421 805h196q96 0 162 56.5t101 169.5l4 13q35 115 -4 162t-169 47h-152zM667 1526l187 307h217l-259 -307h-145z" />
<glyph unicode="&#x155;" horiz-adv-x="566" d="M-38 0l285 982h87h87l-26 -105l13 13q109 109 249 110l-47 -182h-14q-122 0 -181.5 -54.5t-109.5 -212.5l-160 -551h-91h-92zM419 1097l187 307h217l-259 -307h-145z" />
<glyph unicode="&#x156;" horiz-adv-x="1020" d="M-15 0l434 1411h94h252q207 0 285 -96q45 -55 45 -140q0 -63 -24 -140l-4 -13q-48 -156 -138 -231q-86 -72 -223 -74q99 -19 141 -64q66 -72 11 -250q-34 -111 -53 -202l-5 -26q-12 -69 -17.5 -108t-6.5 -66h-98h-99q3 23 9 59t19 101l9 41q19 90 53 201q42 134 8 189 t-159 55h-145l-199 -647h-94h-95zM25 -387l244 271h154l-178 -271h-220zM421 805h196q96 0 162 56.5t101 169.5l4 13q35 115 -4 162t-169 47h-152z" />
<glyph unicode="&#x157;" horiz-adv-x="566" d="M-300 -387l244 271h154l-178 -271h-220zM-37 0l285 982h87h87l-26 -105l13 13q109 109 249 110l-47 -182h-14q-122 0 -181.5 -54.5t-109.5 -212.5l-160 -551h-91h-92z" />
<glyph unicode="&#x158;" horiz-adv-x="1020" d="M-15 0l434 1411h94h252q207 0 285 -96q45 -55 45 -140q0 -63 -24 -140l-4 -13q-48 -156 -138 -231q-86 -72 -223 -74q99 -19 141 -64q66 -72 11 -250q-34 -111 -53 -202l-5 -26q-12 -69 -17.5 -108t-6.5 -66h-98h-99q3 23 9 59t19 101l9 41q19 90 53 201q42 134 8 189 t-159 55h-145l-199 -647h-94h-95zM421 805h196q96 0 162 56.5t101 169.5l4 13q35 115 -4 162t-169 47h-152zM627 1820h132l79 -174l162 174h143l-241 -288h-100h-100z" />
<glyph unicode="&#x159;" horiz-adv-x="566" d="M-38 0l285 982h87h87l-26 -105l13 13q109 109 249 110l-47 -182h-14q-122 0 -181.5 -54.5t-109.5 -212.5l-160 -551h-91h-92zM312 1391h132l79 -174l162 174h143l-241 -288h-100h-100z" />
<glyph unicode="&#x15a;" horiz-adv-x="982" d="M26 219q-1 71 24 165l16 56h186l-16 -56q-35 -135 -2.5 -190.5t146.5 -55.5q98 0 169 62t104 177q22 76 -7 132q-29 55 -127 125q-184 131 -231 227q-24 49 -24 113q1 62 22 137q46 159 161.5 238.5t299.5 79.5q186 0 254 -105q41 -63 42 -161q0 -69 -20 -154h-195 q37 144 14 203t-117 59q-96 0 -164.5 -56.5t-98.5 -160.5q-21 -70 12 -126q33 -55 139 -131q178 -127 221 -227q20 -47 20 -108q0 -71 -26 -161q-44 -151 -171 -236q-125 -85 -306 -85q-214 0 -286 95q-39 53 -39 144zM642 1526l187 307h217l-259 -307h-145z" />
<glyph unicode="&#x15b;" horiz-adv-x="755" d="M0 180q1 40 12 85l12 39h182l-12 -39q-18 -72 2.5 -116.5t73.5 -44.5q57 0 95.5 36t59.5 108q13 48 -4 85q-16 37 -77 93q-124 114 -159 188q-20 43 -21 91q0 35 11 72q33 113 112.5 169t205.5 56q170 0 230 -78q34 -44 34 -112q0 -54 -22 -125h-189q34 111 22 151 t-80 40q-48 0 -81.5 -32t-52.5 -97q-12 -42 9 -80q20 -38 88 -101q119 -110 151 -186q17 -39 17 -87q0 -40 -14 -89q-30 -106 -121 -166q-89 -60 -218 -60q-153 0 -222 75q-43 50 -44 125zM454 1097l187 307h217l-259 -307h-145z" />
<glyph unicode="&#x15e;" horiz-adv-x="982" d="M26 -387l244 271h154l-178 -271h-220zM50 219q-1 71 24 165l16 56h186l-16 -56q-35 -135 -2.5 -190.5t146.5 -55.5q98 0 169 62t104 177q22 76 -7 132q-29 55 -127 125q-184 131 -231 227q-24 49 -24 113q1 62 22 137q46 159 161.5 238.5t299.5 79.5q186 0 254 -105 q41 -63 42 -161q0 -69 -20 -154h-195q37 144 14 203t-117 59q-96 0 -164.5 -56.5t-98.5 -160.5q-21 -70 12 -126q33 -55 139 -131q178 -127 221 -227q20 -47 20 -108q0 -71 -26 -161q-44 -151 -171 -236q-125 -85 -306 -85q-214 0 -286 95q-39 53 -39 144z" />
<glyph unicode="&#x15f;" horiz-adv-x="755" d="M-74 -387l244 271h154l-183 -271h-215zM-9 180q1 40 12 85l12 39h182l-12 -39q-18 -72 2.5 -116.5t73.5 -44.5q57 0 95.5 36t59.5 108q13 48 -4 85q-16 37 -77 93q-124 114 -159 188q-20 43 -21 91q0 35 11 72q33 113 112.5 169t205.5 56q170 0 230 -78q34 -44 34 -112 q0 -54 -22 -125h-189q34 111 22 151t-80 40q-48 0 -81.5 -32t-52.5 -97q-12 -42 9 -80q20 -38 88 -101q119 -110 151 -186q17 -39 17 -87q0 -40 -14 -89q-30 -106 -121 -166q-89 -60 -218 -60q-153 0 -222 75q-43 50 -44 125z" />
<glyph unicode="&#x160;" horiz-adv-x="982" d="M26 219q-1 71 24 165l16 56h186l-16 -56q-35 -135 -2.5 -190.5t146.5 -55.5q98 0 169 62t104 177q22 76 -7 132q-29 55 -127 125q-184 131 -231 227q-24 49 -24 113q1 62 22 137q46 159 161.5 238.5t299.5 79.5q186 0 254 -105q41 -63 42 -161q0 -69 -20 -154h-195 q37 144 14 203t-117 59q-96 0 -164.5 -56.5t-98.5 -160.5q-21 -70 12 -126q33 -55 139 -131q178 -127 221 -227q20 -47 20 -108q0 -71 -26 -161q-44 -151 -171 -236q-125 -85 -306 -85q-214 0 -286 95q-39 53 -39 144zM602 1820h132l79 -174l162 174h143l-241 -288h-100 h-100z" />
<glyph unicode="&#x161;" horiz-adv-x="755" d="M0 180q1 40 12 85l12 39h182l-12 -39q-18 -72 2.5 -116.5t73.5 -44.5q57 0 95.5 36t59.5 108q13 48 -4 85q-16 37 -77 93q-124 114 -159 188q-20 43 -21 91q0 35 11 72q33 113 112.5 169t205.5 56q170 0 230 -78q34 -44 34 -112q0 -54 -22 -125h-189q34 111 22 151 t-80 40q-48 0 -81.5 -32t-52.5 -97q-12 -42 9 -80q20 -38 88 -101q119 -110 151 -186q17 -39 17 -87q0 -40 -14 -89q-30 -106 -121 -166q-89 -60 -218 -60q-153 0 -222 75q-43 50 -44 125zM347 1391h132l79 -174l162 174h143l-241 -288h-100h-100z" />
<glyph unicode="&#x162;" horiz-adv-x="982" d="M13 -387l244 271h154l-178 -271h-220zM271 0l363 1252h-346l24 79l24 80h882l-24 -79l-24 -80h-343l-363 -1252h-96h-97z" />
<glyph unicode="&#x163;" horiz-adv-x="604" d="M-119 -387l244 271h154l-183 -271h-215zM105.5 49.5q-35.5 69.5 18.5 253.5l158 544h-129l39 135h129l51 177l205 76l-73 -253h157l-39 -135h-157l-158 -544q-32 -107 -15.5 -153t85.5 -46q22 0 44 5l-38 -122q-47 -7 -97 -7q-145 0 -180.5 69.5z" />
<glyph unicode="&#x164;" horiz-adv-x="982" d="M248 0l363 1252h-346l24 79l24 80h882l-24 -79l-24 -80h-343l-363 -1252h-96h-97zM614 1820h132l79 -174l162 174h143l-241 -288h-100h-100z" />
<glyph unicode="&#x165;" horiz-adv-x="680" d="M91.5 49.5q-35.5 69.5 18.5 253.5l158 544h-129l39 135h129l51 177l205 76l-73 -253h157l-39 -135h-157l-158 -544q-32 -107 -15.5 -153t85.5 -46q22 0 44 5l-38 -122q-47 -7 -97 -7q-145 0 -180.5 69.5zM592 1064l175 344h164l-235 -344h-104z" />
<glyph unicode="&#x16a;" horiz-adv-x="1057" d="M74 232q0 84 32 194l286 985h99h99l-294 -1013q-25 -89 -26 -144q0 -35 11 -58q28 -57 139 -57q100 0 171 74.5t115 224.5l282 973h96h97l-286 -985q-72 -250 -188 -348q-113 -98 -334 -98q-198 0 -266 112q-34 56 -33 140zM606 1540l50 137h442l-50 -137h-442z" />
<glyph unicode="&#x16b;" d="M24 153q0 56 21 127l204 702h93h94l-211 -727q-22 -75 -6.5 -112.5t69.5 -37.5q77 0 131.5 75t105.5 251l160 551h91h92l-285 -982h-86h-86l33 104l-11 -12q-98 -112 -234 -112q-113 0 -155 80q-20 39 -20 93zM336 1135l35 137h534l-35 -137h-534z" />
<glyph unicode="&#x16e;" horiz-adv-x="1057" d="M74 232q0 84 32 194l286 985h99h99l-294 -1013q-25 -89 -26 -144q0 -35 11 -58q28 -57 139 -57q100 0 171 74.5t115 224.5l282 973h96h97l-286 -985q-72 -250 -188 -348q-113 -98 -334 -98q-198 0 -266 112q-34 56 -33 140zM635 1714q0 80 55 135t135 55t135 -55t55 -135 t-55 -135t-135 -55t-135 55t-55 135zM733 1714q0 -39 26.5 -65.5t65.5 -26.5t65.5 26.5t26.5 65.5t-26.5 65.5t-65.5 26.5t-65.5 -26.5t-26.5 -65.5z" />
<glyph unicode="&#x16f;" d="M24 153q0 56 21 127l204 702h93h94l-211 -727q-22 -75 -6.5 -112.5t69.5 -37.5q77 0 131.5 75t105.5 251l160 551h91h92l-285 -982h-86h-86l33 104l-11 -12q-98 -112 -234 -112q-113 0 -155 80q-20 39 -20 93zM405 1285q0 80 55 135t135 55t135 -55t55 -135t-55 -135 t-135 -55t-135 55t-55 135zM503 1285q0 -39 26.5 -65.5t65.5 -26.5t65.5 26.5t26.5 65.5t-26.5 65.5t-65.5 26.5t-65.5 -26.5t-26.5 -65.5z" />
<glyph unicode="&#x170;" horiz-adv-x="1057" d="M74 232q0 84 32 194l286 985h99h99l-294 -1013q-25 -89 -26 -144q0 -35 11 -58q28 -57 139 -57q100 0 171 74.5t115 224.5l282 973h96h97l-286 -985q-72 -250 -188 -348q-113 -98 -334 -98q-198 0 -266 112q-34 56 -33 140zM603 1520l187 307h217l-259 -307h-145z M889 1520l187 307h217l-259 -307h-145z" />
<glyph unicode="&#x171;" d="M24 153q0 56 21 127l204 702h93h94l-211 -727q-22 -75 -6.5 -112.5t69.5 -37.5q77 0 131.5 75t105.5 251l160 551h91h92l-285 -982h-86h-86l33 104l-11 -12q-98 -112 -234 -112q-113 0 -155 80q-20 39 -20 93zM403 1097l187 307h217l-259 -307h-145zM686 1097l187 307 h217l-259 -307h-145z" />
<glyph unicode="&#x172;" horiz-adv-x="1057" d="M74 232q0 84 32 194l286 985h99h99l-294 -1013q-25 -89 -26 -144q0 -35 11 -58q28 -57 139 -57q100 0 171 74.5t115 224.5l282 973h96h97l-286 -985q-72 -250 -188 -348q-113 -98 -334 -98q-198 0 -266 112q-34 56 -33 140zM308 -158q21 72 97.5 138t181.5 102l22 -62 q-59 -19 -108 -62.5t-62 -86.5q-13 -46 6 -77t61 -31q22 0 47 11t49 30l64 -84q-45 -41 -99.5 -65.5t-99.5 -24.5q-104 0 -147 56q-41 56 -12 156z" />
<glyph unicode="&#x173;" d="M24 153q0 56 21 127l204 702h93h94l-211 -727q-22 -75 -6.5 -112.5t69.5 -37.5q77 0 131.5 75t105.5 251l160 551h91h92l-285 -982h-86h-86l33 104l-11 -12q-98 -112 -234 -112q-113 0 -155 80q-20 39 -20 93zM262 -161q15 54 86.5 116t175.5 111l14 -42q-51 -26 -96 -69 q-43 -43 -54 -79q-13 -46 4 -77t57 -31q20 0 44.5 11t47.5 30l66 -82q-44 -41 -97 -65.5t-95 -24.5q-93 0 -136 57q-43 56 -17 145z" />
<glyph unicode="&#x178;" horiz-adv-x="944" d="M216 0l172 560l-76 851h100h100l26 -633l407 633h104h105l-573 -851l-172 -560h-96h-97zM518 1563l59 182h196l-59 -182h-196zM845 1563l59 182h196l-59 -182h-196z" />
<glyph unicode="&#x179;" horiz-adv-x="944" d="M-63 0l28 98l28 98l832 1029l22 27h-525l24 79l24 80h739l-28 -93l-28 -93l-832 -1029l-30 -37h562l-24 -79l-24 -80h-768zM639 1526l187 307h217l-259 -307h-145z" />
<glyph unicode="&#x17a;" horiz-adv-x="680" d="M-65 0l24 86l25 86l503 638l34 43h-339l19 64l19 65h521l-25 -86l-25 -86l-503 -638l-34 -43h339l-19 -64l-18 -65h-521zM421 1097l187 307h217l-259 -307h-145z" />
<glyph unicode="&#x17b;" horiz-adv-x="944" d="M-63 0l28 98l28 98l832 1029l22 27h-525l24 79l24 80h739l-28 -93l-28 -93l-832 -1029l-30 -37h562l-24 -79l-24 -80h-768zM678 1563l57 197h210l-57 -197h-210z" />
<glyph unicode="&#x17c;" horiz-adv-x="680" d="M-65 0l24 86l25 86l503 638l34 43h-339l19 64l19 65h521l-25 -86l-25 -86l-503 -638l-34 -43h339l-19 -64l-18 -65h-521zM412 1158l60 185h188l-60 -185h-188z" />
<glyph unicode="&#x17d;" horiz-adv-x="944" d="M-63 0l28 98l28 98l832 1029l22 27h-525l24 79l24 80h739l-28 -93l-28 -93l-832 -1029l-30 -37h562l-24 -79l-24 -80h-768zM599 1820h132l79 -174l162 174h143l-241 -288h-100h-100z" />
<glyph unicode="&#x17e;" horiz-adv-x="680" d="M-65 0l24 86l25 86l503 638l34 43h-339l19 64l19 65h521l-25 -86l-25 -86l-503 -638l-34 -43h339l-19 -64l-18 -65h-521zM314 1391h132l79 -174l162 174h143l-241 -288h-100h-100z" />
<glyph unicode="&#x192;" horiz-adv-x="944" d="M205 0l248 847h-128l39 135h129l33 114q57 197 124 262.5t211 65.5q68 0 108 -17l-35 -123q-24 4 -55 3q-70 0 -105 -39t-68 -152l-33 -114h158l-39 -135h-157l-243 -847h-93h-94z" />
<glyph unicode="&#x2c6;" horiz-adv-x="944" d="M391 1103l242 288h100h100l74 -288h-132l-79 174l-162 -174h-143z" />
<glyph unicode="&#x2c7;" horiz-adv-x="944" d="M448 1391h132l78 -174l163 174h143l-242 -288h-100h-100z" />
<glyph unicode="&#x2d8;" horiz-adv-x="944" d="M436.5 1174q-47.5 77 3.5 214h146q-36 -85 -19 -129.5t85 -44.5q64 0 102 39.5t66 134.5h146q-45 -163 -121.5 -227t-226.5 -64q-134 0 -181.5 77z" />
<glyph unicode="&#x2d9;" horiz-adv-x="944" d="M572 1158l60 185h188l-60 -185h-188z" />
<glyph unicode="&#x2da;" horiz-adv-x="944" d="M480 1285q0 80 55 135t135 55t135 -55t55 -135t-55 -135t-135 -55t-135 55t-55 135zM578 1285q0 -39 26.5 -65.5t65.5 -26.5t65.5 26.5t26.5 65.5t-26.5 65.5t-65.5 26.5t-65.5 -26.5t-26.5 -65.5z" />
<glyph unicode="&#x2db;" horiz-adv-x="944" d="M268 -161q15 54 86.5 116t175.5 111l14 -42q-51 -26 -96 -69q-43 -43 -54 -79q-13 -46 4 -77t57 -31q20 0 44.5 11t47.5 30l66 -82q-44 -41 -97 -65.5t-95 -24.5q-93 0 -136 57q-43 56 -17 145z" />
<glyph unicode="&#x2dc;" horiz-adv-x="944" d="M391 1138q59 140 92.5 184.5t81.5 44.5q20 0 52 -14.5t108 -57.5q22 -12 41 -19t31 -7q21 0 37 18.5t33 63.5h114q-51 -136 -85.5 -181t-87.5 -45q-21 0 -52.5 15t-106.5 59q-20 12 -37.5 18t-30.5 6q-21 0 -39 -19q-16 -19 -37 -66h-114z" />
<glyph unicode="&#x2dd;" horiz-adv-x="944" d="M403 1097l189 307h217l-261 -307h-145zM686 1097l189 307h217l-261 -307h-145z" />
<glyph unicode="&#x401;" horiz-adv-x="868" d="M-19 0l409 1411h639l-24 -79l-24 -80h-444l-130 -448h418l-23 -79l-23 -80h-418l-141 -486h460l-24 -79l-24 -80h-651zM461 1563l59 182h196l-59 -182h-196zM788 1563l59 182h196l-59 -182h-196z" />
<glyph unicode="&#x402;" horiz-adv-x="1321" d="M248 0l363 1252h-346l24 79l24 80h882l-24 -79l-24 -80h-343l-106 -366l22 10q113 53 220 53q156 0 207 -111t-8 -324q-91 -315 -185 -425q-91 -109 -267 -109q-15 0 -35 2.5t-68 10.5l45 157q29 -7 44 -9.5t33 -2.5q62 0 116.5 84t103.5 253q46 158 29 231t-100 73 q-56 0 -116 -23t-96 -60l-202 -696h-96h-97z" />
<glyph unicode="&#x403;" horiz-adv-x="948" d="M-15 0l409 1411h690l-23 -79l-23 -80h-497l-363 -1252h-96h-97zM707 1526l187 307h217l-259 -307h-145z" />
<glyph unicode="&#x404;" horiz-adv-x="1020" d="M62 233q0 80 31 187l147 507q81 281 194 391.5t317 110.5q213 0 276 -105q30 -51 30 -131q1 -88 -36 -212h-195q49 168 27 229t-133 61q-90 0 -156 -71q-64 -70 -105 -212l-54 -184h281l-46 -159h-281l-69 -236q-40 -138 -15 -204.5t117 -66.5q98 0 162.5 60.5 t100.5 185.5l16 56h189l-16 -56q-39 -214 -151 -309q-110 -95 -324 -95q-202 0 -272 110q-35 56 -35 143z" />
<glyph unicode="&#x405;" horiz-adv-x="982" d="M26 219q-1 71 24 165l16 56h186l-16 -56q-35 -135 -2.5 -190.5t146.5 -55.5q98 0 169 62t104 177q22 76 -7 132q-29 55 -127 125q-184 131 -231 227q-24 49 -24 113q1 62 22 137q46 159 161.5 238.5t299.5 79.5q186 0 254 -105q41 -63 42 -161q0 -69 -20 -154h-195 q37 144 14 203t-117 59q-96 0 -164.5 -56.5t-98.5 -160.5q-21 -70 12 -126q33 -55 139 -131q178 -127 221 -227q20 -47 20 -108q0 -71 -26 -161q-44 -151 -171 -236q-125 -85 -306 -85q-214 0 -286 95q-39 53 -39 144z" />
<glyph unicode="&#x406;" horiz-adv-x="453" d="M-19 0l409 1411h96h97l-409 -1411h-96h-97z" />
<glyph unicode="&#x407;" horiz-adv-x="453" d="M-19 0l409 1411h96h97l-409 -1411h-96h-97zM270 1563l59 182h196l-59 -182h-196zM597 1563l59 182h196l-59 -182h-196z" />
<glyph unicode="&#x408;" horiz-adv-x="868" d="M-42 305l31 111h192l-29 -111q-24 -93 -3 -131t97 -38q86 0 139.5 58.5t93.5 195.5l296 1021h96h97l-319 -1100q-52 -180 -152 -254q-97 -74 -287 -74q-166 0 -231 82t-21 240z" />
<glyph unicode="&#x409;" horiz-adv-x="1744" d="M-42 -20l47 168h43q102 0 161.5 45.5t89.5 147.5l310 1070h678l-165 -570h149q226 0 297.5 -97t8.5 -316l-5 -16q-61 -210 -199 -311t-365 -101h-227h-96l363 1252h-292l-264 -911q-58 -199 -158 -280q-97 -81 -281 -81h-95zM923 158h123q138 0 212 59t116 203l4 16 q41 140 9.5 193.5t-155.5 53.5h-156z" />
<glyph unicode="&#x40a;" horiz-adv-x="1624" d="M-15 0l409 1411h96h97l-176 -607h411l176 607h96h97l-172 -595h149q226 0 298.5 -94t10.5 -307l-5 -16q-59 -204 -196 -301.5t-364 -97.5h-227h-96l187 645h-411l-187 -645h-96h-97zM827 158h124q137 0 210 56.5t113 192.5l4 16q39 133 6.5 184t-156.5 51h-155z" />
<glyph unicode="&#x40b;" horiz-adv-x="1316" d="M248 0l363 1252h-346l24 79l24 80h882l-24 -79l-24 -80h-343l-106 -366l21 10q112 53 218 53q158 0 210.5 -103t-4.5 -301l-158 -545h-96h-97l169 583q29 102 9.5 149t-92.5 47q-66 0 -132.5 -23t-102.5 -60l-202 -696h-96h-97z" />
<glyph unicode="&#x40c;" horiz-adv-x="1020" d="M-2 0l409 1411h96h97l-163 -563h18q148 0 242 58.5t127 171.5l14 51q46 158 118.5 220t210.5 62h64l-52 -181h-32q-48 0 -80 -37q-30 -36 -55 -121l-9 -32q-50 -171 -170 -244q-44 -26 -103 -43q95 -15 135 -54q66 -66 35 -255l-44 -269q-8 -56 -10 -95t2 -79h-94h-94 q-7 37 -7 73t8 87l40 245q23 137 -28.5 195t-195.5 58h-95l-191 -659h-96h-97zM790 1526l187 307h217l-259 -307h-145z" />
<glyph unicode="&#x40e;" horiz-adv-x="944" d="M80 0l269 437l-47 974h102h103l13 -700l430 700h97h97l-870 -1411h-97h-97zM577 1811h146q-36 -85 -19 -129.5t85 -44.5q64 0 102 39.5t66 134.5h146q-29 -143 -111.5 -217t-214.5 -74q-144 0 -197.5 77t-2.5 214z" />
<glyph unicode="&#x40f;" horiz-adv-x="1057" d="M-15 0l409 1411h96h97l-363 -1252h413l363 1252h96h97l-409 -1411h-304l-85 -295h-193l85 295h-302z" />
<glyph unicode="&#x410;" horiz-adv-x="1057" d="M-78 0l762 1411h122h123l-92 -1411h-99h-99l26 317h-383l-161 -317h-99h-100zM364 476h315l59 735z" />
<glyph unicode="&#x411;" horiz-adv-x="1020" d="M-17 0l409 1411h691l-23 -79l-23 -80h-498l-119 -411h149q226 0 297.5 -97t8.5 -316l-5 -16q-61 -210 -199 -311t-365 -101h-227h-96zM221 158h123q138 0 212 59t116 203l4 16q41 140 9.5 193.5t-155.5 53.5h-156z" />
<glyph unicode="&#x412;" horiz-adv-x="1020" d="M-17 0l409 1411h91h267q199 0 266 -100q35 -53 35 -136q0 -74 -28 -172l-4 -13q-40 -137 -133 -203q-76 -54 -195 -63q128 -18 176 -79q36 -44 36 -126q-1 -75 -32 -183l-4 -14q-48 -164 -166 -243q-116 -79 -312 -79h-315h-91zM211 158h198q115 0 178.5 55.5 t102.5 190.5l4 14q36 125 -4 177t-174 52h-163zM399 805h154q123 0 188.5 51t101.5 174l3 13q35 119 2 164.5t-156 45.5h-162z" />
<glyph unicode="&#x413;" horiz-adv-x="948" d="M-15 0l409 1411h690l-23 -79l-23 -80h-497l-363 -1252h-96h-97z" />
<glyph unicode="&#x414;" horiz-adv-x="1233" d="M-142 -295l131 454h132q86 115 186 307q212 409 367 945h635l-363 -1252h96l-131 -454h-193l85 295h-667l-85 -295h-193zM314 159h439l317 1093h-251q-139 -438 -319 -787q-99 -191 -186 -306z" />
<glyph unicode="&#x415;" horiz-adv-x="868" d="M-19 0l409 1411h639l-24 -79l-24 -80h-444l-130 -448h418l-23 -79l-23 -80h-418l-141 -486h460l-24 -79l-24 -80h-651z" />
<glyph unicode="&#x416;" horiz-adv-x="1535" d="M-70 1q29 46 49 85t38 89l103 269q73 189 173 255q57 38 154 55q-46 17 -70 43q-69 72 -16 243l10 32q31 96 25.5 136.5t-49.5 40.5h-29l47 162h58q127 0 156.5 -62t-21.5 -220l-15 -51q-35 -113 19.5 -171.5t193.5 -58.5h16l163 563h96h97l-163 -563h15 q130 0 213.5 58.5t114.5 171.5l13 51q41 158 111.5 220t208.5 62h58l-52 -181h-29q-44 0 -72.5 -36.5t-50.5 -121.5l-8 -32q-47 -171 -159 -244q-40 -26 -95 -43q88 -15 124 -54q60 -66 23 -255l-53 -269q-10 -50 -14 -89q-2 -39 1 -85h-94h-94q-6 41 -4.5 77t10.5 83 l48 245q27 137 -15.5 195t-169.5 58h-85l-191 -659h-96h-97l191 659h-86q-127 0 -203.5 -58t-129.5 -195l-94 -245q-17 -47 -36.5 -83t-49.5 -77h-94h-94z" />
<glyph unicode="&#x417;" horiz-adv-x="982" d="M67 95q-59 115 32 345h189q-44 -154 -20.5 -228t116.5 -74q89 0 140 49.5t87 170.5l22 76q31 108 -1 162t-127 54h-87l49 166h101q96 0 148.5 43.5t83.5 149.5l21 75q31 106 7.5 146.5t-116.5 40.5q-81 0 -137 -68t-101 -222h-195q72 246 181.5 347t305.5 101 q171 0 236.5 -93.5t15.5 -266.5l-11 -37q-56 -193 -162 -276q-38 -29 -88 -49q35 -21 56 -49q32 -44 32 -118q-1 -67 -27 -160l-11 -38q-57 -196 -166 -279q-107 -83 -306 -83q-209 0 -268 115z" />
<glyph unicode="&#x418;" horiz-adv-x="1057" d="M-15 0l409 1411h87h88l-344 -1187l678 1187h145h145l-409 -1411h-87h-88l344 1187l-678 -1187h-145h-145z" />
<glyph unicode="&#x419;" horiz-adv-x="1057" d="M-15 0l409 1411h87h88l-344 -1187l678 1187h145h145l-409 -1411h-87h-88l344 1187l-678 -1187h-145h-145zM647 1811h146q-36 -85 -19 -129.5t85 -44.5q64 0 102 39.5t66 134.5h146q-29 -143 -111.5 -217t-214.5 -74q-144 0 -197.5 77t-2.5 214z" />
<glyph unicode="&#x41a;" horiz-adv-x="1020" d="M-2 0l409 1411h96h97l-163 -563h18q148 0 242 58.5t127 171.5l14 51q46 158 118.5 220t210.5 62h64l-52 -181h-32q-48 0 -80 -37q-30 -36 -55 -121l-9 -32q-50 -171 -170 -244q-44 -26 -103 -43q95 -15 135 -54q66 -66 35 -255l-44 -269q-8 -56 -10 -95t2 -79h-94h-94 q-7 37 -7 73t8 87l40 245q23 137 -28.5 195t-195.5 58h-95l-191 -659h-96h-97z" />
<glyph unicode="&#x41b;" horiz-adv-x="1262" d="M-42 -20l47 168h43q102 0 161.5 45.5t89.5 147.5l310 1070h789l-409 -1411h-96h-97l363 1252h-403l-264 -911q-58 -199 -158 -280q-97 -81 -281 -81h-95z" />
<glyph unicode="&#x41c;" horiz-adv-x="1397" d="M-21 0l409 1411h156h157l-60 -1076l567 1076h156h157l-409 -1411h-96h-97l366 1229l-649 -1229h-95h-95l67 1211l-351 -1211h-91h-92z" />
<glyph unicode="&#x41d;" horiz-adv-x="1057" d="M-15 0l409 1411h96h97l-176 -607h413l176 607h96h97l-409 -1411h-96h-97l187 645h-413l-187 -645h-96h-97z" />
<glyph unicode="&#x41e;" horiz-adv-x="1057" d="M67 243q0 76 29 175l147 507q86 297 192.5 400.5t325.5 103.5q220 0 298 -110q43 -61 43 -154q0 -77 -29 -176l-147 -507q-86 -296 -193 -399q-105 -103 -324 -103q-220 0 -299 110q-43 60 -43 153zM282 199q31 -61 149 -61q97 0 166 70.5t110 212.5l168 579 q43 149 12.5 210t-149.5 61q-97 0 -165.5 -70.5t-109.5 -212.5l-169 -579q-43 -149 -12 -210z" />
<glyph unicode="&#x41f;" horiz-adv-x="1057" d="M-15 0l409 1411h799l-409 -1411h-96h-97l363 1252h-413l-363 -1252h-96h-97z" />
<glyph unicode="&#x420;" horiz-adv-x="944" d="M-7 0l409 1411h96h236q205 0 270 -104q32 -51 32 -132q0 -83 -33 -196l-4 -15q-52 -179 -160.5 -264.5t-282.5 -85.5h-192l-178 -614h-96h-97zM410 772h171q86 0 146.5 60.5t95.5 180.5l4 15q36 123 4 174t-145 51h-136z" />
<glyph unicode="&#x421;" horiz-adv-x="1020" d="M62 233q0 80 31 187l147 507q81 281 194 391.5t317 110.5q213 0 276 -105q30 -51 30 -131q1 -88 -36 -212h-195q49 168 27 229t-133 61q-90 0 -156 -71q-64 -70 -105 -212l-169 -579q-40 -138 -15 -204.5t117 -66.5q98 0 162.5 60.5t100.5 185.5l16 56h189l-16 -56 q-39 -214 -151 -309q-110 -95 -324 -95q-202 0 -272 110q-35 56 -35 143z" />
<glyph unicode="&#x422;" horiz-adv-x="982" d="M248 0l363 1252h-346l24 79l24 80h882l-24 -79l-24 -80h-343l-363 -1252h-96h-97z" />
<glyph unicode="&#x423;" horiz-adv-x="944" d="M80 0l269 437l-47 974h102h103l13 -700l430 700h97h97l-870 -1411h-97h-97z" />
<glyph unicode="&#x424;" horiz-adv-x="1202" d="M144 564l82 282q73 250 186 337q104 78 319 87l41 141h96h97l-41 -141q175 -14 244 -106q76 -106 14 -318l-82 -282q-72 -250 -186 -337q-101 -77 -317 -85l-41 -142h-96h-97l41 142q-176 12 -245 105q-76 105 -15 317zM336 352q29 -43 114 -51l235 808q-83 -10 -141 -57 q-74 -59 -109 -178l-98 -338q-38 -130 -1 -184zM643 302q83 10 140 56q74 59 108 178l98 338q38 131 2 185q-27 42 -113 50z" />
<glyph unicode="&#x425;" horiz-adv-x="1057" d="M-70 0l560 745l-134 666h98h98l93 -475l349 475h105h105l-508 -689l141 -722h-98h-98l-101 525l-394 -525h-108h-108z" />
<glyph unicode="&#x426;" horiz-adv-x="1057" d="M-15 0l409 1411h96h97l-363 -1252h413l363 1252h96h97l-363 -1252h96l-131 -454h-193l85 295h-702z" />
<glyph unicode="&#x427;" horiz-adv-x="951" d="M232.5 648q-52.5 103 4.5 301l134 461h96h97l-148 -510q-28 -96 -9.5 -140.5t87.5 -44.5q64 0 125.5 20.5t93.5 52.5l181 622h96h97l-409 -1411h-96h-97l171 590q-107 -45 -213 -44q-158 0 -210.5 103z" />
<glyph unicode="&#x428;" horiz-adv-x="1663" d="M-15 0l409 1411h96h97l-363 -1252h413l363 1252h96h97l-363 -1252h413l363 1252h96h97l-409 -1411h-1405z" />
<glyph unicode="&#x429;" horiz-adv-x="1663" d="M-15 0l409 1411h96h97l-363 -1252h413l363 1252h96h97l-363 -1252h413l363 1252h96h97l-363 -1252h96l-131 -454h-193l85 295h-1308z" />
<glyph unicode="&#x42a;" horiz-adv-x="1213" d="M230 0l363 1252h-269l23 79l23 80h462l-165 -570h150q226 0 297.5 -97t8.5 -316l-5 -16q-61 -210 -199 -311t-365 -101h-228h-96zM468 158h124q138 0 212 59t116 203l4 16q41 140 9.5 193.5t-155.5 53.5h-157z" />
<glyph unicode="&#x42b;" horiz-adv-x="1343" d="M-17 0l409 1411h96h97l-165 -570h149q226 0 297.5 -97t8.5 -316l-5 -16q-61 -210 -199 -311t-365 -101h-227h-96zM221 158h123q138 0 212 59t116 203l4 16q41 140 9.5 193.5t-155.5 53.5h-156zM870 0l409 1411h96h97l-409 -1411h-96h-97z" />
<glyph unicode="&#x42c;" horiz-adv-x="1020" d="M-17 0l409 1411h96h97l-165 -570h149q226 0 297.5 -97t8.5 -316l-5 -16q-61 -210 -199 -311t-365 -101h-227h-96zM221 158h123q138 0 212 59t116 203l4 16q41 140 9.5 193.5t-155.5 53.5h-156z" />
<glyph unicode="&#x42d;" horiz-adv-x="1020" d="M62 206q-1 96 54 234h189q-44 -154 -20 -228t118 -74q107 0 164.5 61t104.5 222l65 225h-281l46 159h281l57 195q43 149 15.5 210t-139.5 61q-89 0 -148 -68t-104 -222h-195q72 246 179.5 347t298.5 101q197 0 274 -117q43 -65 43 -159q0 -74 -27 -166l-147 -507 q-86 -295 -194 -398q-106 -102 -331 -102q-216 0 -279 115q-25 46 -24 111z" />
<glyph unicode="&#x42e;" horiz-adv-x="1450" d="M-19 0l409 1411h96h97l-176 -607h194l35 121q86 297 192.5 400.5t325.5 103.5q220 0 298 -110q43 -61 43 -154q0 -77 -29 -176l-147 -507q-86 -296 -193 -399q-105 -103 -324 -103q-220 0 -299 110q-43 60 -43 153q0 76 29 175l66 227h-194l-187 -645h-96h-97zM675 199 q31 -61 149 -61q97 0 166 70.5t110 212.5l168 579q43 149 12.5 210t-149.5 61q-97 0 -165.5 -70.5t-109.5 -212.5l-169 -579q-43 -149 -12 -210z" />
<glyph unicode="&#x42f;" horiz-adv-x="1020" d="M-60 1h98h99q11 23 27 59t43 101l17 41q35 90 69 201q42 134 110 189t193 55h145l-199 -647h94h95l434 1411h-94h-252q-236 0 -351 -71q-64 -39 -110 -114q-36 -57 -60 -136l-4 -13q-50 -162 17 -261q52 -80 166 -95q-131 -18 -208 -68q-110 -72 -165 -250 q-34 -111 -71 -202l-11 -26q-30 -69 -48.5 -108t-33.5 -66zM472 1039l4 13q36 116 99 158.5t199 42.5h153l-138 -448h-133q-115 0 -165.5 64.5t-18.5 169.5z" />
<glyph unicode="&#x430;" d="M6 144q1 71 32 174l3 10q46 149 144 212t283 63q114 1 111 -10l29 96q35 102 18 145.5t-93 43.5q-59 0 -97.5 -39t-65.5 -127h-182q35 139 124 214.5t216 75.5q183 0 244 -92q32 -47 32 -118q-1 -69 -29 -158l-195 -634h-165l26 87q-14 -17 -30 -31q-88 -76 -213 -76 q-137 0 -176 81q-15 33 -16 83zM196 144.5q15 -42.5 81 -42.5q67 0 121.5 50t88.5 143l54 176q4 13 -64 11q-117 0 -173.5 -40t-88.5 -145l-3 -10q-31 -100 -16 -142.5z" />
<glyph unicode="&#x431;" d="M38 179q-1 147 92 464q122 400 237 553.5t295 162.5q77 4 119 21t50 49h142q-21 -99 -96 -150.5t-206 -57.5q-127 -6 -212 -130q-32 -46 -66 -123q62 34 141 34q171 0 231 -98q32 -51 31 -127q1 -69 -26 -160l-74 -255q-61 -210 -154 -296q-91 -86 -256 -86 q-209 0 -242 133q-7 27 -6 66zM210.5 169.5q16.5 -57.5 96.5 -57.5q65 0 116.5 64t88.5 191l74 255q45 154 30 205q-14 51 -102 51q-71 0 -117.5 -58t-87.5 -198l-74 -255q-41 -140 -24.5 -197.5z" />
<glyph unicode="&#x432;" horiz-adv-x="746" d="M-37 0l285 982h88h179q136 0 182 -67q25 -35 24 -91q0 -49 -19 -115l-9 -33q-26 -89 -90 -132q-49 -32 -122 -40q82 -14 113 -52q24 -30 25 -85q0 -50 -21 -121l-10 -35q-32 -108 -113 -160q-79 -51 -216 -51h-208h-88zM176 124h96q58 0 92 36t60 124l3 9q23 82 6 116 t-83 34h-82zM304 567h75q60 0 94 33t57 112l3 9q23 78 9.5 107.5t-72.5 29.5h-81z" />
<glyph unicode="&#x433;" horiz-adv-x="775" d="M-39 0l285 982h618l-18 -61l-18 -62h-431l-249 -859h-93h-94z" />
<glyph unicode="&#x434;" horiz-adv-x="974" d="M-126 -205l94 328h81q48 76 105 194q134 284 245 665h577l-250 -859h93l-94 -328h-187l59 205h-477l-59 -205h-187zM236 123h303l214 736h-204q-96 -302 -210 -543q-54 -114 -103 -193z" />
<glyph unicode="&#x435;" horiz-adv-x="793" d="M20 201q1 70 27 161l74 255q61 212 156.5 298.5t266.5 86.5q158 0 211 -98q26 -48 27 -119q0 -73 -28 -168l-54 -184h-448l-20 -70q-45 -155 -31 -207t101 -52q60 0 100 44q43 45 69 137h173q-36 -171 -118 -238q-79 -67 -249 -67q-167 0 -227 98q-29 50 -30 123z M288 556h263l18 62q45 156 34 208t-90 52q-72 0 -120 -59q-46 -59 -87 -201z" />
<glyph unicode="&#x436;" horiz-adv-x="1170" d="M-75 1q26 41 45 80t41 94l57 146q53 137 134 185q26 15 58 23l-21 10q-51 31 -21 142l18 65q16 57 13 81.5t-25 24.5h-20l38 130h40q94 0 119 -43t-5 -153l-22 -78q-16 -60 24 -81q35 -17 125 -21l109 376h93h94l-109 -375q85 4 123 20q49 21 67 81l24 78 q34 110 87.5 153t157.5 43h40l-42 -144h-20q-23 0 -39 -21t-32 -71l-20 -65q-34 -111 -103 -142l-29 -10q32 -9 46 -24q55 -47 28 -184l-29 -146q-10 -55 -13 -94t-1 -80h-83h-83q-7 36 -5 72t11 88l26 132q16 85 -20 121t-137 36l-130 -450h-93h-94l130 450h-1 q-101 0 -158 -36t-89 -121l-52 -132q-21 -52 -40 -88t-46 -72h-83h-83z" />
<glyph unicode="&#x437;" horiz-adv-x="755" d="M0 61q-47 82 18 245h167q-30 -103 -15.5 -152.5t74.5 -49.5q56 0 88.5 33t55.5 112l16 55q21 72 -0.5 108.5t-85.5 36.5h-58l35 122h89q61 0 95 29t55 99l14 50q21 71 6.5 100t-69.5 29q-56 0 -94.5 -46t-68.5 -150h-176q51 176 134 248t235 72q125 0 182 -65.5 t25 -172.5l-22 -76q-30 -106 -108 -152q-26 -16 -63 -26q34 -12 51 -30q25 -25 25 -78q-1 -43 -19 -107l-24 -82q-36 -126 -118 -180q-80 -53 -234 -53q-161 0 -210 81z" />
<glyph unicode="&#x438;" d="M-39 0l285 982h80h81l-270 -865l477 865h125h126l-285 -982h-81h-81l274 872l-480 -872h-125h-126z" />
<glyph unicode="&#x439;" d="M-39 0l285 982h80h81l-270 -865l477 865h125h126l-285 -982h-81h-81l274 872l-480 -872h-125h-126zM406.5 1174q-48.5 77 2.5 214h146q-35 -85 -18 -129.5t85 -44.5q64 0 102 39.5t65 134.5h146q-44 -163 -121 -227q-75 -64 -225 -64q-134 0 -182.5 77z" />
<glyph unicode="&#x43a;" d="M-10 0l285 982h93h94l-109 -375q114 3 164 20q61 21 79 81l24 78q34 110 88.5 153t159.5 43h47l-42 -144h-24q-26 0 -43.5 -21t-33.5 -71l-20 -65q-34 -111 -113 -142l-34 -10q33 -10 50 -24q64 -47 41 -184l-25 -146q-8 -52 -10 -91t2 -83h-83h-83q-7 37 -7 73t8 87 l22 132q13 85 -35.5 121t-177.5 36l-130 -450h-93h-94z" />
<glyph unicode="&#x43b;" horiz-adv-x="929" d="M-96 -20l47 168h19q68 0 106.5 28t56.5 90l208 716h617l-285 -982h-93h-94l249 859h-243l-172 -593q-46 -157 -124 -222q-75 -64 -218 -64h-74z" />
<glyph unicode="&#x43c;" horiz-adv-x="1268" d="M-17 0l285 982h154h155l-17 -700l397 700h157h158l-285 -982h-93h-94l252 843l-477 -843h-95h-95l20 873l-245 -873h-88h-89z" />
<glyph unicode="&#x43d;" d="M-39 0l285 982h93h94l-120 -411h245l120 411h93h94l-285 -982h-93h-94l130 448h-245l-130 -448h-93h-94z" />
<glyph unicode="&#x43e;" d="M38 204q-1 69 26 158l74 255q61 212 154 298.5t257 86.5q171 0 231 -98q32 -51 31 -127q1 -69 -26 -160l-74 -255q-61 -210 -154 -296q-91 -86 -256 -86q-170 0 -232 98q-31 51 -31 126zM220 158.5q15 -54.5 100 -54.5q72 0 118.5 58.5t87.5 200.5l74 255 q44 151 29 205.5t-100 54.5q-71 0 -119 -59q-46 -59 -87 -201l-74 -255q-44 -150 -29 -204.5z" />
<glyph unicode="&#x43f;" d="M-39 0l285 982h619l-285 -982h-93h-94l249 859h-245l-249 -859h-93h-94z" />
<glyph unicode="&#x440;" d="M-151 -367l391 1349h87h87l-26 -88l2 2q95 106 226 106q129 0 169 -91q19 -40 18 -98q1 -70 -27 -165l-115 -396q-41 -139 -115 -206q-72 -66 -186 -66q-131 2 -195 102l-129 -449h-93h-94zM213.5 183.5q5.5 -81.5 97.5 -81.5q63 0 110.5 54t78.5 162l100 345 q35 119 21 168t-81 49q-76 0 -128.5 -70.5t-104.5 -240.5l-23 -78q-76 -226 -70.5 -307.5z" />
<glyph unicode="&#x441;" horiz-adv-x="793" d="M39 195q0 72 28 168l86 296q52 178 138.5 260.5t221.5 82.5q156 0 216 -83q38 -51 37 -131q1 -50 -15 -113h-180q30 104 16 153.5t-73 49.5q-61 0 -102.5 -54t-79.5 -186l-86 -296q-39 -133 -28 -185.5t78 -52.5q55 0 91.5 37t59.5 115l11 39h179l-11 -39 q-30 -141 -117 -209q-84 -67 -232 -67q-157 0 -212 98q-26 48 -26 117z" />
<glyph unicode="&#x442;" horiz-adv-x="600" d="M67 0l249 859h-198l18 61l18 62h582l-18 -61l-18 -62h-197l-249 -859h-93h-94z" />
<glyph unicode="&#x443;" d="M-47 -367l201 346l30 1003h90h90l-40 -742l404 742h94h95l-774 -1349h-95h-95z" />
<glyph unicode="&#x444;" horiz-adv-x="1231" d="M38 185q0 81 33 194l88 304q47 163 131 241t211 78q110 -1 150 -82l142 491h93h94l-142 -491q88 82 198 82q122 0 159 -91q16 -39 16 -91q0 -73 -29 -172l-115 -396q-41 -139 -112 -206q-69 -66 -177 -66q-127 -1 -185 99l-128 -446h-93h-94l119 414q-77 -66 -157 -67 q-139 0 -184 102q-18 43 -18 103zM210.5 155.5q9.5 -53.5 70.5 -53.5q97 0 140.5 68.5t104.5 320.5l23 78q46 170 36.5 240.5t-80.5 70.5q-54 0 -98.5 -59.5t-79.5 -178.5l-88 -304q-38 -129 -28.5 -182.5zM641 183.5q4 -81.5 90 -81.5q56 0 100 54t75 162l100 345 q35 119 24 168t-71 49q-70 0 -120.5 -70.5t-102.5 -240.5l-23 -78q-76 -226 -72 -307.5z" />
<glyph unicode="&#x445;" horiz-adv-x="793" d="M-75 0l375 515l-87 467h85h85l57 -322l235 322h93h94l-367 -495l91 -487h-85h-85l-61 331l-247 -331h-91h-92z" />
<glyph unicode="&#x446;" d="M-39 0l285 982h93h94l-250 -859h245l250 859h93h94l-250 -859h93l-94 -328h-187l59 205h-525z" />
<glyph unicode="&#x447;" d="M161 457.5q-43 84.5 4 246.5l81 278h93h94l-93 -318q-20 -71 -6 -104t65 -33q45 0 91 17t73 44l115 394h93h94l-285 -982h-93h-94l120 415q-93 -42 -179 -42q-130 0 -173 84.5z" />
<glyph unicode="&#x448;" horiz-adv-x="1268" d="M-39 0l285 982h93h94l-250 -859h248l250 859h93h94l-250 -859h247l250 859h93h94l-285 -982h-1056z" />
<glyph unicode="&#x449;" horiz-adv-x="1268" d="M-39 0l285 982h93h94l-250 -859h248l250 859h93h94l-250 -859h247l250 859h93h94l-250 -859h93l-94 -328h-187l59 205h-962z" />
<glyph unicode="&#x44a;" horiz-adv-x="833" d="M90 0l249 859h-176l18 61l18 62h363l-116 -399l70 -1q154 0 203.5 -64t8.5 -208l-12 -40q-40 -138 -132.5 -204t-245.5 -66h-155h-93zM313 124h56q66 0 103.5 37.5t63.5 127.5l4 11q26 90 14 124t-69 34h-75z" />
<glyph unicode="&#x44b;" horiz-adv-x="1084" d="M-37 0l285 982h93h94l-116 -399l70 -1q155 0 204.5 -64t8.5 -208l-12 -40q-40 -138 -132.5 -204t-246.5 -66h-155h-93zM186 124h56q66 0 104 37.5t64 127.5l4 11q26 90 14 124t-70 34h-75zM647 0l285 982h93h94l-285 -982h-93h-94z" />
<glyph unicode="&#x44c;" horiz-adv-x="747" d="M-37 0l285 982h93h94l-116 -399l70 -1q155 0 204.5 -64t8.5 -208l-12 -40q-40 -138 -132.5 -204t-246.5 -66h-155h-93zM186 124h56q66 0 104 37.5t64 127.5l4 11q26 90 14 124t-70 34h-75z" />
<glyph unicode="&#x44d;" horiz-adv-x="793" d="M39 149q-1 62 31 146h179q-28 -97 -14 -144t72 -47q70 0 112.5 56.5t85.5 206.5l18 63h-207l36 123h207l20 69q41 141 29 198.5t-84 57.5q-57 0 -96 -47.5t-70 -155.5h-180q60 180 143 253.5t225 73.5q155 0 214 -96q33 -52 32 -126q1 -62 -22 -139l-74 -255 q-70 -240 -156 -323q-84 -83 -261 -83q-162 0 -216 78q-25 38 -24 91z" />
<glyph unicode="&#x44e;" horiz-adv-x="1220" d="M-46 0l285 982h93h94l-120 -411h188l14 46q61 212 154 298.5t257 86.5q171 0 231 -98q32 -51 31 -127q1 -69 -26 -160l-74 -255q-61 -210 -154 -296q-91 -86 -256 -86q-170 0 -232 98q-31 51 -31 126q-1 69 26 158l25 86h-188l-130 -448h-93h-94zM588 156q14 -52 102 -52 q72 0 118.5 58.5t87.5 200.5l74 255q45 156 31 208t-102 52q-71 0 -119 -59q-46 -59 -87 -201l-74 -255q-45 -155 -31 -207z" />
<glyph unicode="&#x44f;" horiz-adv-x="816" d="M-60 1h87h88q11 21 26.5 57t42.5 103q22 55 43 120q29 89 69 125.5t109 36.5h104l-136 -443h91h92l302 982h-91h-190q-174 0 -262 -50q-52 -30 -86 -85q-22 -37 -37 -86l-5 -14q-34 -112 19 -181q39 -51 118 -64q-96 -12 -153 -48q-78 -50 -116 -173l-36 -106 q-16 -48 -34 -87.5t-45 -86.5zM352 713q24 79 67.5 112t125.5 33h91l-89 -291h-87q-69 0 -98 43t-7 113z" />
<glyph unicode="&#x451;" horiz-adv-x="793" d="M20 201q1 70 27 161l74 255q61 212 156.5 298.5t266.5 86.5q158 0 211 -98q26 -48 27 -119q0 -73 -28 -168l-54 -184h-448l-20 -70q-45 -155 -31 -207t101 -52q60 0 100 44q43 45 69 137h173q-36 -171 -118 -238q-79 -67 -249 -67q-167 0 -227 98q-29 50 -30 123z M288 556h263l18 62q45 156 34 208t-90 52q-72 0 -120 -59q-46 -59 -87 -201zM353 1159l53 182h188l-53 -182h-188zM673 1159l53 182h188l-53 -182h-188z" />
<glyph unicode="&#x452;" d="M-38 0l409 1411h89h89l-152 -526l4 5q101 112 239 112q115 0 156 -81t-1 -224l-253 -875q-32 -109 -99 -159t-181 -50q-55 1 -101 8l40 122q24 -6 53 -6q44 0 72 28t46 88l250 864q23 80 6 120t-74 40q-82 0 -139 -75q-55 -75 -106 -251l-160 -551h-93h-94zM175 1160 l36 123h505l-36 -123h-505z" />
<glyph unicode="&#x453;" horiz-adv-x="775" d="M-39 0l285 982h618l-18 -61l-18 -62h-431l-249 -859h-93h-94zM522 1097l187 307h217l-259 -307h-145z" />
<glyph unicode="&#x454;" horiz-adv-x="793" d="M39 183q0 66 26 155l74 255q66 229 155.5 319t250.5 90q165 0 214 -73q26 -39 27 -109q-1 -60 -21 -145h-180q31 108 16.5 155.5t-78.5 47.5q-58 0 -106.5 -66t-86.5 -198l-18 -62h207l-36 -123h-207l-20 -70q-38 -130 -28 -192.5t69 -62.5q61 0 104 47t71 144h179 q-33 -158 -127 -237q-92 -78 -246 -78q-158 0 -212 90q-27 45 -27 113z" />
<glyph unicode="&#x455;" horiz-adv-x="755" d="M0 180q1 40 12 85l12 39h182l-12 -39q-18 -72 2.5 -116.5t73.5 -44.5q57 0 95.5 36t59.5 108q13 48 -4 85q-16 37 -77 93q-124 114 -159 188q-20 43 -21 91q0 35 11 72q33 113 112.5 169t205.5 56q170 0 230 -78q34 -44 34 -112q0 -54 -22 -125h-189q34 111 22 151 t-80 40q-48 0 -81.5 -32t-52.5 -97q-12 -42 9 -80q20 -38 88 -101q119 -110 151 -186q17 -39 17 -87q0 -40 -14 -89q-30 -106 -121 -166q-89 -60 -218 -60q-153 0 -222 75q-43 50 -44 125z" />
<glyph unicode="&#x456;" horiz-adv-x="378" d="M-46 0l285 982h93h94l-285 -982h-93h-94zM303 1214l56 193h192l-56 -193h-192z" />
<glyph unicode="&#x457;" horiz-adv-x="453" d="M-8 0l285 982h93h94l-285 -982h-93h-94zM167 1159l53 182h188l-53 -182h-188zM487 1159l53 182h188l-53 -182h-188z" />
<glyph unicode="&#x458;" horiz-adv-x="378" d="M-286 -382l39 122l48 -3q46 0 78 44t60 147l305 1054h93h94l-285 -979q-67 -250 -130 -320q-61 -70 -213 -70q-51 0 -89 5zM309 1214l56 193h192l-56 -193h-192z" />
<glyph unicode="&#x459;" horiz-adv-x="1214" d="M-96 -20l47 168h19q68 0 106.5 28t56.5 90l208 716h539l-116 -399l70 -1q155 0 204.5 -64t8.5 -208l-12 -40q-40 -138 -132.5 -204t-246.5 -66h-155h-93l249 859h-165l-172 -593q-46 -157 -124 -222q-75 -64 -218 -64h-74zM631 124h56q66 0 104 37.5t64 127.5l4 11 q26 90 14 124t-70 34h-75z" />
<glyph unicode="&#x45a;" horiz-adv-x="1200" d="M-39 0l285 982h93h94l-120 -411h266l120 411h93h94l-116 -399l70 -1q155 0 204.5 -64t8.5 -208l-12 -40q-40 -138 -132.5 -204t-246.5 -66h-155h-93l130 448h-266l-130 -448h-93h-94zM637 124h56q66 0 104 37.5t64 127.5l4 11q26 90 14 124t-70 34h-75z" />
<glyph unicode="&#x45b;" d="M-38 0l409 1411h89h89l-152 -526l4 5q101 112 239 112q115 0 156 -81t-1 -224l-202 -697h-89h-90l208 717q23 80 6 120t-74 40q-82 0 -139 -75q-55 -75 -106 -251l-160 -551h-93h-94zM175 1160l36 123h505l-36 -123h-505z" />
<glyph unicode="&#x45c;" d="M-10 0l285 982h93h94l-109 -375q114 3 164 20q61 21 79 81l24 78q34 110 88.5 153t159.5 43h47l-42 -144h-24q-26 0 -43.5 -21t-33.5 -71l-20 -65q-34 -111 -113 -142l-34 -10q33 -10 50 -24q64 -47 41 -184l-25 -146q-8 -52 -10 -91t2 -83h-83h-83q-7 37 -7 73t8 87 l22 132q13 85 -35.5 121t-177.5 36l-130 -450h-93h-94zM576 1097l187 307h217l-259 -307h-145z" />
<glyph unicode="&#x45e;" d="M-47 -367l201 346l30 1003h90h90l-40 -742l404 742h94h95l-774 -1349h-95h-95zM401.5 1174q-48.5 77 2.5 214h146q-35 -85 -18 -129.5t85 -44.5q64 0 102 39.5t65 134.5h146q-44 -163 -121 -227q-75 -64 -225 -64q-134 0 -182.5 77z" />
<glyph unicode="&#x45f;" d="M-39 0l285 982h93h94l-250 -859h245l250 859h93h94l-285 -982h-217l-59 -205h-187l59 205h-215z" />
<glyph unicode="&#x490;" horiz-adv-x="892" d="M-15 0l409 1411h507l82 282h127l-128 -441h-441l-363 -1252h-96h-97z" />
<glyph unicode="&#x491;" horiz-adv-x="736" d="M-39 0l285 982h417l57 196h107l-93 -319h-337l-249 -859h-93h-94z" />
<glyph unicode="&#x2000;" horiz-adv-x="952" />
<glyph unicode="&#x2001;" horiz-adv-x="1904" />
<glyph unicode="&#x2002;" horiz-adv-x="952" />
<glyph unicode="&#x2003;" horiz-adv-x="1904" />
<glyph unicode="&#x2004;" horiz-adv-x="634" />
<glyph unicode="&#x2005;" horiz-adv-x="476" />
<glyph unicode="&#x2006;" horiz-adv-x="317" />
<glyph unicode="&#x2007;" horiz-adv-x="317" />
<glyph unicode="&#x2008;" horiz-adv-x="238" />
<glyph unicode="&#x2009;" horiz-adv-x="380" />
<glyph unicode="&#x200a;" horiz-adv-x="105" />
<glyph unicode="&#x2010;" horiz-adv-x="453" d="M75 430l46 156h272l-46 -156h-272z" />
<glyph unicode="&#x2011;" horiz-adv-x="453" d="M75 430l46 156h272l-46 -156h-272z" />
<glyph unicode="&#x2012;" horiz-adv-x="453" d="M75 430l46 156h272l-46 -156h-272z" />
<glyph unicode="&#x2013;" horiz-adv-x="944" d="M41 431l40 140h806l-40 -140h-806z" />
<glyph unicode="&#x2014;" horiz-adv-x="1360" d="M76 431l40 140h1118l-40 -140h-1118z" />
<glyph unicode="&#x2018;" horiz-adv-x="453" d="M217 967l300 444h129l-223 -444h-206z" />
<glyph unicode="&#x2019;" horiz-adv-x="453" d="M217 967l223 444h206l-300 -444h-129z" />
<glyph unicode="&#x201a;" horiz-adv-x="453" d="M-156 -213l220 443h206l-297 -443h-129z" />
<glyph unicode="&#x201c;" horiz-adv-x="718" d="M217 967l300 444h129l-223 -444h-206zM527 967l300 444h129l-223 -444h-206z" />
<glyph unicode="&#x201d;" horiz-adv-x="718" d="M217 967l223 444h206l-300 -444h-129zM527 967l223 444h206l-300 -444h-129z" />
<glyph unicode="&#x201e;" horiz-adv-x="718" d="M-132 -213l223 444h206l-300 -444h-129zM178 -213l223 444h206l-300 -444h-129z" />
<glyph unicode="&#x2020;" horiz-adv-x="944" d="M245 932v123h253v356h123v-356h255v-123h-255v-932h-123v932h-253z" />
<glyph unicode="&#x2021;" horiz-adv-x="944" d="M245 354v123h253v455h-253v123h253v356h123v-356h255v-123h-255v-455h255v-123h-255v-354h-123v354h-253z" />
<glyph unicode="&#x2022;" horiz-adv-x="1020" d="M140 733q0 155 107.5 262.5t262.5 107.5t262.5 -107.5t107.5 -262.5t-107.5 -262.5t-262.5 -107.5t-262.5 107.5t-107.5 262.5z" />
<glyph unicode="&#x2026;" horiz-adv-x="1360" d="M38 0v180h166v-180h-166zM473 0v180h166v-180h-166zM909 0v180h166v-180h-166z" />
<glyph unicode="&#x202f;" horiz-adv-x="380" />
<glyph unicode="&#x2030;" horiz-adv-x="1737" d="M81 -48l1005 1472h136l-1005 -1472h-136zM178 941l59 204q42 144 100 198t171 54q126 0 163.5 -58t-2.5 -194l-59 -204q-42 -145 -96.5 -197.5t-162.5 -52.5q-130 0 -171 58.5t-2 191.5zM298 818q6 -31 51 -31q41 0 68 34.5t52 118.5l59 204q27 92 21 123t-51 31 q-40 0 -68.5 -36.5t-51.5 -117.5l-59 -204q-27 -91 -21 -122zM666 271l59 204q42 144 100.5 198t171.5 54q126 0 163 -58t-3 -194l-59 -204q-42 -145 -96 -197.5t-162 -52.5q-130 0 -171 58.5t-3 191.5zM786.5 148q5.5 -31 50.5 -31q41 0 68.5 34.5t51.5 118.5l59 204 q27 92 21 123t-51 31q-40 0 -69 -37q-27 -36 -51 -117l-59 -204q-26 -91 -20.5 -122zM1217 271l59 204q42 144 100.5 198t171.5 54q126 0 163 -58t-3 -194l-59 -204q-42 -145 -96 -197.5t-162 -52.5q-130 0 -171 58.5t-3 191.5zM1337.5 148q5.5 -31 50.5 -31q41 0 68.5 34.5 t51.5 118.5l59 204q27 92 21 123t-51 31q-40 0 -69 -37q-27 -36 -51 -117l-59 -204q-26 -91 -20.5 -122z" />
<glyph unicode="&#x2039;" horiz-adv-x="491" d="M116 542l250 327h152l-229 -367l27 -394h-123z" />
<glyph unicode="&#x203a;" horiz-adv-x="491" d="M33 108l228 367l-26 394h123l77 -434l-250 -327h-152z" />
<glyph unicode="&#x205f;" horiz-adv-x="476" />
<glyph unicode="&#x2122;" horiz-adv-x="1246" d="M299 1299v89h393v-89h-152v-518h-89v518h-152zM755 781v607h160l112 -486l112 486h160v-607h-89v559l-129 -559h-108l-129 559v-559h-89z" />
<glyph unicode="&#xe000;" horiz-adv-x="980" d="M0 0v980h980v-980h-980z" />
</font>
</defs>
</svg>
