<?xml version="1.0" standalone="no"?>
<!DOCTYPE svg PUBLIC "-//W3C//DTD SVG 1.1//EN" "http://www.w3.org/Graphics/SVG/1.1/DTD/svg11.dtd" >
<svg xmlns="http://www.w3.org/2000/svg">
<metadata></metadata>
<defs>
<font id="CuprumRegular" horiz-adv-x="450" >
<font-face units-per-em="1000" ascent="800" descent="-200" />
<missing-glyph horiz-adv-x="250" />
<glyph unicode=" "  horiz-adv-x="250" />
<glyph unicode="&#x09;" horiz-adv-x="250" />
<glyph unicode="&#xa0;" horiz-adv-x="250" />
<glyph unicode="!" horiz-adv-x="230" d="M73 185l-13 515h110l-17 -515h-80zM158 105v-110h-90v110h90z" />
<glyph unicode="&#x22;" horiz-adv-x="330" d="M40 700h100l-25 -235h-50zM190 700h100l-25 -235h-50z" />
<glyph unicode="#" horiz-adv-x="570" d="M405 200l-30 -200h-90l30 200h-110l-30 -200h-90l30 200h-95v70h105l25 160h-100v70h115l30 200h90l-30 -200h110l30 200h90l-30 -200h95v-70h-110l-25 -160h105v-70h-115zM210 270h120l25 160h-120z" />
<glyph unicode="$" horiz-adv-x="445" d="M35 530q0 81 37.5 125.5t117.5 52.5v82h60v-81q38 -2 71.5 -7.5t53.5 -11.5v-45h-125v-260q28 -13 57 -28t51.5 -38t37 -56.5t14.5 -82.5q0 -84 -36.5 -129.5t-123.5 -56.5v-84h-60v80h-5q-45 0 -86 6t-64 14v45h155v264q-28 13 -56 28.5t-50 39.5t-35.5 58t-13.5 85z M320 180q0 42 -20 67t-50 42v-223q38 14 54 41.5t16 72.5zM125 530q0 -44 18 -69.5t47 -43.5v219q-65 -22 -65 -106z" />
<glyph unicode="%" horiz-adv-x="680" d="M580 700l-390 -700h-90l390 700h90zM575 140q0 49 -17.5 69.5t-47.5 20.5t-47.5 -20.5t-17.5 -69.5t17.5 -69.5t47.5 -20.5t47.5 20.5t17.5 69.5zM650 140q0 -75 -36 -112.5t-104 -37.5t-104 37.5t-36 112.5t36 112.5t104 37.5t104 -37.5t36 -112.5zM235 560 q0 49 -17.5 69.5t-47.5 20.5t-47.5 -20.5t-17.5 -69.5t17.5 -69.5t47.5 -20.5t47.5 20.5t17.5 69.5zM310 560q0 -75 -36 -112.5t-104 -37.5t-104 37.5t-36 112.5t36 112.5t104 37.5t104 -37.5t36 -112.5z" />
<glyph unicode="&#x26;" horiz-adv-x="515" d="M405 0l-55 80q-13 -23 -26.5 -39.5t-30.5 -28t-40.5 -17t-57.5 -5.5q-75 0 -117.5 46t-42.5 144q0 45 6 86t14 64h70v-150q0 -39 6.5 -63.5t17 -38t23 -18.5t23.5 -5q15 0 27 4.5t23 16t23 32t27 52.5q-54 77 -88.5 131.5t-53.5 96.5t-26 75t-7 67q0 91 43.5 135.5 t126.5 44.5q45 0 86 -6t64 -14v-45h-130q-45 0 -72.5 -29t-27.5 -86q0 -24 3.5 -49t15.5 -56.5t36 -72.5t65 -97l55 135h90l-90 -220l120 -170h-100z" />
<glyph unicode="'" horiz-adv-x="180" d="M40 700h100l-25 -235h-50z" />
<glyph unicode="(" horiz-adv-x="246" d="M50 280q0 49 6.5 103t22.5 113t43 122.5t68 131.5l56 -30q-25 -53 -43 -104t-30 -104.5t-17.5 -110.5t-5.5 -121t5.5 -121t17.5 -110.5t30 -105t43 -103.5l-56 -30q-41 67 -68 131t-43 123t-22.5 113t-6.5 103z" />
<glyph unicode=")" horiz-adv-x="246" d="M196 280q0 -49 -6.5 -103t-22.5 -113t-43 -123t-68 -131l-56 30q25 52 43 103.5t30 105t17.5 110.5t5.5 121t-5.5 121t-17.5 110.5t-30 104.5t-43 104l56 30q41 -68 68 -131.5t43 -122.5t22.5 -113t6.5 -103z" />
<glyph unicode="*" horiz-adv-x="430" d="M215 455l-70 -130l-65 35l70 130l-130 25l16 70l139 -30v145h80v-145l139 30l16 -70l-130 -25l70 -130l-65 -35z" />
<glyph unicode="+" horiz-adv-x="430" d="M255 500v-165h145v-70h-145v-165h-80v165h-145v70h145v165h80z" />
<glyph unicode="," horiz-adv-x="170" d="M40 105h95l-30 -220h-65v220z" />
<glyph unicode="-" horiz-adv-x="360" d="M30 335h300v-70h-300v70z" />
<glyph unicode="." horiz-adv-x="170" d="M130 105v-110h-90v110h90z" />
<glyph unicode="/" horiz-adv-x="390" d="M390 700l-300 -700h-90l300 700h90z" />
<glyph unicode="0" horiz-adv-x="510" d="M255 710q47 0 85 -17t64.5 -58t41 -110.5t14.5 -174.5t-14.5 -174.5t-41 -110.5t-64.5 -58t-85 -17t-85 17t-64.5 58t-41 110.5t-14.5 174.5t14.5 174.5t41 110.5t64.5 58t85 17zM255 50q21 0 41.5 13t37 47t26.5 92t10 148t-10 148t-26.5 92t-37 47t-41.5 13t-41.5 -13 t-37 -47t-26.5 -92t-10 -148t10 -148t26.5 -92t37 -47t41.5 -13z" />
<glyph unicode="1" horiz-adv-x="280" d="M210 700v-700h-90v630h-110v50q23 8 64 14t86 6h50z" />
<glyph unicode="2" horiz-adv-x="390" d="M10 80q75 94 125 155.5t80 106.5t42.5 81t12.5 77q0 79 -28.5 112t-81.5 33h-140v45q23 8 64 14t86 6q98 0 144 -48.5t46 -161.5q0 -49 -15 -91t-46.5 -90t-79.5 -107.5t-114 -141.5h255v-70h-350v80z" />
<glyph unicode="3" horiz-adv-x="415" d="M175 710q180 0 180 -185q0 -57 -22.5 -93.5t-67.5 -59.5v-4q30 -8 51 -25.5t34 -41.5t19 -52.5t6 -58.5q0 -105 -49 -152.5t-161 -47.5q-45 0 -86 6t-64 14v45h130q75 0 107.5 31.5t32.5 103.5q0 75 -32.5 107.5t-107.5 32.5h-70v70h60q68 0 99 30.5t31 94.5 q0 60 -28.5 90t-81.5 30h-130v45q23 8 64 14t86 6z" />
<glyph unicode="4" horiz-adv-x="470" d="M30 180v80l250 440h100v-450h60v-70h-60v-180h-90v180h-260zM286 555l-171 -305h175v305h-4z" />
<glyph unicode="5" horiz-adv-x="445" d="M150 410h45q112 0 161 -49t49 -161q0 -56 -11.5 -96t-37 -65.5t-65.5 -37t-96 -11.5q-45 0 -86 6t-64 14v45h130q75 0 107.5 33t32.5 112t-32.5 112t-107.5 33h-115v355h325v-65h-235v-225z" />
<glyph unicode="6" horiz-adv-x="455" d="M245 710q45 0 86 -6t64 -14v-45h-130q-28 0 -51 -12.5t-39.5 -41t-25.5 -75.5t-9 -116q23 8 56.5 14t63.5 6q75 0 117.5 -50t42.5 -170q0 -113 -45.5 -161.5t-139.5 -48.5t-139.5 48.5t-45.5 161.5v220q0 79 13 134t37.5 89.5t61 50.5t83.5 16zM140 360v-160 q0 -41 7 -69.5t20 -46.5t30 -26t38 -8t38 8t30 26t20 46.5t7 69.5q0 90 -30.5 125t-94.5 35h-65z" />
<glyph unicode="7" horiz-adv-x="410" d="M380 620q-68 -166 -112.5 -321.5t-67.5 -298.5h-90q45 285 180 630h-270v70h360v-80z" />
<glyph unicode="8" horiz-adv-x="480" d="M240 710q185 0 185 -175q0 -35 -9.5 -63t-24.5 -49t-34 -35t-37 -21v-4q22 -10 43.5 -26t38.5 -39t27.5 -52.5t10.5 -65.5q0 -98 -47 -144t-153 -46t-153 46t-47 144q0 36 10.5 65.5t27.5 52.5t38.5 39t43.5 26v4q-18 7 -37 21t-34 35t-24.5 49t-9.5 63q0 175 185 175z M240 50q53 0 81.5 31t28.5 99q0 56 -30.5 89t-79.5 56q-49 -23 -79.5 -56t-30.5 -89q0 -68 28.5 -99t81.5 -31zM240 405q42 15 68.5 46t26.5 84q0 57 -26.5 86t-68.5 29t-68.5 -29t-26.5 -86q0 -53 26.5 -84t68.5 -46z" />
<glyph unicode="9" horiz-adv-x="455" d="M210 -10q-45 0 -86 6t-64 14v45h130q28 0 51 12.5t39.5 41t25.5 75.5t9 116q-23 -8 -56.5 -14t-63.5 -6q-75 0 -117.5 50t-42.5 170q0 113 45.5 161.5t139.5 48.5t139.5 -48.5t45.5 -161.5v-220q0 -79 -13 -134t-37.5 -89.5t-61 -50.5t-83.5 -16zM315 340v160 q0 41 -7 69.5t-20 46.5t-30 26t-38 8t-38 -8t-30 -26t-20 -46.5t-7 -69.5q0 -90 30.5 -125t94.5 -35h65z" />
<glyph unicode=":" horiz-adv-x="170" d="M130 105v-110h-90v110h90zM130 500v-110h-90v110h90z" />
<glyph unicode=";" horiz-adv-x="165" d="M130 500v-110h-90v110h90zM40 105h95l-30 -220h-65v220z" />
<glyph unicode="&#x3c;" horiz-adv-x="400" d="M130 249l230 -144v-95l-320 200v85l320 200v-95l-230 -144v-7z" />
<glyph unicode="=" horiz-adv-x="430" d="M400 250v-75h-370v75h370zM400 425v-75h-370v75h370z" />
<glyph unicode="&#x3e;" horiz-adv-x="400" d="M270 256l-230 144v95l320 -200v-85l-320 -200v95l230 144v7z" />
<glyph unicode="?" horiz-adv-x="370" d="M105 185q0 44 10.5 76t27 57.5t35 47t35 44t27 49t10.5 61.5q0 64 -28.5 94.5t-81.5 30.5h-130v45q23 8 64 14t86 6q91 0 135.5 -46t44.5 -144q0 -42 -11.5 -73.5t-28.5 -56.5t-37.5 -46.5t-37.5 -45t-28.5 -50.5t-11.5 -63h-80zM190 105v-110h-90v110h90z" />
<glyph unicode="@" horiz-adv-x="830" d="M450 480q-30 0 -52.5 -8.5t-37.5 -30t-22.5 -58.5t-7.5 -93q0 -41 7 -69.5t19 -46.5t28.5 -26t35.5 -8t39 6t31 14v320h-40zM580 155q26 0 46.5 9t34.5 32.5t21.5 64t7.5 104.5q0 140 -72 212.5t-208 72.5q-64 0 -114 -18t-84.5 -58.5t-53 -105t-18.5 -158.5 q0 -92 19 -156t57.5 -103.5t96.5 -57.5t137 -18h130v-45q-23 -8 -64 -14t-86 -6q-188 0 -284 98.5t-96 301.5q0 202 93.5 301t266.5 99q90 0 159 -23.5t116 -68t71 -108.5t24 -145q0 -77 -13.5 -129.5t-45.5 -85t-84.5 -46.5t-131.5 -14l-5 30h-5q-19 -19 -47 -29.5 t-58 -10.5t-57 11.5t-48 37t-33 65.5t-12 96q0 71 11.5 119t37 77t65.5 41.5t96 12.5q15 0 33 -1.5t36 -4.5t34 -6.5t27 -7.5v-365z" />
<glyph unicode="A" horiz-adv-x="510" d="M155 180l-45 -180h-90l170 700h130l170 -700h-90l-45 180h-200zM257 600h-4l-83 -350h170z" />
<glyph unicode="B" horiz-adv-x="500" d="M350 373q60 -17 85 -66t25 -117q0 -53 -12 -90.5t-39 -62t-71 -36t-108 -11.5q-45 0 -83.5 4.5t-76.5 15.5v680q38 11 76.5 15.5t83.5 4.5q106 0 153 -45.5t47 -139.5q0 -45 -17.5 -84t-62.5 -64v-4zM160 335v-280h70q75 0 107.5 31.5t32.5 103.5q0 79 -32.5 112 t-107.5 33h-70zM220 400q120 0 120 125q0 120 -120 120h-60v-245h60z" />
<glyph unicode="C" horiz-adv-x="435" d="M270 -10q-53 0 -93.5 17t-69 58t-43 110.5t-14.5 174.5t14.5 174.5t41.5 110.5t66 58t88 17q45 0 86 -6t64 -14v-45h-130q-30 0 -55.5 -13t-44.5 -46.5t-29.5 -90.5t-10.5 -145t11 -145t30.5 -90.5t47 -46.5t61.5 -13h130v-45q-23 -8 -64 -14t-86 -6z" />
<glyph unicode="D" horiz-adv-x="520" d="M470 350q0 -105 -15 -174.5t-45 -110.5t-75 -58t-105 -17q-45 0 -83.5 4.5t-76.5 15.5v680q38 11 76.5 15.5t83.5 4.5q60 0 105 -17t75 -58t45 -110.5t15 -174.5zM380 350q0 88 -11 145t-30.5 90.5t-47 46.5t-61.5 13h-70v-590h70q34 0 61.5 13t47 46.5t30.5 90.5t11 145 z" />
<glyph unicode="E" d="M160 70h250v-70h-340v700h340v-70h-250v-230h220v-70h-220v-260z" />
<glyph unicode="F" horiz-adv-x="430" d="M160 0h-90v700h340v-70h-250v-245h210v-70h-210v-315z" />
<glyph unicode="G" horiz-adv-x="500" d="M440 10q-23 -8 -64 -14t-86 -6q-60 0 -105 17t-75 58t-45 110.5t-15 174.5t14.5 174.5t43 110.5t69 58t93.5 17q45 0 86 -6t64 -14v-45h-130q-34 0 -61.5 -13t-47 -46.5t-30.5 -90.5t-11 -145t11 -145t32.5 -90.5t53.5 -46.5t73 -13h40v325h90v-370z" />
<glyph unicode="H" horiz-adv-x="530" d="M460 700v-700h-90v320h-210v-320h-90v700h90v-310h210v310h90z" />
<glyph unicode="I" horiz-adv-x="230" d="M160 700v-700h-90v700h90z" />
<glyph unicode="J" horiz-adv-x="350" d="M90 55q26 0 46.5 8.5t34.5 29.5t21.5 57t7.5 90v460h90v-460q0 -71 -11.5 -119t-36 -77t-62.5 -41.5t-90 -12.5q-23 0 -47 6t-43 14v45h90z" />
<glyph unicode="K" horiz-adv-x="490" d="M480 0h-105l-215 350v-350h-90v700h90v-340l195 340h105l-205 -345z" />
<glyph unicode="L" horiz-adv-x="420" d="M160 70h250v-70h-340v700h90v-630z" />
<glyph unicode="M" horiz-adv-x="740" d="M325 90l-145 430h-5l-30 -520h-90l40 700h110l163 -480h4l163 480h110l40 -700h-90l-30 520h-5l-145 -430h-90z" />
<glyph unicode="N" horiz-adv-x="540" d="M160 0h-90v700h100l205 -495h5v495h90v-700h-100l-205 495h-5v-495z" />
<glyph unicode="O" horiz-adv-x="530" d="M265 710q51 0 90.5 -17t67.5 -58t42.5 -110.5t14.5 -174.5t-14.5 -174.5t-42.5 -110.5t-67.5 -58t-90.5 -17t-90.5 17t-67.5 58t-42.5 110.5t-14.5 174.5t14.5 174.5t42.5 110.5t67.5 58t90.5 17zM265 50q24 0 47 13t40 47t27.5 92t10.5 148t-10.5 148t-27.5 92t-40 47 t-47 13t-47 -13t-40 -47t-27.5 -92t-10.5 -148t10.5 -148t27.5 -92t40 -47t47 -13z" />
<glyph unicode="P" horiz-adv-x="490" d="M230 275q34 0 58.5 8.5t40.5 29.5t23.5 57t7.5 90t-7.5 90t-23.5 57t-40.5 29.5t-58.5 8.5h-70v-370h70zM160 0h-90v690q38 11 76.5 15.5t83.5 4.5q60 0 102 -12.5t68 -41.5t38 -77t12 -119q0 -73 -11.5 -122t-35 -78.5t-59 -42t-84.5 -12.5q-23 0 -52 3t-48 7v-215z" />
<glyph unicode="Q" horiz-adv-x="540" d="M265 710q51 0 90.5 -17t67.5 -58t42.5 -110.5t14.5 -174.5q0 -117 -18 -187.5t-52 -112.5q38 0 67.5 -6t52.5 -14v-40h-265q-51 0 -90.5 17t-67.5 58t-42.5 110.5t-14.5 174.5t14.5 174.5t42.5 110.5t67.5 58t90.5 17zM265 50q24 0 47 13t40 47t27.5 92t10.5 148 t-10.5 148t-27.5 92t-40 47t-47 13t-47 -13t-40 -47t-27.5 -92t-10.5 -148t10.5 -148t27.5 -92t40 -47t47 -13z" />
<glyph unicode="R" horiz-adv-x="505" d="M450 470q0 -51 -6.5 -88t-19 -63.5t-31.5 -43t-43 -25.5l120 -250h-100l-110 230h-100v-230h-90v690q38 11 76.5 15.5t83.5 4.5q60 0 102 -12t68 -40.5t38 -74.5t12 -113zM230 300q34 0 58.5 8.5t40.5 28t23.5 52t7.5 81.5q0 51 -7.5 84.5t-23.5 53.5t-40.5 28.5 t-58.5 8.5h-70v-345h70z" />
<glyph unicode="S" horiz-adv-x="445" d="M35 530q0 91 46 135.5t144 44.5q45 0 86 -6t64 -14v-45h-130q-120 0 -120 -115q0 -46 21 -73t53 -45.5t68.5 -34t68.5 -39t53 -60.5t21 -98q0 -49 -12 -84.5t-38.5 -59t-69.5 -35t-105 -11.5q-45 0 -86 6t-64 14v45h130q86 0 120.5 30.5t34.5 94.5q0 44 -21 69t-53 42.5 t-68.5 33.5t-68.5 40t-53 62.5t-21 102.5z" />
<glyph unicode="T" horiz-adv-x="430" d="M10 700h410v-70h-160v-630h-90v630h-160v70z" />
<glyph unicode="U" horiz-adv-x="520" d="M260 50q26 0 46.5 8.5t34.5 30t21.5 58.5t7.5 93v460h90v-460q0 -71 -11.5 -119t-36 -77t-62.5 -41.5t-90 -12.5q-53 0 -90.5 12.5t-62 41.5t-36 77t-11.5 119v460h90v-460q0 -56 7.5 -93t21.5 -58.5t34.5 -30t46.5 -8.5z" />
<glyph unicode="V" horiz-adv-x="490" d="M243 95h4l133 605h90l-160 -700h-130l-160 700h90z" />
<glyph unicode="W" horiz-adv-x="720" d="M405 570l110 -410h5l90 540h90l-115 -700h-110l-113 420h-4l-113 -420h-110l-115 700h90l90 -540h5l110 410h90z" />
<glyph unicode="X" horiz-adv-x="460" d="M340 700h90l-135 -340l150 -360h-90l-125 300l-125 -300h-90l150 360l-135 340h90l110 -280z" />
<glyph unicode="Y" d="M350 700h90l-170 -480v-220h-90v220l-170 480h90l125 -355z" />
<glyph unicode="Z" horiz-adv-x="405" d="M125 70h255v-70h-360v65l260 565h-255v70h360v-65z" />
<glyph unicode="[" horiz-adv-x="260" d="M260 680h-100v-800h100v-60h-190v920h190v-60z" />
<glyph unicode="\" horiz-adv-x="390" d="M90 700l300 -700h-90l-300 700h90z" />
<glyph unicode="]" horiz-adv-x="260" d="M0 740h190v-920h-190v60h100v800h-100v60z" />
<glyph unicode="^" horiz-adv-x="445" d="M95 410l-65 40l150 250h85l150 -250l-65 -40l-125 200h-5z" />
<glyph unicode="_" horiz-adv-x="300" d="M0 0h300v-70h-300v70z" />
<glyph unicode="`" horiz-adv-x="170" d="M90 540l-70 160h95l35 -160h-60z" />
<glyph unicode="a" d="M295 245h-70q-38 0 -64 -19.5t-26 -75.5q0 -30 7 -49.5t19 -30.5t28.5 -15.5t35.5 -4.5t39 6t31 14v175zM195 -10q-34 0 -61.5 6.5t-47 24.5t-30.5 49t-11 80q0 47 11 77t30.5 47.5t47 24t61.5 6.5q23 0 50 -3t50 -7v45q0 34 -7.5 55.5t-21.5 33.5t-34.5 16.5t-46.5 4.5 h-100v40q23 8 56.5 14t63.5 6q45 0 78.5 -7t56 -25.5t34 -52t11.5 -85.5v-340h-75l-5 30h-5q-19 -19 -47 -29.5t-58 -10.5z" />
<glyph unicode="b" horiz-adv-x="470" d="M160 485q23 11 46.5 18t53.5 7q39 0 70 -12.5t52 -42.5t32 -80t11 -125t-11.5 -125t-35.5 -80t-60.5 -42.5t-87.5 -12.5q-45 0 -83.5 7.5t-76.5 22.5v680h90v-215zM160 50h70q24 0 43.5 8.5t33 31t21 61.5t7.5 99t-7.5 98.5t-21 61t-33 31.5t-43.5 9q-19 0 -39 -6 t-31 -14v-380z" />
<glyph unicode="c" horiz-adv-x="375" d="M250 450q-28 0 -49.5 -9t-36 -31.5t-22 -61t-7.5 -98.5t7.5 -99t23 -61.5t39 -31t55.5 -8.5h100v-40q-23 -8 -56.5 -14t-63.5 -6q-51 0 -87.5 12.5t-60.5 42.5t-35.5 80t-11.5 125t11.5 125t34.5 80t57.5 42.5t81.5 12.5q30 0 63.5 -6t56.5 -14v-40h-100z" />
<glyph unicode="d" horiz-adv-x="470" d="M315 30q-19 -19 -47 -29.5t-58 -10.5q-39 0 -70 12.5t-52 42.5t-32 80t-11 125t11 125t32 80t52 42.5t70 12.5q30 0 53.5 -7t46.5 -18v215h90v-700h-75l-5 30h-5zM310 430q-11 8 -31 14t-39 6q-24 0 -43.5 -9t-33 -31.5t-21 -61t-7.5 -98.5t7.5 -99t21 -61.5t33 -31 t43.5 -8.5q19 0 39 6t31 14v360z" />
<glyph unicode="e" horiz-adv-x="440" d="M395 220h-260q0 -49 8 -81.5t24.5 -52t43 -28t64.5 -8.5h100v-40q-23 -8 -56.5 -14t-63.5 -6q-56 0 -96 12.5t-65.5 42.5t-37 80t-11.5 125t11 125t33 80t55 42.5t76 12.5t76 -12.5t55 -42.5t33 -80t11 -125v-30zM305 280q0 51 -7 84.5t-18.5 53.5t-27 28.5t-32.5 8.5 t-32.5 -8.5t-27 -28.5t-18.5 -53.5t-7 -84.5h170z" />
<glyph unicode="f" horiz-adv-x="320" d="M80 530q0 52 10.5 85.5t29.5 52t44.5 25.5t55.5 7q11 0 26 -1.5t30.5 -4.5t30 -6.5t23.5 -7.5v-40h-90q-11 0 -23.5 -4.5t-23 -16.5t-17 -33.5t-6.5 -55.5v-40h140v-45q-23 -8 -56.5 -14t-63.5 -6h-20v-425h-90v425h-60v65h60v40z" />
<glyph unicode="g" horiz-adv-x="465" d="M310 15q-23 -11 -46.5 -18t-53.5 -7q-39 0 -70 12.5t-52 42.5t-32 80t-11 125t11.5 125t35.5 80t60.5 42.5t87.5 12.5q45 0 83.5 -7.5t76.5 -22.5v-440q0 -71 -11.5 -119t-36 -77t-62.5 -41.5t-90 -12.5q-30 0 -63.5 6t-56.5 14v40h100q34 0 58.5 8t40.5 27.5t23.5 51 t7.5 78.5zM310 450h-70q-24 0 -43.5 -9t-33 -31.5t-21 -61t-7.5 -98.5t7.5 -99t21 -61.5t33 -31t43.5 -8.5q19 0 39 6t31 14v380z" />
<glyph unicode="h" horiz-adv-x="480" d="M160 0h-90v700h90v-215q23 11 49.5 18t60.5 7q32 0 58.5 -6.5t46 -23.5t30 -46t10.5 -74v-360h-90v360q0 26 -7 43.5t-20 28t-30 14.5t-38 4q-19 0 -39 -6t-31 -14v-430z" />
<glyph unicode="i" horiz-adv-x="230" d="M160 0h-90v500h90v-500zM160 680v-110h-90v110h90z" />
<glyph unicode="j" horiz-adv-x="240" d="M170 -40q0 -53 -10.5 -86t-29.5 -51.5t-44.5 -25.5t-55.5 -7q-23 0 -47 6t-43 14v40h70q11 0 23.5 4.5t23 16.5t17 33.5t6.5 55.5v540h90v-540zM170 680v-110h-90v110h90z" />
<glyph unicode="k" horiz-adv-x="435" d="M160 260v-260h-90v700h90v-430l145 230h100l-155 -235l175 -265h-100z" />
<glyph unicode="l" horiz-adv-x="230" d="M70 700h90v-700h-90v700z" />
<glyph unicode="m" horiz-adv-x="690" d="M390 0h-90v360q0 26 -7 43.5t-18 28t-25.5 14.5t-29.5 4q-19 0 -36.5 -6t-28.5 -14v-430h-90v500h75l5 -30h5q19 19 42.5 29.5t57.5 10.5t63 -9.5t49 -34.5q12 11 28 19t32.5 13.5t33 8.5t29.5 3q30 0 55.5 -6.5t44.5 -23.5t29.5 -46t10.5 -74v-360h-90v360q0 26 -7 43.5 t-18 28t-25.5 14.5t-29.5 4q-23 0 -43.5 -6t-31.5 -14q4 -11 7 -29t3 -41v-360z" />
<glyph unicode="n" horiz-adv-x="475" d="M155 0h-90v500h75l5 -30h5q19 19 47 29.5t58 10.5q36 0 64.5 -6.5t48.5 -23.5t31 -46t11 -74v-360h-90v360q0 26 -7 43.5t-20 28t-30 14.5t-38 4q-19 0 -39 -6t-31 -14v-430z" />
<glyph unicode="o" horiz-adv-x="460" d="M325 250q0 60 -8 99.5t-21 63t-30 33t-36 9.5t-36 -9.5t-30 -33t-21 -63t-8 -99.5t8 -99.5t21 -63t30 -33t36 -9.5t36 9.5t30 33t21 63t8 99.5zM415 250q0 -73 -12 -123t-35.5 -80.5t-58 -43.5t-79.5 -13t-79.5 13t-58 43.5t-35.5 80.5t-12 123t12 123t35.5 80.5t58 43.5 t79.5 13t79.5 -13t58 -43.5t35.5 -80.5t12 -123z" />
<glyph unicode="p" horiz-adv-x="465" d="M150 470q19 19 47 29.5t58 10.5q39 0 70 -12.5t52 -42.5t32 -80t11 -125t-11 -125t-32 -80t-52 -42.5t-70 -12.5q-30 0 -53.5 7t-46.5 18v-215h-90v700h75l5 -30h5zM155 70q11 -8 31 -14t39 -6q24 0 43.5 8.5t33 31t21 61.5t7.5 99t-7.5 98.5t-21 61t-33 31.5t-43.5 9 q-19 0 -39 -6t-31 -14v-360z" />
<glyph unicode="q" horiz-adv-x="465" d="M310 15q-23 -11 -46.5 -18t-53.5 -7q-39 0 -70 12.5t-52 42.5t-32 80t-11 125t11.5 125t35.5 80t60.5 42.5t87.5 12.5q45 0 83.5 -7.5t76.5 -22.5v-680h-90v215zM310 450h-70q-24 0 -43.5 -9t-33 -31.5t-21 -61t-7.5 -98.5t7.5 -99t21 -61.5t33 -31t43.5 -8.5q19 0 39 6 t31 14v380z" />
<glyph unicode="r" horiz-adv-x="335" d="M155 0h-90v500h76l5 -40h5q18 15 48.5 27.5t75.5 12.5h50v-75h-100q-19 0 -37 -4.5t-33 -15.5v-405z" />
<glyph unicode="s" horiz-adv-x="395" d="M125 380q0 -30 17.5 -47.5t43.5 -30.5t56.5 -24.5t56.5 -29.5t43.5 -45.5t17.5 -72.5q0 -41 -11.5 -68t-36 -43t-62.5 -22.5t-90 -6.5q-30 0 -63.5 6t-56.5 14v40h100q68 0 99 17.5t31 62.5q0 30 -17.5 47.5t-43.5 30.5t-56.5 24.5t-56.5 29.5t-43.5 45.5t-17.5 72.5 q0 75 45 102.5t135 27.5q30 0 63.5 -6t56.5 -14v-40h-100q-53 0 -81.5 -16t-28.5 -54z" />
<glyph unicode="t" horiz-adv-x="345" d="M170 425v-265q0 -34 6.5 -55.5t17 -33.5t23 -16.5t23.5 -4.5h90v-40q-9 -4 -23.5 -7.5t-30 -6.5t-30.5 -4.5t-26 -1.5q-30 0 -55.5 7t-44.5 25.5t-29.5 51.5t-10.5 86v265h-60v65h60v120h90v-120h140v-45q-23 -8 -56.5 -14t-63.5 -6h-20z" />
<glyph unicode="u" horiz-adv-x="475" d="M320 500h90v-500h-75l-5 30h-5q-19 -19 -47 -29.5t-58 -10.5q-36 0 -64.5 6.5t-48.5 23.5t-31 46t-11 74v360h90v-360q0 -26 7 -43.5t20 -28t30 -14.5t38 -4q19 0 39 6t31 14v430z" />
<glyph unicode="v" horiz-adv-x="430" d="M150 0l-135 500h85l113 -415h4l113 415h85l-135 -500h-130z" />
<glyph unicode="w" horiz-adv-x="610" d="M303 270l-88 -270h-110l-90 500h85l69 -380h5l91 280h80l91 -280h5l69 380h85l-90 -500h-110l-88 270h-4z" />
<glyph unicode="x" horiz-adv-x="400" d="M291 500h90l-121 -245l125 -255h-90l-95 195l-95 -195h-90l125 255l-121 245h90l91 -185z" />
<glyph unicode="y" horiz-adv-x="475" d="M220 -10q-36 0 -64.5 6.5t-48.5 23.5t-31 46t-11 74v360h90v-360q0 -26 7 -43.5t20 -28t30 -14.5t38 -4q19 0 39 6t31 14v430h90v-460q0 -71 -11.5 -119t-36 -77t-62.5 -41.5t-90 -12.5q-30 0 -63.5 6t-56.5 14v40h100q34 0 58.5 8t40.5 27.5t23.5 51t7.5 78.5 q-23 -11 -46.5 -18t-53.5 -7z" />
<glyph unicode="z" horiz-adv-x="370" d="M350 440l-224 -375h219v-65h-325v60l225 375h-215v65h320v-60z" />
<glyph unicode="{" horiz-adv-x="290" d="M190 460q0 -41 -5.5 -69t-16 -47.5t-25 -33.5t-33.5 -28v-4q19 -14 33.5 -28.5t25 -34t16 -47t5.5 -68.5v-110q0 -34 7 -55.5t20.5 -33.5t31.5 -16.5t41 -4.5v-60q-49 0 -84.5 7t-59 25.5t-35 51.5t-11.5 86v130q0 32 -5.5 54t-16 37t-25 24t-33.5 15v60q19 6 33.5 15 t25 24t16 37t5.5 54v130q0 52 11.5 85.5t35 52t59 25.5t84.5 7v-60q-23 0 -41 -4.5t-31.5 -16.5t-20.5 -33.5t-7 -55.5v-110z" />
<glyph unicode="|" horiz-adv-x="230" d="M160 700v-900h-90v900h90z" />
<glyph unicode="}" horiz-adv-x="290" d="M100 570q0 34 -7 55.5t-20.5 33.5t-32 16.5t-40.5 4.5v60q49 0 84.5 -7t59 -25.5t35 -52t11.5 -85.5v-130q0 -32 5.5 -54t16 -37t25 -24t33.5 -15v-60q-19 -6 -33.5 -15t-25 -24t-16 -37t-5.5 -54v-130q0 -53 -11.5 -86t-35 -51.5t-59 -25.5t-84.5 -7v60q22 0 40.5 4.5 t32 16.5t20.5 33.5t7 55.5v110q0 41 5.5 68.5t16 47t25 34t33.5 28.5v4q-19 14 -33.5 28t-25 33.5t-16 47.5t-5.5 69v110z" />
<glyph unicode="~" d="M350 200q0 34 -12 54.5t-38 20.5q-17 0 -30 -12.5t-28.5 -27.5t-36.5 -27.5t-55 -12.5t-57 11t-37 32t-20 52t-6 70h70q0 -34 12 -54.5t38 -20.5q17 0 30 12.5t28.5 27.5t36.5 27.5t55 12.5q67 0 93.5 -43t26.5 -122h-70z" />
<glyph unicode="&#xa1;" horiz-adv-x="230" d="M153 515l17 -515h-110l13 515h80zM68 595v110h90v-110h-90z" />
<glyph unicode="&#xa2;" horiz-adv-x="375" d="M265 450v-400h95v-40q-18 -6 -43.5 -11.5t-51.5 -7.5v-51h-60v52q-42 4 -72 19t-49.5 45.5t-29 78t-9.5 115.5q0 70 10 118t29.5 78.5t49.5 45t71 17.5v61h60v-62q23 -3 45.5 -8t39.5 -10v-40h-85zM135 250q0 -91 17 -134.5t53 -57.5v385q-35 -13 -52.5 -56.5 t-17.5 -136.5z" />
<glyph unicode="&#xa3;" horiz-adv-x="415" d="M95 390v110q0 67 11.5 108.5t36 64t62 30t90.5 7.5q23 0 47 -6t43 -14v-45h-90q-26 0 -46.5 -5t-34.5 -20.5t-21.5 -44t-7.5 -75.5v-110h150v-70h-150v-86q0 -75 -13.5 -110t-36.5 -50v-4h260v-70h-350v50q23 15 36.5 50t13.5 110v110h-60v70h60z" />
<glyph unicode="&#xa4;" horiz-adv-x="520" d="M350 350q0 64 -26 94.5t-64 30.5t-64 -30.5t-26 -94.5t26 -94.5t64 -30.5t64 30.5t26 94.5zM445 350q0 -26 -7 -51t-18 -44l70 -70l-50 -50l-70 65q-19 -19 -49.5 -29.5t-61.5 -10.5q-29 0 -59.5 10.5t-49.5 29.5l-70 -65l-50 50l70 70q-11 19 -18 44t-7 51t7 51t18 44 l-70 70l50 50l70 -65q19 19 49.5 29.5t59.5 10.5q31 0 61.5 -10.5t49.5 -29.5l70 65l50 -50l-70 -70q11 -19 18 -44t7 -51z" />
<glyph unicode="&#xa5;" d="M310 335l-21 -60h101v-70h-120v-205h-90v205h-120v70h100l-21 60h-79v70h54l-104 295h90l125 -355l125 355h90l-105 -295h55v-70h-80z" />
<glyph unicode="&#xa6;" horiz-adv-x="230" d="M160 160v-360h-90v360h90zM160 680v-360h-90v360h90z" />
<glyph unicode="&#xa7;" horiz-adv-x="435" d="M130 250q0 -25 9 -43.5t24.5 -32.5t35.5 -25t42 -21q28 16 46 44t18 78q0 25 -9 43.5t-24.5 32.5t-35.5 25t-41 21q-29 -15 -47 -43t-18 -79zM160 -150q79 0 112 27.5t33 72.5q0 35 -19.5 57t-49 38.5t-64 32t-64 37t-49 53.5t-19.5 82q0 58 29.5 95t68.5 57 q-36 21 -62 55t-26 93q0 75 46.5 117.5t148.5 42.5q38 0 75 -6t60 -14v-40h-115q-64 0 -94.5 -27.5t-30.5 -72.5q0 -35 19 -57t47 -38.5t61.5 -32t61.5 -37t47 -53.5t19 -82q0 -57 -28.5 -93.5t-66.5 -56.5q19 -11 36.5 -24.5t30.5 -31t20.5 -41t7.5 -53.5 q0 -75 -49.5 -117.5t-165.5 -42.5q-38 0 -75 6t-60 14v40h115z" />
<glyph unicode="&#xa8;" horiz-adv-x="290" d="M110 690v-110h-90v110h90zM270 690v-110h-90v110h90z" />
<glyph unicode="&#xa9;" horiz-adv-x="810" d="M245 350q0 71 11 114.5t32.5 67t53.5 31t73 7.5q34 0 63 -6t52 -14v-40h-95q-26 0 -46.5 -5.5t-34.5 -22t-21.5 -48.5t-7.5 -84q0 -53 7.5 -84.5t21.5 -48t34.5 -22t46.5 -5.5h105v-40q-23 -8 -57 -14t-68 -6q-41 0 -73 7.5t-53.5 31t-32.5 67t-11 114.5zM405 660 q-60 0 -109.5 -20.5t-85.5 -59.5t-55.5 -97t-19.5 -133t19.5 -133t55.5 -97t85.5 -59.5t109.5 -20.5t109.5 20.5t85.5 59.5t55.5 97t19.5 133t-19.5 133t-55.5 97t-85.5 59.5t-109.5 20.5zM405 720q82 0 149 -25.5t113.5 -73.5t72 -116.5t25.5 -154.5t-25.5 -154.5 t-72 -116.5t-113.5 -73.5t-149 -25.5q-83 0 -149.5 25.5t-113 73.5t-72 116.5t-25.5 154.5t25.5 154.5t72 116.5t113 73.5t149.5 25.5z" />
<glyph unicode="&#xaa;" horiz-adv-x="285" d="M190 535h-45q-23 0 -36.5 -11t-13.5 -34t13.5 -34t36.5 -11q22 0 45 15v75zM125 585q9 0 20.5 -1t21.5 -2q11 -1 23 -2v20q0 30 -15.5 42.5t-49.5 12.5h-70v38q15 5 38 8.5t42 3.5q28 0 50.5 -4.5t38 -16t23.5 -32t8 -52.5v-200h-60l-5 20q-15 -11 -33.5 -18t-41.5 -7 q-15 0 -30 5t-27.5 16t-20 29.5t-7.5 44.5q0 52 28.5 73.5t66.5 21.5z" />
<glyph unicode="&#xab;" horiz-adv-x="435" d="M120 252v-4l120 -163l-65 -40l-155 205l155 205l65 -40zM285 252v-4l120 -163l-65 -40l-155 205l155 205l65 -40z" />
<glyph unicode="&#xac;" horiz-adv-x="420" d="M390 240h-65l-8 100h-287v70h360v-170z" />
<glyph unicode="&#xad;" horiz-adv-x="360" d="M30 340h300v-80h-300v80z" />
<glyph unicode="&#xae;" horiz-adv-x="810" d="M345 140h-80v410q26 8 58 14t77 6q37 0 67 -6.5t50.5 -22.5t31.5 -43t11 -68q0 -30 -6.5 -50.5t-17 -34t-23 -21.5t-23.5 -14l80 -170h-85l-70 150h-70v-150zM400 350q30 0 55 17.5t25 62.5t-25 62.5t-55 17.5h-55v-160h55zM405 660q-60 0 -109.5 -20.5t-85.5 -59.5 t-55.5 -97t-19.5 -133t19.5 -133t55.5 -97t85.5 -59.5t109.5 -20.5t109.5 20.5t85.5 59.5t55.5 97t19.5 133t-19.5 133t-55.5 97t-85.5 59.5t-109.5 20.5zM405 720q82 0 149 -25.5t113.5 -73.5t72 -116.5t25.5 -154.5t-25.5 -154.5t-72 -116.5t-113.5 -73.5t-149 -25.5 q-83 0 -149.5 25.5t-113 73.5t-72 116.5t-25.5 154.5t25.5 154.5t72 116.5t113 73.5t149.5 25.5z" />
<glyph unicode="&#xaf;" horiz-adv-x="270" d="M20 700h230v-60h-230v60z" />
<glyph unicode="&#xb0;" horiz-adv-x="380" d="M190 450q30 0 50 23.5t20 76.5t-20 76.5t-50 23.5t-50 -23.5t-20 -76.5t20 -76.5t50 -23.5zM190 710q68 0 109 -42.5t41 -117.5t-41 -117.5t-109 -42.5t-109 42.5t-41 117.5t41 117.5t109 42.5z" />
<glyph unicode="&#xb1;" horiz-adv-x="430" d="M30 120h370v-70h-370v70zM255 530v-155h145v-70h-145v-155h-80v155h-145v70h145v155h80z" />
<glyph unicode="&#xb2;" horiz-adv-x="255" d="M120 705q53 0 79 -25t26 -70q0 -42 -30 -78.5t-90 -81.5h120v-50h-195v55q26 21 49.5 40.5t41.5 39t28.5 38t10.5 37.5t-14.5 32t-40.5 13h-65v39q15 5 36 8t44 3z" />
<glyph unicode="&#xb3;" horiz-adv-x="255" d="M110 705q49 0 77 -18t28 -67q0 -23 -14.5 -39.5t-26.5 -20.5q20 -4 35.5 -22.5t15.5 -52.5q0 -53 -32 -71.5t-88 -18.5q-23 0 -41.5 3t-33.5 8v39h75q55 0 55 40q0 23 -13.5 34t-36.5 11h-45v50h40q26 0 35.5 12.5t9.5 27.5t-12 25t-39 10h-69v39q14 5 35.5 8t44.5 3z " />
<glyph unicode="&#xb4;" horiz-adv-x="170" d="M20 560l35 130h95l-70 -130h-60z" />
<glyph unicode="&#xb5;" horiz-adv-x="475" d="M320 500h90v-500h-75l-5 30h-5q-19 -19 -42 -29.5t-53 -10.5q-16 0 -29.5 4.5t-23 9.5t-15.5 10t-7 6v-220h-90v700h90v-340q0 -53 26.5 -81.5t68.5 -28.5q19 0 39 6t31 14v430z" />
<glyph unicode="&#xb6;" horiz-adv-x="530" d="M440 -200h-80v830h-70v-830h-80v530q-83 0 -131.5 49t-48.5 136q0 36 12.5 69t36 59t57 41.5t74.5 15.5h300v-70h-70v-830z" />
<glyph unicode="&#xb7;" horiz-adv-x="250" d="M170 405v-110h-90v110h90z" />
<glyph unicode="&#xb8;" horiz-adv-x="200" d="M95 -25q42 0 63.5 -20t21.5 -50t-21.5 -50t-63.5 -20q-17 0 -30.5 2t-23.5 5q-11 4 -21 8v30h65q30 0 30 25t-30 25h-55v85h50v-40h15z" />
<glyph unicode="&#xb9;" horiz-adv-x="185" d="M155 700v-300h-65v250h-60v38q15 5 42 8.5t53 3.5h30z" />
<glyph unicode="&#xba;" horiz-adv-x="300" d="M205 550q0 60 -16 82.5t-39 22.5t-39 -22.5t-16 -82.5t16 -82.5t39 -22.5t39 22.5t16 82.5zM270 550q0 -79 -33.5 -117t-86.5 -38t-86.5 38t-33.5 117t33.5 117t86.5 38t86.5 -38t33.5 -117z" />
<glyph unicode="&#xbb;" horiz-adv-x="435" d="M195 415l65 40l155 -205l-155 -205l-65 40l120 163v4zM30 415l65 40l155 -205l-155 -205l-65 40l120 163v4z" />
<glyph unicode="&#xbc;" horiz-adv-x="560" d="M410 115v98l-75 -98h75zM265 115l140 185h70v-185h30v-50h-30v-65h-65v65h-145v50zM510 700l-390 -700h-80l390 700h80zM175 700v-300h-70v250h-60v38q15 5 42 8.5t53 3.5h35z" />
<glyph unicode="&#xbd;" horiz-adv-x="590" d="M425 305q53 0 79 -25t26 -70q0 -42 -30 -78.5t-90 -81.5h120v-50h-195v55q26 21 49.5 40.5t41.5 39t28.5 38t10.5 37.5t-14.5 32t-40.5 13h-65v39q15 5 36 8t44 3zM520 700l-390 -700h-80l390 700h80zM185 700v-300h-70v250h-60v38q15 5 42 8.5t53 3.5h35z" />
<glyph unicode="&#xbe;" horiz-adv-x="565" d="M120 705q49 0 77 -18t28 -67q0 -23 -14.5 -39.5t-26.5 -20.5q20 -4 35.5 -22.5t15.5 -52.5q0 -53 -32 -71.5t-88 -18.5q-23 0 -41.5 3t-33.5 8v39h75q55 0 55 40q0 23 -13.5 34t-36.5 11h-45v50h40q26 0 35.5 12.5t9.5 27.5t-12 25t-39 10h-69v39q14 5 35.5 8t44.5 3z M415 115v98l-75 -98h75zM270 115l140 185h70v-185h30v-50h-30v-65h-65v65h-145v50zM515 700l-390 -700h-80l390 700h80z" />
<glyph unicode="&#xbf;" horiz-adv-x="370" d="M265 515q0 -44 -10.5 -76t-27 -57.5t-35 -47t-35 -44t-27 -49t-10.5 -61.5q0 -64 28.5 -94.5t81.5 -30.5h130v-45q-23 -8 -64 -14t-86 -6q-91 0 -135.5 46t-44.5 144q0 42 11.5 73.5t28.5 56.5t37.5 46.5t37.5 45t28.5 50.5t11.5 63h80zM180 595v110h90v-110h-90z" />
<glyph unicode="&#xc0;" horiz-adv-x="510" d="M155 180l-45 -180h-90l170 700h130l170 -700h-90l-45 180h-200zM257 600h-4l-83 -350h170zM230 750l-70 130h95l35 -130h-60z" />
<glyph unicode="&#xc1;" horiz-adv-x="510" d="M155 180l-45 -180h-90l170 700h130l170 -700h-90l-45 180h-200zM257 600h-4l-83 -350h170zM220 750l35 130h95l-70 -130h-60z" />
<glyph unicode="&#xc2;" horiz-adv-x="510" d="M155 180l-45 -180h-90l170 700h130l170 -700h-90l-45 180h-200zM257 600h-4l-83 -350h170zM133 750l75 130h95l75 -130h-60l-63 74l-62 -74h-60z" />
<glyph unicode="&#xc3;" horiz-adv-x="510" d="M155 180l-45 -180h-90l170 700h130l170 -700h-90l-45 180h-200zM257 600h-4l-83 -350h170zM320 765q0 45 -25 45q-9 0 -17.5 -9.5t-18 -20.5t-22.5 -20.5t-32 -9.5q-38 0 -56.5 24t-18.5 81h50q0 -45 25 -45q9 0 17.5 9.5t18 20.5t22.5 20.5t32 9.5q38 0 56.5 -24 t18.5 -81h-50z" />
<glyph unicode="&#xc4;" horiz-adv-x="510" d="M155 180l-45 -180h-90l170 700h130l170 -700h-90l-45 180h-200zM257 600h-4l-83 -350h170zM220 870v-110h-90v110h90zM380 870v-110h-90v110h90z" />
<glyph unicode="&#xc5;" horiz-adv-x="510" d="M155 180l-45 -180h-90l170 700h130l170 -700h-90l-45 180h-200zM257 600h-4l-83 -350h170zM290 810q0 19 -10 27t-25 8t-25 -8t-10 -27t10 -27t25 -8t25 8t10 27zM340 810q0 -38 -23.5 -59t-61.5 -21t-61.5 21t-23.5 59t23.5 59t61.5 21t61.5 -21t23.5 -59z" />
<glyph unicode="&#xc6;" horiz-adv-x="731" d="M240 700h451v-70h-250v-230h220v-70h-220v-260h250v-70h-340v180h-199l-62 -180h-90zM176 250h175v380h-45z" />
<glyph unicode="&#xc7;" horiz-adv-x="435" d="M285 -25q42 0 63.5 -20t21.5 -50t-23 -50t-72 -20q-17 0 -30.5 2t-23.5 5q-11 4 -21 8v30h65q23 0 31.5 7t8.5 18q0 25 -30 25h-55v64q-41 7 -72.5 29t-53.5 64t-33 106.5t-11 156.5q0 105 14.5 174.5t41.5 110.5t66 58t88 17q45 0 86 -6t64 -14v-45h-130 q-30 0 -55.5 -13t-44.5 -46.5t-29.5 -90.5t-10.5 -145t11 -145t30.5 -90.5t47 -46.5t61.5 -13h130v-45q-23 -8 -64 -14t-86 -6v-15h15z" />
<glyph unicode="&#xc8;" d="M160 70h250v-70h-340v700h340v-70h-250v-230h220v-70h-220v-260zM220 750l-70 130h95l35 -130h-60z" />
<glyph unicode="&#xc9;" d="M160 70h250v-70h-340v700h340v-70h-250v-230h220v-70h-220v-260zM210 750l35 130h95l-70 -130h-60z" />
<glyph unicode="&#xca;" d="M160 70h250v-70h-340v700h340v-70h-250v-230h220v-70h-220v-260zM115 750l75 130h95l75 -130h-60l-63 74l-62 -74h-60z" />
<glyph unicode="&#xcb;" d="M160 70h250v-70h-340v700h340v-70h-250v-230h220v-70h-220v-260zM200 880v-110h-90v110h90zM360 880v-110h-90v110h90z" />
<glyph unicode="&#xcc;" horiz-adv-x="225" d="M155 700v-700h-90v700h90zM85 750l-70 130h95l35 -130h-60z" />
<glyph unicode="&#xcd;" horiz-adv-x="230" d="M160 700v-700h-90v700h90zM85 750l35 130h95l-70 -130h-60z" />
<glyph unicode="&#xce;" horiz-adv-x="215" d="M150 700v-700h-90v700h90zM-15 750l75 130h95l75 -130h-60l-63 74l-62 -74h-60z" />
<glyph unicode="&#xcf;" horiz-adv-x="230" d="M160 700v-700h-90v700h90zM80 880v-110h-90v110h90zM240 880v-110h-90v110h90z" />
<glyph unicode="&#xd0;" horiz-adv-x="540" d="M90 390v300q38 11 76.5 15.5t83.5 4.5q60 0 105 -17t75 -58t45 -110.5t15 -174.5t-15 -174.5t-45 -110.5t-75 -58t-105 -17q-45 0 -83.5 4.5t-76.5 15.5v310h-80v70h80zM400 350q0 88 -11 145t-30.5 90.5t-47 46.5t-61.5 13h-70v-255h110v-70h-110v-265h70q34 0 61.5 13 t47 46.5t30.5 90.5t11 145z" />
<glyph unicode="&#xd1;" horiz-adv-x="540" d="M330 765q0 45 -25 45q-9 0 -17.5 -9.5t-18 -20.5t-22.5 -20.5t-32 -9.5q-38 0 -56.5 24t-18.5 81h50q0 -45 25 -45q9 0 17.5 9.5t18 20.5t22.5 20.5t32 9.5q38 0 56.5 -24t18.5 -81h-50zM160 0h-90v700h100l205 -495h5v495h90v-700h-100l-205 495h-5v-495z" />
<glyph unicode="&#xd2;" horiz-adv-x="530" d="M265 710q51 0 90.5 -17t67.5 -58t42.5 -110.5t14.5 -174.5t-14.5 -174.5t-42.5 -110.5t-67.5 -58t-90.5 -17t-90.5 17t-67.5 58t-42.5 110.5t-14.5 174.5t14.5 174.5t42.5 110.5t67.5 58t90.5 17zM265 50q24 0 47 13t40 47t27.5 92t10.5 148t-10.5 148t-27.5 92t-40 47 t-47 13t-47 -13t-40 -47t-27.5 -92t-10.5 -148t10.5 -148t27.5 -92t40 -47t47 -13zM240 760l-70 130h95l35 -130h-60z" />
<glyph unicode="&#xd3;" horiz-adv-x="530" d="M265 710q51 0 90.5 -17t67.5 -58t42.5 -110.5t14.5 -174.5t-14.5 -174.5t-42.5 -110.5t-67.5 -58t-90.5 -17t-90.5 17t-67.5 58t-42.5 110.5t-14.5 174.5t14.5 174.5t42.5 110.5t67.5 58t90.5 17zM265 50q24 0 47 13t40 47t27.5 92t10.5 148t-10.5 148t-27.5 92t-40 47 t-47 13t-47 -13t-40 -47t-27.5 -92t-10.5 -148t10.5 -148t27.5 -92t40 -47t47 -13zM230 760l35 130h95l-70 -130h-60z" />
<glyph unicode="&#xd4;" horiz-adv-x="530" d="M265 710q51 0 90.5 -17t67.5 -58t42.5 -110.5t14.5 -174.5t-14.5 -174.5t-42.5 -110.5t-67.5 -58t-90.5 -17t-90.5 17t-67.5 58t-42.5 110.5t-14.5 174.5t14.5 174.5t42.5 110.5t67.5 58t90.5 17zM265 50q24 0 47 13t40 47t27.5 92t10.5 148t-10.5 148t-27.5 92t-40 47 t-47 13t-47 -13t-40 -47t-27.5 -92t-10.5 -148t10.5 -148t27.5 -92t40 -47t47 -13zM145 760l75 130h95l75 -130h-60l-63 74l-62 -74h-60z" />
<glyph unicode="&#xd5;" horiz-adv-x="530" d="M265 710q51 0 90.5 -17t67.5 -58t42.5 -110.5t14.5 -174.5t-14.5 -174.5t-42.5 -110.5t-67.5 -58t-90.5 -17t-90.5 17t-67.5 58t-42.5 110.5t-14.5 174.5t14.5 174.5t42.5 110.5t67.5 58t90.5 17zM265 50q24 0 47 13t40 47t27.5 92t10.5 148t-10.5 148t-27.5 92t-40 47 t-47 13t-47 -13t-40 -47t-27.5 -92t-10.5 -148t10.5 -148t27.5 -92t40 -47t47 -13zM330 775q0 45 -25 45q-9 0 -17.5 -9.5t-18 -20.5t-22.5 -20.5t-32 -9.5q-38 0 -56.5 24t-18.5 81h50q0 -45 25 -45q9 0 17.5 9.5t18 20.5t22.5 20.5t32 9.5q38 0 56.5 -24t18.5 -81h-50z " />
<glyph unicode="&#xd6;" horiz-adv-x="530" d="M265 710q51 0 90.5 -17t67.5 -58t42.5 -110.5t14.5 -174.5t-14.5 -174.5t-42.5 -110.5t-67.5 -58t-90.5 -17t-90.5 17t-67.5 58t-42.5 110.5t-14.5 174.5t14.5 174.5t42.5 110.5t67.5 58t90.5 17zM265 50q24 0 47 13t40 47t27.5 92t10.5 148t-10.5 148t-27.5 92t-40 47 t-47 13t-47 -13t-40 -47t-27.5 -92t-10.5 -148t10.5 -148t27.5 -92t40 -47t47 -13zM230 880v-110h-90v110h90zM390 880v-110h-90v110h90z" />
<glyph unicode="&#xd7;" horiz-adv-x="400" d="M305 490l55 -55l-105 -105l105 -105l-55 -55l-105 105l-105 -105l-55 55l105 105l-105 105l55 55l105 -105z" />
<glyph unicode="&#xd8;" horiz-adv-x="540" d="M270 710q53 0 94 -18.5t69 -64.5l37 53l40 -30l-53 -76q14 -41 21 -96t7 -128q0 -105 -14.5 -174.5t-42.5 -110.5t-67.5 -58t-90.5 -17q-54 0 -94.5 18.5t-68.5 64.5l-37 -53l-40 30l53 76q-14 41 -21 96t-7 128q0 105 14.5 174.5t42.5 110.5t67.5 58t90.5 17zM145 350 q0 -37 1.5 -68t5.5 -57l222 318q-17 61 -45 84t-59 23q-24 0 -47 -13t-40 -47t-27.5 -92t-10.5 -148zM270 50q24 0 47 13t40 47t27.5 92t10.5 148q0 37 -2 68t-5 57l-223 -319q17 -61 45 -83.5t60 -22.5z" />
<glyph unicode="&#xd9;" horiz-adv-x="520" d="M260 50q26 0 46.5 8.5t34.5 30t21.5 58.5t7.5 93v460h90v-460q0 -71 -11.5 -119t-36 -77t-62.5 -41.5t-90 -12.5q-53 0 -90.5 12.5t-62 41.5t-36 77t-11.5 119v460h90v-460q0 -56 7.5 -93t21.5 -58.5t34.5 -30t46.5 -8.5zM235 740l-70 130h95l35 -130h-60z" />
<glyph unicode="&#xda;" horiz-adv-x="520" d="M260 50q26 0 46.5 8.5t34.5 30t21.5 58.5t7.5 93v460h90v-460q0 -71 -11.5 -119t-36 -77t-62.5 -41.5t-90 -12.5q-53 0 -90.5 12.5t-62 41.5t-36 77t-11.5 119v460h90v-460q0 -56 7.5 -93t21.5 -58.5t34.5 -30t46.5 -8.5zM225 740l35 130h95l-70 -130h-60z" />
<glyph unicode="&#xdb;" horiz-adv-x="520" d="M260 50q26 0 46.5 8.5t34.5 30t21.5 58.5t7.5 93v460h90v-460q0 -71 -11.5 -119t-36 -77t-62.5 -41.5t-90 -12.5q-53 0 -90.5 12.5t-62 41.5t-36 77t-11.5 119v460h90v-460q0 -56 7.5 -93t21.5 -58.5t34.5 -30t46.5 -8.5zM138 740l75 130h95l75 -130h-60l-63 74l-62 -74 h-60z" />
<glyph unicode="&#xdc;" horiz-adv-x="520" d="M260 50q26 0 46.5 8.5t34.5 30t21.5 58.5t7.5 93v460h90v-460q0 -71 -11.5 -119t-36 -77t-62.5 -41.5t-90 -12.5q-53 0 -90.5 12.5t-62 41.5t-36 77t-11.5 119v460h90v-460q0 -56 7.5 -93t21.5 -58.5t34.5 -30t46.5 -8.5zM225 860v-110h-90v110h90zM385 860v-110h-90v110 h90z" />
<glyph unicode="&#xdd;" d="M190 740l35 130h95l-70 -130h-60zM350 700h90l-170 -480v-220h-90v220l-170 480h90l125 -355z" />
<glyph unicode="&#xde;" horiz-adv-x="500" d="M160 630q155 -8 227.5 -78t72.5 -202t-72.5 -202t-227.5 -78v-80h-90v720h90v-80zM160 135q210 7 210 215q0 106 -52 158.5t-158 56.5v-430z" />
<glyph unicode="&#xdf;" horiz-adv-x="530" d="M330 365q0 -20 12 -35t30.5 -29t40 -28.5t40 -33.5t30.5 -44t12 -60q0 -43 -11 -71t-32.5 -44.5t-53.5 -23t-73 -6.5q-23 0 -50 6t-50 14v40h80q45 0 72.5 18t27.5 67q0 25 -12 43.5t-30.5 34t-40 30t-40 31.5t-30.5 39t-12 52q0 34 16.5 56.5t36 41.5t36 39t16.5 48 q0 42 -26 68.5t-64 26.5q-45 0 -72.5 -34t-27.5 -116v-495h-90v495q0 116 46 165.5t144 49.5q91 0 135.5 -42.5t44.5 -117.5q0 -36 -16.5 -59.5t-36 -42.5t-36 -38t-16.5 -45z" />
<glyph unicode="&#xe0;" d="M215 560l-70 130h95l35 -130h-60zM295 245h-70q-38 0 -64 -19.5t-26 -75.5q0 -30 7 -49.5t19 -30.5t28.5 -15.5t35.5 -4.5t39 6t31 14v175zM195 -10q-34 0 -61.5 6.5t-47 24.5t-30.5 49t-11 80q0 47 11 77t30.5 47.5t47 24t61.5 6.5q23 0 50 -3t50 -7v45q0 34 -7.5 55.5 t-21.5 33.5t-34.5 16.5t-46.5 4.5h-100v40q23 8 56.5 14t63.5 6q45 0 78.5 -7t56 -25.5t34 -52t11.5 -85.5v-340h-75l-5 30h-5q-19 -19 -47 -29.5t-58 -10.5z" />
<glyph unicode="&#xe1;" d="M195 560l35 130h95l-70 -130h-60zM295 245h-70q-38 0 -64 -19.5t-26 -75.5q0 -30 7 -49.5t19 -30.5t28.5 -15.5t35.5 -4.5t39 6t31 14v175zM195 -10q-34 0 -61.5 6.5t-47 24.5t-30.5 49t-11 80q0 47 11 77t30.5 47.5t47 24t61.5 6.5q23 0 50 -3t50 -7v45q0 34 -7.5 55.5 t-21.5 33.5t-34.5 16.5t-46.5 4.5h-100v40q23 8 56.5 14t63.5 6q45 0 78.5 -7t56 -25.5t34 -52t11.5 -85.5v-340h-75l-5 30h-5q-19 -19 -47 -29.5t-58 -10.5z" />
<glyph unicode="&#xe2;" d="M110 550l75 130h95l75 -130h-60l-63 74l-62 -74h-60zM295 245h-70q-38 0 -64 -19.5t-26 -75.5q0 -30 7 -49.5t19 -30.5t28.5 -15.5t35.5 -4.5t39 6t31 14v175zM195 -10q-34 0 -61.5 6.5t-47 24.5t-30.5 49t-11 80q0 47 11 77t30.5 47.5t47 24t61.5 6.5q23 0 50 -3t50 -7 v45q0 34 -7.5 55.5t-21.5 33.5t-34.5 16.5t-46.5 4.5h-100v40q23 8 56.5 14t63.5 6q45 0 78.5 -7t56 -25.5t34 -52t11.5 -85.5v-340h-75l-5 30h-5q-19 -19 -47 -29.5t-58 -10.5z" />
<glyph unicode="&#xe3;" d="M295 245h-70q-38 0 -64 -19.5t-26 -75.5q0 -30 7 -49.5t19 -30.5t28.5 -15.5t35.5 -4.5t39 6t31 14v175zM195 -10q-34 0 -61.5 6.5t-47 24.5t-30.5 49t-11 80q0 47 11 77t30.5 47.5t47 24t61.5 6.5q23 0 50 -3t50 -7v45q0 34 -7.5 55.5t-21.5 33.5t-34.5 16.5t-46.5 4.5 h-100v40q23 8 56.5 14t63.5 6q45 0 78.5 -7t56 -25.5t34 -52t11.5 -85.5v-340h-75l-5 30h-5q-19 -19 -47 -29.5t-58 -10.5zM300 580q0 45 -25 45q-9 0 -17.5 -9.5t-18 -20.5t-22.5 -20.5t-32 -9.5q-38 0 -56.5 24t-18.5 81h50q0 -45 25 -45q9 0 17.5 9.5t18 20.5t22.5 20.5 t32 9.5q38 0 56.5 -24t18.5 -81h-50z" />
<glyph unicode="&#xe4;" d="M195 680v-110h-90v110h90zM355 680v-110h-90v110h90zM295 245h-70q-38 0 -64 -19.5t-26 -75.5q0 -30 7 -49.5t19 -30.5t28.5 -15.5t35.5 -4.5t39 6t31 14v175zM195 -10q-34 0 -61.5 6.5t-47 24.5t-30.5 49t-11 80q0 47 11 77t30.5 47.5t47 24t61.5 6.5q23 0 50 -3t50 -7 v45q0 34 -7.5 55.5t-21.5 33.5t-34.5 16.5t-46.5 4.5h-100v40q23 8 56.5 14t63.5 6q45 0 78.5 -7t56 -25.5t34 -52t11.5 -85.5v-340h-75l-5 30h-5q-19 -19 -47 -29.5t-58 -10.5z" />
<glyph unicode="&#xe5;" d="M295 245h-70q-38 0 -64 -19.5t-26 -75.5q0 -30 7 -49.5t19 -30.5t28.5 -15.5t35.5 -4.5t39 6t31 14v175zM195 -10q-34 0 -61.5 6.5t-47 24.5t-30.5 49t-11 80q0 47 11 77t30.5 47.5t47 24t61.5 6.5q23 0 50 -3t50 -7v45q0 34 -7.5 55.5t-21.5 33.5t-34.5 16.5t-46.5 4.5 h-100v40q23 8 56.5 14t63.5 6q45 0 78.5 -7t56 -25.5t34 -52t11.5 -85.5v-340h-75l-5 30h-5q-19 -19 -47 -29.5t-58 -10.5zM265 620q0 19 -10 27t-25 8t-25 -8t-10 -27t10 -27t25 -8t25 8t10 27zM315 620q0 -38 -23.5 -59t-61.5 -21t-61.5 21t-23.5 59t23.5 59t61.5 21 t61.5 -21t23.5 -59z" />
<glyph unicode="&#xe6;" horiz-adv-x="690" d="M295 225h-70q-19 0 -35.5 -4t-28.5 -14t-19 -26.5t-7 -40.5q0 -26 7 -43.5t18 -28t25.5 -14.5t29.5 -4q19 0 33.5 4.5t25.5 10.5q12 6 21 15v145zM555 285q0 49 -7 81.5t-18.5 52t-27 28t-32.5 8.5t-32 -8t-26.5 -27t-18.5 -50.5t-8 -79.5v-5h170zM295 340 q0 34 -7.5 55.5t-21.5 33.5t-34.5 16.5t-46.5 4.5h-100v40q23 8 56.5 14t63.5 6q45 0 83 -18t57 -52q19 34 51 52t74 18q43 0 76 -12.5t55 -42t33 -78.5t11 -122v-30h-260v-15q1 -46 9 -76.5t25 -49t43 -26.5t63 -8h100v-40q-23 -8 -56.5 -14t-63.5 -6q-60 0 -97 16t-63 54 q-23 -34 -60 -52t-90 -18q-34 0 -61.5 6.5t-47 23.5t-30.5 46t-11 74q0 43 11 71t30.5 44.5t47 23t61.5 6.5q23 0 50 -3t50 -7v65z" />
<glyph unicode="&#xe7;" horiz-adv-x="375" d="M245 -25q42 0 63.5 -20t21.5 -50t-23 -50t-72 -20q-17 0 -30.5 2t-23.5 5q-11 4 -21 8v30h65q23 0 31.5 7t8.5 18q0 25 -30 25h-55v66q-35 6 -60.5 23t-42 47.5t-24.5 75.5t-8 108q0 75 11.5 125t34.5 80t57.5 42.5t81.5 12.5q30 0 63.5 -6t56.5 -14v-40h-100 q-28 0 -49.5 -9t-36 -31.5t-22 -61t-7.5 -98.5t7.5 -99t23 -61.5t39 -31t55.5 -8.5h100v-40q-23 -8 -56.5 -14t-63.5 -6h-10v-15h15z" />
<glyph unicode="&#xe8;" horiz-adv-x="440" d="M395 220h-260q0 -49 8 -81.5t24.5 -52t43 -28t64.5 -8.5h100v-40q-23 -8 -56.5 -14t-63.5 -6q-56 0 -96 12.5t-65.5 42.5t-37 80t-11.5 125t11 125t33 80t55 42.5t76 12.5t76 -12.5t55 -42.5t33 -80t11 -125v-30zM305 280q0 51 -7 84.5t-18.5 53.5t-27 28.5t-32.5 8.5 t-32.5 -8.5t-27 -28.5t-18.5 -53.5t-7 -84.5h170zM195 560l-70 130h95l35 -130h-60z" />
<glyph unicode="&#xe9;" horiz-adv-x="440" d="M395 220h-260q0 -49 8 -81.5t24.5 -52t43 -28t64.5 -8.5h100v-40q-23 -8 -56.5 -14t-63.5 -6q-56 0 -96 12.5t-65.5 42.5t-37 80t-11.5 125t11 125t33 80t55 42.5t76 12.5t76 -12.5t55 -42.5t33 -80t11 -125v-30zM305 280q0 51 -7 84.5t-18.5 53.5t-27 28.5t-32.5 8.5 t-32.5 -8.5t-27 -28.5t-18.5 -53.5t-7 -84.5h170zM185 560l35 130h95l-70 -130h-60z" />
<glyph unicode="&#xea;" horiz-adv-x="440" d="M395 220h-260q0 -49 8 -81.5t24.5 -52t43 -28t64.5 -8.5h100v-40q-23 -8 -56.5 -14t-63.5 -6q-56 0 -96 12.5t-65.5 42.5t-37 80t-11.5 125t11 125t33 80t55 42.5t76 12.5t76 -12.5t55 -42.5t33 -80t11 -125v-30zM305 280q0 51 -7 84.5t-18.5 53.5t-27 28.5t-32.5 8.5 t-32.5 -8.5t-27 -28.5t-18.5 -53.5t-7 -84.5h170zM100 550l75 130h95l75 -130h-60l-63 74l-62 -74h-60z" />
<glyph unicode="&#xeb;" horiz-adv-x="440" d="M395 220h-260q0 -49 8 -81.5t24.5 -52t43 -28t64.5 -8.5h100v-40q-23 -8 -56.5 -14t-63.5 -6q-56 0 -96 12.5t-65.5 42.5t-37 80t-11.5 125t11 125t33 80t55 42.5t76 12.5t76 -12.5t55 -42.5t33 -80t11 -125v-30zM305 280q0 51 -7 84.5t-18.5 53.5t-27 28.5t-32.5 8.5 t-32.5 -8.5t-27 -28.5t-18.5 -53.5t-7 -84.5h170zM185 680v-110h-90v110h90zM345 680v-110h-90v110h90z" />
<glyph unicode="&#xec;" horiz-adv-x="230" d="M160 0h-90v500h90v-500zM85 560l-70 130h95l35 -130h-60z" />
<glyph unicode="&#xed;" horiz-adv-x="230" d="M70 500h90v-500h-90v500zM85 560l35 130h95l-70 -130h-60z" />
<glyph unicode="&#xee;" horiz-adv-x="215" d="M63 500h90v-500h-90v500zM-15 550l75 130h95l75 -130h-60l-63 74l-62 -74h-60z" />
<glyph unicode="&#xef;" horiz-adv-x="230" d="M160 0h-90v500h90v-500zM80 680v-110h-90v110h90zM240 680v-110h-90v110h90z" />
<glyph unicode="&#xf0;" horiz-adv-x="455" d="M333 603q77 -86 77 -243v-145q0 -62 -11.5 -105t-34.5 -69.5t-57.5 -38.5t-81.5 -12t-81.5 12t-57.5 38.5t-34.5 69.5t-11.5 105t11 105t33 69.5t55 38.5t76 12q34 0 58 -7t47 -18q0 75 -35 130l-50 -60l-45 35l58 69q-62 54 -173 81l5 40q131 -12 211 -69l54 64l45 -35z M320 360q-11 8 -31.5 14t-43.5 6q-28 0 -49.5 -8t-36 -27.5t-22 -51t-7.5 -78.5q0 -49 7 -81.5t20 -52t30 -28t38 -8.5t38 8.5t30 28t20 52t7 81.5v145z" />
<glyph unicode="&#xf1;" horiz-adv-x="475" d="M155 0h-90v500h75l5 -30h5q19 19 47 29.5t58 10.5q36 0 64.5 -6.5t48.5 -23.5t31 -46t11 -74v-360h-90v360q0 26 -7 43.5t-20 28t-30 14.5t-38 4q-19 0 -39 -6t-31 -14v-430zM310 580q0 45 -25 45q-9 0 -17.5 -9.5t-18 -20.5t-22.5 -20.5t-32 -9.5q-38 0 -56.5 24 t-18.5 81h50q0 -45 25 -45q9 0 17.5 9.5t18 20.5t22.5 20.5t32 9.5q38 0 56.5 -24t18.5 -81h-50z" />
<glyph unicode="&#xf2;" horiz-adv-x="470" d="M330 250q0 60 -8 99.5t-21 63t-30 33t-36 9.5t-36 -9.5t-30 -33t-21 -63t-8 -99.5t8 -99.5t21 -63t30 -33t36 -9.5t36 9.5t30 33t21 63t8 99.5zM420 250q0 -73 -12 -123t-35.5 -80.5t-58 -43.5t-79.5 -13t-79.5 13t-58 43.5t-35.5 80.5t-12 123t12 123t35.5 80.5t58 43.5 t79.5 13t79.5 -13t58 -43.5t35.5 -80.5t12 -123zM210 560l-70 130h95l35 -130h-60z" />
<glyph unicode="&#xf3;" horiz-adv-x="470" d="M140 250q0 -60 8 -99.5t21 -63t30 -33t36 -9.5t36 9.5t30 33t21 63t8 99.5t-8 99.5t-21 63t-30 33t-36 9.5t-36 -9.5t-30 -33t-21 -63t-8 -99.5zM50 250q0 73 12 123t35.5 80.5t58 43.5t79.5 13t79.5 -13t58 -43.5t35.5 -80.5t12 -123t-12 -123t-35.5 -80.5t-58 -43.5 t-79.5 -13t-79.5 13t-58 43.5t-35.5 80.5t-12 123zM200 560l35 130h95l-70 -130h-60z" />
<glyph unicode="&#xf4;" horiz-adv-x="460" d="M135 250q0 -60 8 -99.5t21 -63t30 -33t36 -9.5t36 9.5t30 33t21 63t8 99.5t-8 99.5t-21 63t-30 33t-36 9.5t-36 -9.5t-30 -33t-21 -63t-8 -99.5zM45 250q0 73 12 123t35.5 80.5t58 43.5t79.5 13t79.5 -13t58 -43.5t35.5 -80.5t12 -123t-12 -123t-35.5 -80.5t-58 -43.5 t-79.5 -13t-79.5 13t-58 43.5t-35.5 80.5t-12 123zM108 550l75 130h95l75 -130h-60l-63 74l-62 -74h-60z" />
<glyph unicode="&#xf5;" horiz-adv-x="470" d="M330 250q0 60 -8 99.5t-21 63t-30 33t-36 9.5t-36 -9.5t-30 -33t-21 -63t-8 -99.5t8 -99.5t21 -63t30 -33t36 -9.5t36 9.5t30 33t21 63t8 99.5zM420 250q0 -73 -12 -123t-35.5 -80.5t-58 -43.5t-79.5 -13t-79.5 13t-58 43.5t-35.5 80.5t-12 123t12 123t35.5 80.5t58 43.5 t79.5 13t79.5 -13t58 -43.5t35.5 -80.5t12 -123zM305 580q0 45 -25 45q-9 0 -17.5 -9.5t-18 -20.5t-22.5 -20.5t-32 -9.5q-38 0 -56.5 24t-18.5 81h50q0 -45 25 -45q9 0 17.5 9.5t18 20.5t22.5 20.5t32 9.5q38 0 56.5 -24t18.5 -81h-50z" />
<glyph unicode="&#xf6;" horiz-adv-x="470" d="M330 250q0 60 -8 99.5t-21 63t-30 33t-36 9.5t-36 -9.5t-30 -33t-21 -63t-8 -99.5t8 -99.5t21 -63t30 -33t36 -9.5t36 9.5t30 33t21 63t8 99.5zM420 250q0 -73 -12 -123t-35.5 -80.5t-58 -43.5t-79.5 -13t-79.5 13t-58 43.5t-35.5 80.5t-12 123t12 123t35.5 80.5t58 43.5 t79.5 13t79.5 -13t58 -43.5t35.5 -80.5t12 -123zM200 680v-110h-90v110h90zM360 680v-110h-90v110h90z" />
<glyph unicode="&#xf7;" horiz-adv-x="430" d="M30 340h370v-80h-370v80zM255 185v-90h-80v90h80zM255 505v-90h-80v90h80z" />
<glyph unicode="&#xf8;" horiz-adv-x="480" d="M425 250q0 -73 -12 -123t-35.5 -80.5t-58 -43.5t-79.5 -13q-48 0 -84 15t-59 50l-32 -35l-35 40l43 47q-18 55 -18 143q0 73 12 123t35.5 80.5t58 43.5t79.5 13q48 0 84 -15t59 -50l32 35l35 -40l-43 -47q8 -28 13 -63t5 -80zM335 250q0 34 -3 61l-173 -188 q13 -45 34.5 -61.5t46.5 -16.5q19 0 36 9.5t30 33t21 63t8 99.5zM145 250q0 -17 0.5 -32.5t1.5 -29.5l173 189q-13 44 -34 61t-46 17q-19 0 -36 -9.5t-30 -33t-21 -63t-8 -99.5z" />
<glyph unicode="&#xf9;" horiz-adv-x="475" d="M320 500h90v-500h-75l-5 30h-5q-19 -19 -47 -29.5t-58 -10.5q-36 0 -64.5 6.5t-48.5 23.5t-31 46t-11 74v360h90v-360q0 -26 7 -43.5t20 -28t30 -14.5t38 -4q19 0 39 6t31 14v430zM215 560l-70 130h95l35 -130h-60z" />
<glyph unicode="&#xfa;" horiz-adv-x="475" d="M320 500h90v-500h-75l-5 30h-5q-19 -19 -47 -29.5t-58 -10.5q-36 0 -64.5 6.5t-48.5 23.5t-31 46t-11 74v360h90v-360q0 -26 7 -43.5t20 -28t30 -14.5t38 -4q19 0 39 6t31 14v430zM205 560l35 130h95l-70 -130h-60z" />
<glyph unicode="&#xfb;" horiz-adv-x="475" d="M320 500h90v-500h-75l-5 30h-5q-19 -19 -47 -29.5t-58 -10.5q-36 0 -64.5 6.5t-48.5 23.5t-31 46t-11 74v360h90v-360q0 -26 7 -43.5t20 -28t30 -14.5t38 -4q19 0 39 6t31 14v430zM117 550l75 130h95l75 -130h-60l-63 74l-62 -74h-60z" />
<glyph unicode="&#xfc;" horiz-adv-x="475" d="M320 500h90v-500h-75l-5 30h-5q-19 -19 -47 -29.5t-58 -10.5q-36 0 -64.5 6.5t-48.5 23.5t-31 46t-11 74v360h90v-360q0 -26 7 -43.5t20 -28t30 -14.5t38 -4q19 0 39 6t31 14v430zM205 680v-110h-90v110h90zM365 680v-110h-90v110h90z" />
<glyph unicode="&#xfd;" horiz-adv-x="475" d="M220 -10q-36 0 -64.5 6.5t-48.5 23.5t-31 46t-11 74v360h90v-360q0 -26 7 -43.5t20 -28t30 -14.5t38 -4q19 0 39 6t31 14v430h90v-460q0 -71 -11.5 -119t-36 -77t-62.5 -41.5t-90 -12.5q-30 0 -63.5 6t-56.5 14v40h100q34 0 58.5 8t40.5 27.5t23.5 51t7.5 78.5 q-23 -11 -46.5 -18t-53.5 -7zM205 560l35 130h95l-70 -130h-60z" />
<glyph unicode="&#xfe;" horiz-adv-x="470" d="M160 700v-215q23 11 46.5 18t53.5 7q39 0 70 -12.5t52 -42.5t32 -80t11 -125t-11 -125t-32 -80t-52 -42.5t-70 -12.5q-30 0 -53.5 7t-46.5 18v-215h-90v900h90zM335 250q0 60 -7.5 98.5t-21 61t-33 31.5t-43.5 9q-19 0 -39 -6t-31 -14v-360q11 -8 31 -14t39 -6 q24 0 43.5 8.5t33 31t21 61.5t7.5 99z" />
<glyph unicode="&#xff;" horiz-adv-x="475" d="M220 -10q-36 0 -64.5 6.5t-48.5 23.5t-31 46t-11 74v360h90v-360q0 -26 7 -43.5t20 -28t30 -14.5t38 -4q19 0 39 6t31 14v430h90v-460q0 -71 -11.5 -119t-36 -77t-62.5 -41.5t-90 -12.5q-30 0 -63.5 6t-56.5 14v40h100q34 0 58.5 8t40.5 27.5t23.5 51t7.5 78.5 q-23 -11 -46.5 -18t-53.5 -7zM205 680v-110h-90v110h90zM365 680v-110h-90v110h90z" />
<glyph unicode="&#x100;" horiz-adv-x="510" d="M155 180l-45 -180h-90l170 700h130l170 -700h-90l-45 180h-200zM257 600h-4l-83 -350h170zM140 830h230v-60h-230v60z" />
<glyph unicode="&#x101;" d="M120 640h230v-60h-230v60zM295 245h-70q-38 0 -64 -19.5t-26 -75.5q0 -30 7 -49.5t19 -30.5t28.5 -15.5t35.5 -4.5t39 6t31 14v175zM195 -10q-34 0 -61.5 6.5t-47 24.5t-30.5 49t-11 80q0 47 11 77t30.5 47.5t47 24t61.5 6.5q23 0 50 -3t50 -7v45q0 34 -7.5 55.5 t-21.5 33.5t-34.5 16.5t-46.5 4.5h-100v40q23 8 56.5 14t63.5 6q45 0 78.5 -7t56 -25.5t34 -52t11.5 -85.5v-340h-75l-5 30h-5q-19 -19 -47 -29.5t-58 -10.5z" />
<glyph unicode="&#x104;" horiz-adv-x="510" d="M355 180h-200l-45 -180h-90l170 700h130l170 -700h-40v-45q0 -34 13 -46.5t47 -12.5h35v-41q-10 -4 -21 -8q-10 -3 -23.5 -5t-30.5 -2q-42 0 -63.5 21t-21.5 59q0 17 3.5 31.5t8.5 25.5q5 12 13 23h-10zM257 600h-4l-83 -350h170z" />
<glyph unicode="&#x105;" d="M195 -10q-34 0 -61.5 6.5t-47 24.5t-30.5 49t-11 80q0 47 11 77t30.5 47.5t47 24t61.5 6.5q23 0 50 -3t50 -7v45q0 34 -7.5 55.5t-21.5 33.5t-34.5 16.5t-46.5 4.5h-100v40q23 8 56.5 14t63.5 6q45 0 78.5 -7t56 -25.5t34 -52t11.5 -85.5v-340h-25v-45q0 -34 13 -46.5 t47 -12.5h35v-41q-10 -4 -21 -8q-10 -3 -23.5 -5t-30.5 -2q-42 0 -63.5 21t-21.5 59q0 17 3.5 31.5t8.5 25.5q5 12 13 23h-10l-5 30h-5q-19 -19 -47 -29.5t-58 -10.5zM295 245h-70q-38 0 -64 -19.5t-26 -75.5q0 -30 7 -49.5t19 -30.5t28.5 -15.5t35.5 -4.5t39 6t31 14v175z " />
<glyph unicode="&#x106;" horiz-adv-x="435" d="M270 -10q-53 0 -93.5 17t-69 58t-43 110.5t-14.5 174.5t14.5 174.5t41.5 110.5t66 58t88 17q45 0 86 -6t64 -14v-45h-130q-30 0 -55.5 -13t-44.5 -46.5t-29.5 -90.5t-10.5 -145t11 -145t30.5 -90.5t47 -46.5t61.5 -13h130v-45q-23 -8 -64 -14t-86 -6zM230 750l35 130h95 l-70 -130h-60z" />
<glyph unicode="&#x107;" horiz-adv-x="375" d="M250 450q-28 0 -49.5 -9t-36 -31.5t-22 -61t-7.5 -98.5t7.5 -99t23 -61.5t39 -31t55.5 -8.5h100v-40q-23 -8 -56.5 -14t-63.5 -6q-51 0 -87.5 12.5t-60.5 42.5t-35.5 80t-11.5 125t11.5 125t34.5 80t57.5 42.5t81.5 12.5q30 0 63.5 -6t56.5 -14v-40h-100zM190 560l35 130 h95l-70 -130h-60z" />
<glyph unicode="&#x10c;" horiz-adv-x="435" d="M270 -10q-53 0 -93.5 17t-69 58t-43 110.5t-14.5 174.5t14.5 174.5t41.5 110.5t66 58t88 17q45 0 86 -6t64 -14v-45h-130q-30 0 -55.5 -13t-44.5 -46.5t-29.5 -90.5t-10.5 -145t11 -145t30.5 -90.5t47 -46.5t61.5 -13h130v-45q-23 -8 -64 -14t-86 -6zM193 890l62 -74 l63 74h60l-75 -130h-95l-75 130h60z" />
<glyph unicode="&#x10d;" horiz-adv-x="375" d="M250 450q-28 0 -49.5 -9t-36 -31.5t-22 -61t-7.5 -98.5t7.5 -99t23 -61.5t39 -31t55.5 -8.5h100v-40q-23 -8 -56.5 -14t-63.5 -6q-51 0 -87.5 12.5t-60.5 42.5t-35.5 80t-11.5 125t11.5 125t34.5 80t57.5 42.5t81.5 12.5q30 0 63.5 -6t56.5 -14v-40h-100zM155 690l62 -74 l63 74h60l-75 -130h-95l-75 130h60z" />
<glyph unicode="&#x112;" d="M160 70h250v-70h-340v700h340v-70h-250v-230h220v-70h-220v-260zM124 830h230v-60h-230v60z" />
<glyph unicode="&#x113;" horiz-adv-x="440" d="M395 220h-260q0 -49 8 -81.5t24.5 -52t43 -28t64.5 -8.5h100v-40q-23 -8 -56.5 -14t-63.5 -6q-56 0 -96 12.5t-65.5 42.5t-37 80t-11.5 125t11 125t33 80t55 42.5t76 12.5t76 -12.5t55 -42.5t33 -80t11 -125v-30zM305 280q0 51 -7 84.5t-18.5 53.5t-27 28.5t-32.5 8.5 t-32.5 -8.5t-27 -28.5t-18.5 -53.5t-7 -84.5h170zM110 640h230v-60h-230v60z" />
<glyph unicode="&#x116;" d="M160 70h250v-70h-340v700h340v-70h-250v-230h220v-70h-220v-260zM290 880v-110h-90v110h90z" />
<glyph unicode="&#x117;" horiz-adv-x="440" d="M395 220h-260q0 -49 8 -81.5t24.5 -52t43 -28t64.5 -8.5h100v-40q-23 -8 -56.5 -14t-63.5 -6q-56 0 -96 12.5t-65.5 42.5t-37 80t-11.5 125t11 125t33 80t55 42.5t76 12.5t76 -12.5t55 -42.5t33 -80t11 -125v-30zM305 280q0 51 -7 84.5t-18.5 53.5t-27 28.5t-32.5 8.5 t-32.5 -8.5t-27 -28.5t-18.5 -53.5t-7 -84.5h170zM265 680v-110h-90v110h90z" />
<glyph unicode="&#x118;" d="M70 0v700h340v-70h-250v-230h220v-70h-220v-260h250v-70h-45v-45q0 -34 13 -46.5t47 -12.5h35v-41q-10 -4 -21 -8q-10 -3 -23.5 -5t-30.5 -2q-42 0 -63.5 21t-21.5 59q0 17 3.5 31.5t8.5 25.5q5 12 13 23h-255z" />
<glyph unicode="&#x119;" horiz-adv-x="440" d="M395 220h-260q0 -49 8 -81.5t24.5 -52t43 -28t64.5 -8.5h100v-40q-23 -8 -56.5 -14t-63.5 -6v-35q0 -34 13 -46.5t47 -12.5h35v-41q-10 -4 -21 -8q-10 -3 -23.5 -5t-30.5 -2q-42 0 -63.5 21t-21.5 59q0 25 7.5 44t12.5 29q-44 4 -75 19.5t-51 46t-29.5 77.5t-9.5 114 q0 75 11 125t33 80t55 42.5t76 12.5t76 -12.5t55 -42.5t33 -80t11 -125v-30zM305 280q0 51 -7 84.5t-18.5 53.5t-27 28.5t-32.5 8.5t-32.5 -8.5t-27 -28.5t-18.5 -53.5t-7 -84.5h170z" />
<glyph unicode="&#x11e;" horiz-adv-x="505" d="M440 10q-23 -8 -64 -14t-86 -6q-60 0 -105 17t-75 58t-45 110.5t-15 174.5t14.5 174.5t43 110.5t69 58t93.5 17q45 0 86 -6t64 -14v-45h-130q-34 0 -61.5 -13t-47 -46.5t-30.5 -90.5t-11 -145t11 -145t32.5 -90.5t53.5 -46.5t73 -13h40v325h90v-370zM270 830 q34 0 59.5 15t40.5 30l40 -40q-19 -34 -55 -54.5t-85 -20.5t-85 20.5t-55 54.5l40 40q15 -15 40.5 -30t59.5 -15z" />
<glyph unicode="&#x11f;" horiz-adv-x="465" d="M310 15q-23 -11 -46.5 -18t-53.5 -7q-39 0 -70 12.5t-52 42.5t-32 80t-11 125t11.5 125t35.5 80t60.5 42.5t87.5 12.5q45 0 83.5 -7.5t76.5 -22.5v-440q0 -71 -11.5 -119t-36 -77t-62.5 -41.5t-90 -12.5q-30 0 -63.5 6t-56.5 14v40h100q34 0 58.5 8t40.5 27.5t23.5 51 t7.5 78.5zM310 450h-70q-24 0 -43.5 -9t-33 -31.5t-21 -61t-7.5 -98.5t7.5 -99t21 -61.5t33 -31t43.5 -8.5q19 0 39 6t31 14v380zM230 640q30 0 55 12.5t40 27.5l40 -40q-19 -30 -52.5 -50t-82.5 -20t-82.5 20t-52.5 50l40 40q15 -15 40 -27.5t55 -12.5z" />
<glyph unicode="&#x122;" horiz-adv-x="500" d="M230 -70h90l-30 -150h-60v150zM440 10q-23 -8 -64 -14t-86 -6q-60 0 -105 17t-75 58t-45 110.5t-15 174.5t14.5 174.5t43 110.5t69 58t93.5 17q45 0 86 -6t64 -14v-45h-130q-34 0 -61.5 -13t-47 -46.5t-30.5 -90.5t-11 -145t11 -145t32.5 -90.5t53.5 -46.5t73 -13h40v325 h90v-370z" />
<glyph unicode="&#x123;" horiz-adv-x="465" d="M280 570h-90l30 150h60v-150zM310 15q-23 -11 -46.5 -18t-53.5 -7q-39 0 -70 12.5t-52 42.5t-32 80t-11 125t11.5 125t35.5 80t60.5 42.5t87.5 12.5q45 0 83.5 -7.5t76.5 -22.5v-440q0 -71 -11.5 -119t-36 -77t-62.5 -41.5t-90 -12.5q-30 0 -63.5 6t-56.5 14v40h100 q34 0 58.5 8t40.5 27.5t23.5 51t7.5 78.5zM310 450h-70q-24 0 -43.5 -9t-33 -31.5t-21 -61t-7.5 -98.5t7.5 -99t21 -61.5t33 -31t43.5 -8.5q19 0 39 6t31 14v380z" />
<glyph unicode="&#x127;" horiz-adv-x="490" d="M170 545v-90q23 11 49.5 18t60.5 7q32 0 58.5 -6.5t46 -23.5t30 -46t10.5 -74v-330h-90v330q0 26 -7 43.5t-20 28t-30 14.5t-38 4q-19 0 -39 -6t-31 -14v-400h-90v545h-60v65h60v90h90v-90h140v-45q-23 -8 -56.5 -14t-63.5 -6h-20z" />
<glyph unicode="&#x128;" horiz-adv-x="230" d="M160 700v-700h-90v700h90zM185 765q0 45 -25 45q-9 0 -17.5 -9.5t-18 -20.5t-22.5 -20.5t-32 -9.5q-38 0 -56.5 24t-18.5 81h50q0 -45 25 -45q9 0 17.5 9.5t18 20.5t22.5 20.5t32 9.5q38 0 56.5 -24t18.5 -81h-50z" />
<glyph unicode="&#x129;" horiz-adv-x="230" d="M160 0h-90v500h90v-500zM180 580q0 45 -25 45q-9 0 -17.5 -9.5t-18 -20.5t-22.5 -20.5t-32 -9.5q-38 0 -56.5 24t-18.5 81h50q0 -45 25 -45q9 0 17.5 9.5t18 20.5t22.5 20.5t32 9.5q38 0 56.5 -24t18.5 -81h-50z" />
<glyph unicode="&#x12a;" horiz-adv-x="220" d="M155 700v-700h-90v700h90zM-5 820h230v-60h-230v60z" />
<glyph unicode="&#x12b;" horiz-adv-x="230" d="M160 0h-90v500h90v-500zM0 640h230v-60h-230v60z" />
<glyph unicode="&#x12e;" horiz-adv-x="220" d="M65 700h90v-700h-40v-45q0 -34 13 -46.5t47 -12.5h35v-41q-10 -4 -21 -8q-10 -3 -23.5 -5t-30.5 -2q-42 0 -63.5 21t-21.5 59q0 17 3.5 31.5t8.5 25.5q5 12 13 23h-10v700z" />
<glyph unicode="&#x12f;" horiz-adv-x="220" d="M65 500h90v-500h-40v-45q0 -34 13 -46.5t47 -12.5h35v-41q-10 -4 -21 -8q-10 -3 -23.5 -5t-30.5 -2q-42 0 -63.5 21t-21.5 59q0 17 3.5 31.5t8.5 25.5q5 12 13 23h-10v500zM155 680v-120h-90v120h90z" />
<glyph unicode="&#x130;" horiz-adv-x="230" d="M160 700v-700h-90v700h90zM160 880v-110h-90v110h90z" />
<glyph unicode="&#x131;" horiz-adv-x="230" d="M160 0h-90v500h90v-500z" />
<glyph unicode="&#x133;" horiz-adv-x="460" d="M390 -40q0 -53 -10.5 -86t-29.5 -51.5t-44.5 -25.5t-55.5 -7q-23 0 -47 6t-43 14v40h70q11 0 23.5 4.5t23 16.5t17 33.5t6.5 55.5v475h-140v-435h-90v500h320v-540zM390 680v-110h-90v110h90zM160 680v-110h-90v110h90z" />
<glyph unicode="&#x134;" horiz-adv-x="353" d="M90 55q26 0 46.5 8.5t34.5 29.5t21.5 57t7.5 90v460h90v-460q0 -71 -11.5 -119t-36 -77t-62.5 -41.5t-90 -12.5q-23 0 -47 6t-43 14v45h90zM123 740l75 130h95l75 -130h-60l-63 74l-62 -74h-60z" />
<glyph unicode="&#x135;" horiz-adv-x="240" d="M170 -40q0 -53 -10.5 -86t-29.5 -51.5t-44.5 -25.5t-55.5 -7q-23 0 -47 6t-43 14v40h70q11 0 23.5 4.5t23 16.5t17 33.5t6.5 55.5v540h90v-540zM0 550l75 130h95l75 -130h-60l-63 74l-62 -74h-60z" />
<glyph unicode="&#x136;" horiz-adv-x="490" d="M210 -50h90l-30 -150h-60v150zM480 0h-105l-215 350v-350h-90v700h90v-340l195 340h105l-205 -345z" />
<glyph unicode="&#x137;" horiz-adv-x="435" d="M160 260v-260h-90v700h90v-430l145 230h100l-155 -235l175 -265h-100zM190 -60h90l-30 -150h-60v150z" />
<glyph unicode="&#x138;" horiz-adv-x="435" d="M160 260v-260h-90v500h90v-230l145 230h100l-155 -235l175 -265h-100z" />
<glyph unicode="&#x13b;" horiz-adv-x="420" d="M200 -60h90l-30 -150h-60v150zM160 70h250v-70h-340v700h90v-630z" />
<glyph unicode="&#x13c;" horiz-adv-x="230" d="M70 -60h90l-30 -150h-60v150zM70 700h90v-700h-90v700z" />
<glyph unicode="&#x140;" horiz-adv-x="360" d="M70 700h90v-700h-90v700zM310 405v-110h-90v110h90z" />
<glyph unicode="&#x141;" horiz-adv-x="425" d="M165 430l60 40l35 -50l-95 -65v-285h250v-70h-340v290l-50 -35l-35 50l85 60v335h90v-270z" />
<glyph unicode="&#x142;" horiz-adv-x="270" d="M85 0v290l-50 -35l-35 50l85 60v335h90v-270l60 40l35 -50l-95 -65v-355h-90z" />
<glyph unicode="&#x143;" horiz-adv-x="540" d="M240 750l35 130h95l-70 -130h-60zM160 0h-90v700h100l205 -495h5v495h90v-700h-100l-205 495h-5v-495z" />
<glyph unicode="&#x144;" horiz-adv-x="475" d="M155 0h-90v500h75l5 -30h5q19 19 47 29.5t58 10.5q36 0 64.5 -6.5t48.5 -23.5t31 -46t11 -74v-360h-90v360q0 26 -7 43.5t-20 28t-30 14.5t-38 4q-19 0 -39 -6t-31 -14v-430zM205 560l35 130h95l-70 -130h-60z" />
<glyph unicode="&#x145;" horiz-adv-x="540" d="M220 -50h90l-30 -150h-60v150zM160 0h-90v700h100l205 -495h5v495h90v-700h-100l-205 495h-5v-495z" />
<glyph unicode="&#x146;" horiz-adv-x="475" d="M195 -60h90l-30 -150h-60v150zM155 0h-90v500h75l5 -30h5q19 19 47 29.5t58 10.5q36 0 64.5 -6.5t48.5 -23.5t31 -46t11 -74v-360h-90v360q0 26 -7 43.5t-20 28t-30 14.5t-38 4q-19 0 -39 -6t-31 -14v-430z" />
<glyph unicode="&#x14c;" horiz-adv-x="530" d="M265 710q51 0 90.5 -17t67.5 -58t42.5 -110.5t14.5 -174.5t-14.5 -174.5t-42.5 -110.5t-67.5 -58t-90.5 -17t-90.5 17t-67.5 58t-42.5 110.5t-14.5 174.5t14.5 174.5t42.5 110.5t67.5 58t90.5 17zM265 50q24 0 47 13t40 47t27.5 92t10.5 148t-10.5 148t-27.5 92t-40 47 t-47 13t-47 -13t-40 -47t-27.5 -92t-10.5 -148t10.5 -148t27.5 -92t40 -47t47 -13zM150 830h230v-60h-230v60z" />
<glyph unicode="&#x14d;" horiz-adv-x="470" d="M140 250q0 -60 8 -99.5t21 -63t30 -33t36 -9.5t36 9.5t30 33t21 63t8 99.5t-8 99.5t-21 63t-30 33t-36 9.5t-36 -9.5t-30 -33t-21 -63t-8 -99.5zM50 250q0 73 12 123t35.5 80.5t58 43.5t79.5 13t79.5 -13t58 -43.5t35.5 -80.5t12 -123t-12 -123t-35.5 -80.5t-58 -43.5 t-79.5 -13t-79.5 13t-58 43.5t-35.5 80.5t-12 123zM120 640h230v-60h-230v60z" />
<glyph unicode="&#x152;" horiz-adv-x="740" d="M700 700v-70h-250v-230h220v-70h-220v-260h250v-70h-370q-71 0 -125.5 19.5t-91 61.5t-55 108.5t-18.5 160.5t18.5 160.5t55 108.5t91 61.5t125.5 19.5h370zM360 630h-30q-49 0 -86 -14t-62.5 -47t-38.5 -86.5t-13 -132.5t13 -132.5t38.5 -86.5t62.5 -47t86 -14h30v560z " />
<glyph unicode="&#x153;" horiz-adv-x="720" d="M535 -10q-34 0 -59.5 5t-46 14.5t-36 24.5t-28.5 36q-20 -38 -56.5 -59t-78.5 -21q-45 0 -79.5 13t-58 43.5t-35.5 80.5t-12 123t12 123t35.5 80.5t58 43.5t79.5 13q42 0 79 -21t56 -59q19 38 56 59t79 21q43 0 76 -12.5t55 -42.5t33 -80t11 -125v-30h-260q0 -49 8 -81.5 t24.5 -52t43 -28t64.5 -8.5h100v-40q-23 -8 -56.5 -14t-63.5 -6zM585 280q0 51 -7 84.5t-18.5 53.5t-27 28.5t-32.5 8.5t-32.5 -8.5t-27 -28.5t-18.5 -53.5t-7 -84.5h170zM230 455q-19 0 -36 -9.5t-30 -33t-21 -63t-8 -99.5t8 -99.5t21 -63t30 -33t36 -9.5t36 9.5t30 33 t21 63t8 99.5t-8 99.5t-21 63t-30 33t-36 9.5z" />
<glyph unicode="&#x154;" horiz-adv-x="505" d="M450 470q0 -51 -6.5 -88t-19 -63.5t-31.5 -43t-43 -25.5l120 -250h-100l-110 230h-100v-230h-90v690q38 11 76.5 15.5t83.5 4.5q60 0 102 -12t68 -40.5t38 -74.5t12 -113zM230 300q34 0 58.5 8.5t40.5 28t23.5 52t7.5 81.5q0 51 -7.5 84.5t-23.5 53.5t-40.5 28.5 t-58.5 8.5h-70v-345h70zM200 750l35 130h95l-70 -130h-60z" />
<glyph unicode="&#x156;" horiz-adv-x="505" d="M220 -50h90l-30 -150h-60v150zM450 470q0 -51 -6.5 -88t-19 -63.5t-31.5 -43t-43 -25.5l120 -250h-100l-110 230h-100v-230h-90v690q38 11 76.5 15.5t83.5 4.5q60 0 102 -12t68 -40.5t38 -74.5t12 -113zM230 300q34 0 58.5 8.5t40.5 28t23.5 52t7.5 81.5q0 51 -7.5 84.5 t-23.5 53.5t-40.5 28.5t-58.5 8.5h-70v-345h70z" />
<glyph unicode="&#x157;" horiz-adv-x="335" d="M65 -60h90l-30 -150h-60v150zM155 0h-90v500h76l5 -40h5q18 15 48.5 27.5t75.5 12.5h50v-75h-100q-19 0 -37 -4.5t-33 -15.5v-405z" />
<glyph unicode="&#x158;" horiz-adv-x="505" d="M450 470q0 -51 -6.5 -88t-19 -63.5t-31.5 -43t-43 -25.5l120 -250h-100l-110 230h-100v-230h-90v690q38 11 76.5 15.5t83.5 4.5q60 0 102 -12t68 -40.5t38 -74.5t12 -113zM230 300q34 0 58.5 8.5t40.5 28t23.5 52t7.5 81.5q0 51 -7.5 84.5t-23.5 53.5t-40.5 28.5 t-58.5 8.5h-70v-345h70zM168 880l62 -74l63 74h60l-75 -130h-95l-75 130h60z" />
<glyph unicode="&#x159;" horiz-adv-x="335" d="M155 0h-90v500h76l5 -40h5q18 15 48.5 27.5t75.5 12.5h50v-75h-100q-19 0 -37 -4.5t-33 -15.5v-405zM130 680l62 -74l63 74h60l-75 -130h-95l-75 130h60z" />
<glyph unicode="&#x15a;" horiz-adv-x="445" d="M35 530q0 91 46 135.5t144 44.5q45 0 86 -6t64 -14v-45h-130q-120 0 -120 -115q0 -46 21 -73t53 -45.5t68.5 -34t68.5 -39t53 -60.5t21 -98q0 -49 -12 -84.5t-38.5 -59t-69.5 -35t-105 -11.5q-45 0 -86 6t-64 14v45h130q86 0 120.5 30.5t34.5 94.5q0 44 -21 69t-53 42.5 t-68.5 33.5t-68.5 40t-53 62.5t-21 102.5zM190 760l35 130h95l-70 -130h-60z" />
<glyph unicode="&#x15b;" horiz-adv-x="395" d="M165 560l35 130h95l-70 -130h-60zM125 380q0 -30 17.5 -47.5t43.5 -30.5t56.5 -24.5t56.5 -29.5t43.5 -45.5t17.5 -72.5q0 -41 -11.5 -68t-36 -43t-62.5 -22.5t-90 -6.5q-30 0 -63.5 6t-56.5 14v40h100q68 0 99 17.5t31 62.5q0 30 -17.5 47.5t-43.5 30.5t-56.5 24.5 t-56.5 29.5t-43.5 45.5t-17.5 72.5q0 75 45 102.5t135 27.5q30 0 63.5 -6t56.5 -14v-40h-100q-53 0 -81.5 -16t-28.5 -54z" />
<glyph unicode="&#x15e;" horiz-adv-x="445" d="M250 -25q42 0 63.5 -20t21.5 -50t-23 -50t-72 -20q-17 0 -30.5 2t-23.5 5q-11 4 -21 8v30h65q23 0 31.5 7t8.5 18q0 25 -30 25h-55v60q-45 0 -86 6t-64 14v45h130q86 0 120.5 30.5t34.5 94.5q0 44 -21 69t-53 42.5t-68.5 33.5t-68.5 40t-53 62.5t-21 102.5q0 91 46 135.5 t144 44.5q45 0 86 -6t64 -14v-45h-130q-120 0 -120 -115q0 -46 21 -73t53 -45.5t68.5 -34t68.5 -39t53 -60.5t21 -98q0 -87 -40 -133t-135 -54v-18h15z" />
<glyph unicode="&#x15f;" horiz-adv-x="395" d="M230 -25q42 0 63.5 -20t21.5 -50t-23 -50t-72 -20q-17 0 -30.5 2t-23.5 5q-11 4 -21 8v30h65q23 0 31.5 7t8.5 18q0 25 -30 25h-55v60h-5q-30 0 -63.5 6t-56.5 14v40h100q68 0 99 17.5t31 62.5q0 30 -17.5 47.5t-43.5 30.5t-56.5 24.5t-56.5 29.5t-43.5 45.5t-17.5 72.5 q0 75 45 102.5t135 27.5q30 0 63.5 -6t56.5 -14v-40h-100q-53 0 -81.5 -16t-28.5 -54q0 -30 17.5 -47.5t43.5 -30.5t56.5 -24.5t56.5 -29.5t43.5 -45.5t17.5 -72.5q0 -71 -34.5 -101.5t-110.5 -36.5v-17h15z" />
<glyph unicode="&#x160;" horiz-adv-x="445" d="M35 530q0 91 46 135.5t144 44.5q45 0 86 -6t64 -14v-45h-130q-120 0 -120 -115q0 -46 21 -73t53 -45.5t68.5 -34t68.5 -39t53 -60.5t21 -98q0 -49 -12 -84.5t-38.5 -59t-69.5 -35t-105 -11.5q-45 0 -86 6t-64 14v45h130q86 0 120.5 30.5t34.5 94.5q0 44 -21 69t-53 42.5 t-68.5 33.5t-68.5 40t-53 62.5t-21 102.5zM153 890l62 -74l63 74h60l-75 -130h-95l-75 130h60z" />
<glyph unicode="&#x161;" horiz-adv-x="395" d="M128 690l62 -74l63 74h60l-75 -130h-95l-75 130h60zM125 380q0 -30 17.5 -47.5t43.5 -30.5t56.5 -24.5t56.5 -29.5t43.5 -45.5t17.5 -72.5q0 -41 -11.5 -68t-36 -43t-62.5 -22.5t-90 -6.5q-30 0 -63.5 6t-56.5 14v40h100q68 0 99 17.5t31 62.5q0 30 -17.5 47.5 t-43.5 30.5t-56.5 24.5t-56.5 29.5t-43.5 45.5t-17.5 72.5q0 75 45 102.5t135 27.5q30 0 63.5 -6t56.5 -14v-40h-100q-53 0 -81.5 -16t-28.5 -54z" />
<glyph unicode="&#x16a;" horiz-adv-x="520" d="M260 50q26 0 46.5 8.5t34.5 30t21.5 58.5t7.5 93v460h90v-460q0 -71 -11.5 -119t-36 -77t-62.5 -41.5t-90 -12.5q-53 0 -90.5 12.5t-62 41.5t-36 77t-11.5 119v460h90v-460q0 -56 7.5 -93t21.5 -58.5t34.5 -30t46.5 -8.5zM145 830h230v-60h-230v60z" />
<glyph unicode="&#x16b;" horiz-adv-x="475" d="M320 500h90v-500h-75l-5 30h-5q-19 -19 -47 -29.5t-58 -10.5q-36 0 -64.5 6.5t-48.5 23.5t-31 46t-11 74v360h90v-360q0 -26 7 -43.5t20 -28t30 -14.5t38 -4q19 0 39 6t31 14v430zM125 630h230v-60h-230v60z" />
<glyph unicode="&#x172;" horiz-adv-x="520" d="M280 -45q0 -34 13 -46.5t47 -12.5h35v-41q-10 -4 -21 -8q-10 -3 -23.5 -5t-30.5 -2q-42 0 -63.5 21t-21.5 59q0 24 7 42.5t12 28.5q-45 3 -78 17t-54.5 43t-31.5 75.5t-10 113.5v460h90v-460q0 -56 7.5 -93t21.5 -58.5t34.5 -30t46.5 -8.5t46.5 8.5t34.5 30t21.5 58.5 t7.5 93v460h90v-460q0 -68 -10.5 -114.5t-32.5 -76t-56 -43t-81 -15.5v-36z" />
<glyph unicode="&#x173;" horiz-adv-x="480" d="M335 0l-5 30h-5q-19 -19 -47 -29.5t-58 -10.5q-36 0 -64.5 6.5t-48.5 23.5t-31 46t-11 74v360h90v-360q0 -26 7 -43.5t20 -28t30 -14.5t38 -4q19 0 39 6t31 14v430h90v-500h-25v-45q0 -34 13 -46.5t47 -12.5h35v-41q-10 -4 -21 -8q-10 -3 -23.5 -5t-30.5 -2 q-42 0 -63.5 21t-21.5 59q0 17 3.5 31.5t8.5 25.5q5 12 13 23h-10z" />
<glyph unicode="&#x178;" d="M190 880v-110h-90v110h90zM350 880v-110h-90v110h90zM350 700h90l-170 -480v-220h-90v220l-170 480h90l125 -355z" />
<glyph unicode="&#x179;" horiz-adv-x="405" d="M125 70h255v-70h-360v65l260 565h-255v70h360v-65zM170 750l35 130h95l-70 -130h-60z" />
<glyph unicode="&#x17a;" horiz-adv-x="370" d="M350 440l-224 -375h219v-65h-325v60l225 375h-215v65h320v-60zM150 560l35 130h95l-70 -130h-60z" />
<glyph unicode="&#x17b;" horiz-adv-x="405" d="M125 70h255v-70h-360v65l260 565h-255v70h360v-65zM250 880v-110h-90v110h90z" />
<glyph unicode="&#x17c;" horiz-adv-x="370" d="M350 440l-224 -375h219v-65h-325v60l225 375h-215v65h320v-60zM240 680v-110h-90v110h90z" />
<glyph unicode="&#x17d;" horiz-adv-x="405" d="M125 70h255v-70h-360v65l260 565h-255v70h360v-65zM153 890l62 -74l63 74h60l-75 -130h-95l-75 130h60z" />
<glyph unicode="&#x17e;" horiz-adv-x="370" d="M350 440l-224 -375h219v-65h-325v60l225 375h-215v65h320v-60zM133 690l62 -74l63 74h60l-75 -130h-95l-75 130h60z" />
<glyph unicode="&#x192;" horiz-adv-x="330" d="M90 530q0 52 10.5 85.5t29.5 52t44.5 25.5t55.5 7q11 0 26 -1.5t30.5 -4.5t30 -6.5t23.5 -7.5v-40h-90q-11 0 -23.5 -4.5t-23 -16.5t-17 -33.5t-6.5 -55.5v-40h140v-45q-23 -8 -56.5 -14t-63.5 -6h-20v-465q0 -53 -10.5 -86t-29.5 -51.5t-44.5 -25.5t-55.5 -7 q-11 0 -26 1.5t-30.5 4.5t-30 6.5t-23.5 7.5v40h90q11 0 23.5 4.5t23 16.5t17 33.5t6.5 55.5v465h-60v65h60v40z" />
<glyph unicode="&#x2c6;" horiz-adv-x="285" d="M20 550l75 130h95l75 -130h-60l-63 74l-62 -74h-60z" />
<glyph unicode="&#x2c7;" horiz-adv-x="285" d="M80 690l62 -74l63 74h60l-75 -130h-95l-75 130h60z" />
<glyph unicode="&#x2d9;" horiz-adv-x="130" d="M110 680v-110h-90v110h90z" />
<glyph unicode="&#x2db;" horiz-adv-x="200" d="M85 0v-45q0 -34 13 -46.5t47 -12.5h35v-41q-10 -4 -21 -8q-10 -3 -23.5 -5t-30.5 -2q-42 0 -63.5 21t-21.5 59q0 17 3.5 31.5t8.5 25.5q5 12 13 23h40z" />
<glyph unicode="&#x2dc;" horiz-adv-x="280" d="M210 580q0 45 -25 45q-9 0 -16.5 -9.5t-16.5 -20.5t-21 -20.5t-31 -9.5q-42 0 -61 24t-19 81h50q0 -45 25 -45q9 0 16.5 9.5t16.5 20.5t21 20.5t31 9.5q42 0 61 -24t19 -81h-50z" />
<glyph unicode="&#x401;" d="M160 70h250v-70h-340v700h340v-70h-250v-230h220v-70h-220v-260zM200 880v-110h-90v110h90zM360 880v-110h-90v110h90z" />
<glyph unicode="&#x402;" horiz-adv-x="555" d="M420 245q0 64 -31.5 94.5t-103.5 30.5h-70v-370h-90v630h-125v70h360v-70h-145v-200q19 4 49.5 7t60.5 3q94 0 139.5 -46.5t45.5 -148.5v-85q0 -90 -36.5 -130t-103.5 -40q-15 0 -35 4.5t-35 15.5v40h50q30 0 50 25t20 85v85z" />
<glyph unicode="&#x403;" horiz-adv-x="410" d="M70 700h320v-70h-230v-630h-90v700zM190 750l35 130h95l-70 -130h-60z" />
<glyph unicode="&#x404;" horiz-adv-x="435" d="M350 325h-210q2 -79 13 -131t30 -83t46 -43.5t61 -12.5h130v-45q-23 -8 -64 -14t-86 -6q-53 0 -93.5 17t-69 58t-43 110.5t-14.5 174.5t14.5 174.5t41.5 110.5t66 58t88 17q45 0 86 -6t64 -14v-45h-130q-28 0 -53 -12.5t-43.5 -41.5t-30 -77t-13.5 -119h210v-70z" />
<glyph unicode="&#x405;" horiz-adv-x="445" d="M35 530q0 91 46 135.5t144 44.5q45 0 86 -6t64 -14v-45h-130q-120 0 -120 -115q0 -46 21 -73t53 -45.5t68.5 -34t68.5 -39t53 -60.5t21 -98q0 -49 -12 -84.5t-38.5 -59t-69.5 -35t-105 -11.5q-45 0 -86 6t-64 14v45h130q86 0 120.5 30.5t34.5 94.5q0 44 -21 69t-53 42.5 t-68.5 33.5t-68.5 40t-53 62.5t-21 102.5z" />
<glyph unicode="&#x406;" horiz-adv-x="230" d="M160 700v-700h-90v700h90z" />
<glyph unicode="&#x407;" horiz-adv-x="230" d="M160 700v-700h-90v700h90zM80 880v-110h-90v110h90zM240 880v-110h-90v110h90z" />
<glyph unicode="&#x408;" horiz-adv-x="350" d="M90 55q26 0 46.5 8.5t34.5 29.5t21.5 57t7.5 90v460h90v-460q0 -71 -11.5 -119t-36 -77t-62.5 -41.5t-90 -12.5q-23 0 -47 6t-43 14v45h90z" />
<glyph unicode="&#x409;" horiz-adv-x="790" d="M560 425q97 0 143.5 -50t46.5 -170q0 -58 -12 -99t-38 -66.5t-68 -37.5t-102 -12q-45 0 -83.5 4.5t-76.5 15.5v620h-158l-22 -420q-3 -60 -14.5 -102t-29 -68t-40 -38t-46.5 -12q-25 0 -43 5q-10 2 -17 5v45q21 0 38 8t30 27.5t21.5 51t10.5 78.5l25 490h335v-285 q19 4 48 7t52 3zM460 355v-300h70q68 0 99 33.5t31 116.5t-31 116.5t-99 33.5h-70z" />
<glyph unicode="&#x40a;" horiz-adv-x="790" d="M560 405q98 0 144 -48.5t46 -161.5q0 -54 -12 -93t-38 -64t-68 -36.5t-102 -11.5q-45 0 -83.5 4t-75.5 15l-1 -9v335h-210v-335h-90v700h90v-295h210v295h90v-305q19 4 48 7t52 3zM460 335v-280h70q68 0 99 32.5t31 107.5t-31 107.5t-99 32.5h-70z" />
<glyph unicode="&#x40b;" horiz-adv-x="560" d="M325 440q94 0 139.5 -46.5t45.5 -148.5v-245h-90v245q0 64 -31.5 94.5t-103.5 30.5h-70v-370h-90v630h-125v70h360v-70h-145v-200q19 4 49.5 7t60.5 3z" />
<glyph unicode="&#x40c;" horiz-adv-x="495" d="M220 740l35 130h95l-70 -130h-60zM285 363q19 -5 34.5 -13t28 -22t22 -35.5t15.5 -52.5l25 -130q5 -26 23.5 -45.5t56.5 -19.5v-45q-7 -3 -17 -5q-18 -5 -43 -5q-45 0 -74.5 30t-40.5 90l-25 130q-10 53 -35.5 71.5t-59.5 18.5h-35v-330h-90v700h90v-300h35q26 0 49 19 t36 71l25 100q30 120 115 120q13 0 24 -1.5t19 -3.5q10 -3 17 -5v-45q-38 0 -55 -17.5t-25 -47.5l-25 -100q-8 -31 -16.5 -52.5t-19.5 -35.5t-24 -22t-30 -13v-4z" />
<glyph unicode="&#x40e;" horiz-adv-x="460" d="M230 820q34 0 59.5 15t40.5 30l40 -40q-19 -34 -55 -54.5t-85 -20.5t-85 20.5t-55 54.5l40 40q15 -15 40.5 -30t59.5 -15zM180 -10q-23 0 -50 6t-50 14v45h70q21 0 37.5 7t30 24t23.5 45t16 69q-58 0 -94 31.5t-53 88.5l-110 380h90l110 -380q16 -55 70 -55l80 435h90 l-100 -540q-17 -90 -55 -130t-105 -40z" />
<glyph unicode="&#x40f;" horiz-adv-x="530" d="M310 0l-15 -150h-60l-15 150h-150v700h90v-630h210v630h90v-700h-150z" />
<glyph unicode="&#x410;" horiz-adv-x="510" d="M155 180l-45 -180h-90l170 700h130l170 -700h-90l-45 180h-200zM257 600h-4l-83 -350h170z" />
<glyph unicode="&#x411;" horiz-adv-x="490" d="M160 425h70q60 0 102 -12t68 -38t38 -68t12 -102q0 -58 -12 -99t-38 -66.5t-68 -37.5t-102 -12q-45 0 -83.5 4.5t-76.5 15.5v690h350v-70h-260v-205zM160 355v-300h70q68 0 99 33.5t31 116.5t-31 116.5t-99 33.5h-70z" />
<glyph unicode="&#x412;" horiz-adv-x="500" d="M350 373q60 -17 85 -66t25 -117q0 -53 -12 -90.5t-39 -62t-71 -36t-108 -11.5q-45 0 -83.5 4.5t-76.5 15.5v680q38 11 76.5 15.5t83.5 4.5q106 0 153 -45.5t47 -139.5q0 -45 -17.5 -84t-62.5 -64v-4zM160 335v-280h70q75 0 107.5 31.5t32.5 103.5q0 79 -32.5 112 t-107.5 33h-70zM220 400q120 0 120 125q0 120 -120 120h-60v-245h60z" />
<glyph unicode="&#x413;" horiz-adv-x="410" d="M70 700h320v-70h-230v-630h-90v700z" />
<glyph unicode="&#x414;" horiz-adv-x="545" d="M365 70v560h-148l-17 -355q-2 -51 -10 -89t-17 -64q-11 -30 -23 -52h215zM95 0q-8 -90 -30 -150h-55v220h50q12 22 23 52q9 26 17 64t10 89l20 425h325v-630h65v-220h-55q-23 60 -30 150h-340z" />
<glyph unicode="&#x415;" d="M160 70h250v-70h-340v700h340v-70h-250v-230h220v-70h-220v-260z" />
<glyph unicode="&#x416;" horiz-adv-x="740" d="M210 367q-17 5 -30 13t-24 22t-19.5 35.5t-16.5 52.5l-25 100q-8 30 -25 47.5t-55 17.5v45q7 2 17 5q8 2 18.5 3.5t24.5 1.5q85 0 115 -120l25 -100q13 -52 36 -71t49 -19h25v300h90v-300h25q26 0 49 19t36 71l25 100q30 120 115 120q13 0 24 -1.5t19 -3.5q10 -3 17 -5 v-45q-38 0 -55 -17.5t-25 -47.5l-25 -100q-8 -31 -16.5 -52.5t-19.5 -35.5t-24 -22t-30 -13v-4q19 -5 34.5 -13t28 -22t22 -35.5t15.5 -52.5l25 -130q5 -26 23.5 -45.5t56.5 -19.5v-45q-7 -3 -17 -5q-18 -5 -43 -5q-45 0 -74.5 30t-40.5 90l-25 130q-10 53 -35.5 71.5 t-59.5 18.5h-25v-330h-90v330h-25q-34 0 -59.5 -18.5t-35.5 -71.5l-25 -130q-23 -120 -115 -120q-25 0 -43 5q-10 2 -17 5v45q38 0 56.5 19.5t23.5 45.5l25 130q6 31 15.5 52.5t22 35.5t28 22t34.5 13v4z" />
<glyph unicode="&#x417;" horiz-adv-x="425" d="M155 55q75 0 107.5 31.5t32.5 103.5q0 75 -32.5 107.5t-107.5 32.5h-70v70h60q68 0 99 30.5t31 94.5q0 60 -31 90t-99 30h-120v45q11 4 27 7.5t34 6.5t36 4.5t33 1.5q113 0 161.5 -45.5t48.5 -139.5q0 -60 -22.5 -96t-67.5 -57v-4q60 -17 85 -65.5t25 -112.5 q0 -53 -12 -90.5t-39 -62t-71 -36t-108 -11.5q-38 0 -77.5 6t-62.5 14v45h140z" />
<glyph unicode="&#x418;" horiz-adv-x="540" d="M380 520h-5l-205 -520h-100v700h90v-520h5l200 520h105v-700h-90v520z" />
<glyph unicode="&#x419;" horiz-adv-x="540" d="M380 520h-5l-205 -520h-100v700h90v-520h5l200 520h105v-700h-90v520zM270 830q34 0 59.5 15t40.5 30l40 -40q-19 -34 -55 -54.5t-85 -20.5t-85 20.5t-55 54.5l40 40q15 -15 40.5 -30t59.5 -15z" />
<glyph unicode="&#x41a;" horiz-adv-x="495" d="M285 363q19 -5 34.5 -13t28 -22t22 -35.5t15.5 -52.5l25 -130q5 -26 23.5 -45.5t56.5 -19.5v-45q-7 -3 -17 -5q-18 -5 -43 -5q-45 0 -74.5 30t-40.5 90l-25 130q-10 53 -35.5 71.5t-59.5 18.5h-35v-330h-90v700h90v-300h35q26 0 49 19t36 71l25 100q30 120 115 120 q13 0 24 -1.5t19 -3.5q10 -3 17 -5v-45q-38 0 -55 -17.5t-25 -47.5l-25 -100q-8 -31 -16.5 -52.5t-19.5 -35.5t-24 -22t-30 -13v-4z" />
<glyph unicode="&#x41b;" horiz-adv-x="530" d="M60 -10q-25 0 -43 5q-10 2 -17 5v45q21 0 38 8t30 27.5t21.5 51t10.5 78.5l25 490h335v-700h-90v630h-158l-22 -420q-3 -60 -14.5 -102t-29 -68t-40 -38t-46.5 -12z" />
<glyph unicode="&#x41c;" horiz-adv-x="740" d="M325 90l-145 430h-5l-30 -520h-90l40 700h110l163 -480h4l163 480h110l40 -700h-90l-30 520h-5l-145 -430h-90z" />
<glyph unicode="&#x41d;" horiz-adv-x="530" d="M460 700v-700h-90v320h-210v-320h-90v700h90v-310h210v310h90z" />
<glyph unicode="&#x41e;" horiz-adv-x="530" d="M265 710q51 0 90.5 -17t67.5 -58t42.5 -110.5t14.5 -174.5t-14.5 -174.5t-42.5 -110.5t-67.5 -58t-90.5 -17t-90.5 17t-67.5 58t-42.5 110.5t-14.5 174.5t14.5 174.5t42.5 110.5t67.5 58t90.5 17zM265 50q24 0 47 13t40 47t27.5 92t10.5 148t-10.5 148t-27.5 92t-40 47 t-47 13t-47 -13t-40 -47t-27.5 -92t-10.5 -148t10.5 -148t27.5 -92t40 -47t47 -13z" />
<glyph unicode="&#x41f;" horiz-adv-x="530" d="M460 700v-700h-90v630h-210v-630h-90v700h390z" />
<glyph unicode="&#x420;" horiz-adv-x="490" d="M230 275q34 0 58.5 8.5t40.5 29.5t23.5 57t7.5 90t-7.5 90t-23.5 57t-40.5 29.5t-58.5 8.5h-70v-370h70zM160 0h-90v690q38 11 76.5 15.5t83.5 4.5q60 0 102 -12.5t68 -41.5t38 -77t12 -119q0 -73 -11.5 -122t-35 -78.5t-59 -42t-84.5 -12.5q-23 0 -52 3t-48 7v-215z" />
<glyph unicode="&#x421;" horiz-adv-x="435" d="M270 -10q-53 0 -93.5 17t-69 58t-43 110.5t-14.5 174.5t14.5 174.5t41.5 110.5t66 58t88 17q45 0 86 -6t64 -14v-45h-130q-30 0 -55.5 -13t-44.5 -46.5t-29.5 -90.5t-10.5 -145t11 -145t30.5 -90.5t47 -46.5t61.5 -13h130v-45q-23 -8 -64 -14t-86 -6z" />
<glyph unicode="&#x422;" horiz-adv-x="430" d="M10 700h410v-70h-160v-630h-90v630h-160v70z" />
<glyph unicode="&#x423;" horiz-adv-x="465" d="M176 -10q-23 0 -50 6t-50 14v45h70q20 0 36.5 6.5t29.5 23t23 44.5t19 71q-63 0 -98.5 32t-50.5 88l-105 380h90l105 -380q16 -55 72 -55l88 435h90l-109 -540q-18 -90 -55.5 -130t-104.5 -40z" />
<glyph unicode="&#x424;" horiz-adv-x="690" d="M120 350q0 -56 14 -99t38.5 -72.5t57 -45.5t70.5 -18v470q-38 -2 -70.5 -18t-57 -45.5t-38.5 -72.5t-14 -99zM390 650q62 -4 112 -25t85 -59t54 -92.5t19 -123.5t-19 -123.5t-54 -92.5t-85 -59t-112 -25v-70h-90v70q-62 4 -112 25t-85 59t-54 92.5t-19 123.5t19 123.5 t54 92.5t85 59t112 25v70h90v-70zM570 350q0 56 -14 99t-38.5 72.5t-57.5 45.5t-70 18v-470q37 2 70 18t57.5 45.5t38.5 72.5t14 99z" />
<glyph unicode="&#x425;" horiz-adv-x="460" d="M340 700h90l-135 -340l150 -360h-90l-125 300l-125 -300h-90l150 360l-135 340h90l110 -280z" />
<glyph unicode="&#x426;" horiz-adv-x="540" d="M70 0v700h90v-630h200v630h90v-630h65v-220h-55q-23 60 -30 150h-360z" />
<glyph unicode="&#x427;" horiz-adv-x="505" d="M235 260q-94 0 -139.5 46.5t-45.5 148.5v245h90v-245q0 -64 31.5 -94.5t103.5 -30.5h70v370h90v-700h-90v270q-19 -4 -49.5 -7t-60.5 -3z" />
<glyph unicode="&#x428;" horiz-adv-x="750" d="M420 70h170v630h90v-700h-610v700h90v-630h170v630h90v-630z" />
<glyph unicode="&#x429;" horiz-adv-x="770" d="M70 0v700h90v-630h170v630h90v-630h170v630h90v-630h65v-220h-55q-23 60 -30 150h-590z" />
<glyph unicode="&#x42a;" horiz-adv-x="550" d="M220 355v-300h70q68 0 99 33.5t31 116.5t-31 116.5t-99 33.5h-70zM320 425q97 0 143.5 -50t46.5 -170q0 -58 -12 -99t-38 -66.5t-68 -37.5t-102 -12q-45 0 -83.5 4.5t-76.5 15.5v620h-110v70h200v-285q19 4 48 7t52 3z" />
<glyph unicode="&#x42b;" horiz-adv-x="690" d="M620 700v-700h-90v700h90zM160 355v-300h70q64 0 94.5 33.5t30.5 116.5t-30.5 116.5t-94.5 33.5h-70zM260 425q94 0 139.5 -50t45.5 -170q0 -58 -12 -99t-37.5 -66.5t-66.5 -37.5t-99 -12q-45 0 -83.5 4.5t-76.5 15.5v690h90v-285q19 4 48 7t52 3z" />
<glyph unicode="&#x42c;" horiz-adv-x="490" d="M160 355v-300h70q68 0 99 33.5t31 116.5t-31 116.5t-99 33.5h-70zM260 425q97 0 143.5 -50t46.5 -170q0 -58 -12 -99t-38 -66.5t-68 -37.5t-102 -12q-45 0 -83.5 4.5t-76.5 15.5v690h90v-285q19 4 48 7t52 3z" />
<glyph unicode="&#x42d;" horiz-adv-x="435" d="M85 395h210q-2 71 -13.5 119t-30.5 77t-43.5 41.5t-52.5 12.5h-130v45q23 8 64 14t86 6q49 0 88 -17t66 -58t41.5 -110.5t14.5 -174.5t-14.5 -174.5t-43 -110.5t-69.5 -58t-93 -17q-45 0 -86 6t-64 14v45h130q34 0 61 12.5t46 43.5t30 83t13 131h-210v70z" />
<glyph unicode="&#x42e;" horiz-adv-x="705" d="M160 320v-320h-90v700h90v-310h75q6 92 21.5 153.5t42 98.5t63 52.5t83.5 15.5q49 0 88 -17t66 -58t41.5 -110.5t14.5 -174.5t-14.5 -174.5t-41.5 -110.5t-66 -58t-88 -17q-47 0 -83.5 15.5t-63 53.5t-42 101.5t-21.5 159.5h-75zM445 50q22 0 44 13t38.5 47t27 92 t10.5 148t-10.5 148t-27 92t-38.5 47t-44 13q-23 0 -44.5 -13t-38 -47t-27 -92t-10.5 -148t10.5 -148t27 -92t38 -47t44.5 -13z" />
<glyph unicode="&#x42f;" horiz-adv-x="500" d="M340 355v290h-70q-68 0 -99 -33t-31 -112t31 -112t99 -33h70zM185 310q-24 4 -48.5 17t-43.5 36.5t-31 57.5t-12 79q0 56 12 96t38 65.5t68 37t102 11.5q45 0 83.5 -4.5t76.5 -15.5v-690h-90v285h-40q-30 0 -56 -19t-39 -71l-20 -85q-30 -120 -115 -120q-23 0 -41 5 q-10 2 -19 5v45q38 0 55 17.5t25 47.5l20 85q11 49 30 76t45 35v4z" />
<glyph unicode="&#x430;" d="M295 245h-70q-38 0 -64 -19.5t-26 -75.5q0 -30 7 -49.5t19 -30.5t28.5 -15.5t35.5 -4.5t39 6t31 14v175zM195 -10q-34 0 -61.5 6.5t-47 24.5t-30.5 49t-11 80q0 47 11 77t30.5 47.5t47 24t61.5 6.5q23 0 50 -3t50 -7v45q0 34 -7.5 55.5t-21.5 33.5t-34.5 16.5t-46.5 4.5 h-100v40q23 8 56.5 14t63.5 6q45 0 78.5 -7t56 -25.5t34 -52t11.5 -85.5v-340h-75l-5 30h-5q-19 -19 -47 -29.5t-58 -10.5z" />
<glyph unicode="&#x431;" horiz-adv-x="475" d="M145 455q23 11 47 18t58 7q43 0 76 -12.5t55 -41t33 -75.5t11 -116t-11.5 -116t-34.5 -75.5t-57.5 -41t-81.5 -12.5t-81.5 12.5t-57.5 41t-34.5 75.5t-11.5 116v165q0 86 13 143.5t42.5 92.5t77.5 50.5t117 18.5l110 5l5 -40q-26 -11 -57 -21t-73 -14q-38 -4 -65 -15 t-45 -32t-26.5 -53.5t-8.5 -79.5zM145 235q0 -56 7 -93t20 -58.5t30 -30t38 -8.5t38 8.5t30 30t20 58.5t7 93q0 54 -7.5 90t-22 57t-36 29.5t-49.5 8.5q-23 0 -43.5 -6t-31.5 -14v-165z" />
<glyph unicode="&#x432;" d="M225 50q45 0 70 18.5t25 71.5t-25 71.5t-70 18.5h-70v-180h70zM155 450v-160h60q38 0 61.5 17.5t23.5 62.5t-23.5 62.5t-61.5 17.5h-60zM65 490q38 11 75 15.5t75 4.5q43 0 76 -6.5t55 -22.5t33 -43t11 -68q0 -24 -6 -41.5t-16 -29.5t-22.5 -19.5t-25.5 -12.5v-4 q17 -5 33 -14t29 -24t20.5 -36t7.5 -49q0 -45 -11.5 -74t-34.5 -46t-57.5 -23.5t-81.5 -6.5q-45 0 -83.5 4.5t-76.5 15.5v480z" />
<glyph unicode="&#x433;" horiz-adv-x="365" d="M355 500v-65h-200v-435h-90v500h290z" />
<glyph unicode="&#x434;" horiz-adv-x="495" d="M470 65v-210h-55q-11 30 -18.5 68.5t-11.5 76.5h-290q-4 -38 -11.5 -76.5t-18.5 -68.5h-55v210h45q11 17 26.5 51t18.5 94l15 290h295v-435h60zM202 435l-12 -225q-3 -60 -18.5 -94t-26.5 -51h175v370h-118z" />
<glyph unicode="&#x435;" horiz-adv-x="440" d="M395 220h-260q0 -49 8 -81.5t24.5 -52t43 -28t64.5 -8.5h100v-40q-23 -8 -56.5 -14t-63.5 -6q-56 0 -96 12.5t-65.5 42.5t-37 80t-11.5 125t11 125t33 80t55 42.5t76 12.5t76 -12.5t55 -42.5t33 -80t11 -125v-30zM305 280q0 51 -7 84.5t-18.5 53.5t-27 28.5t-32.5 8.5 t-32.5 -8.5t-27 -28.5t-18.5 -53.5t-7 -84.5h170z" />
<glyph unicode="&#x436;" horiz-adv-x="642" d="M276 295v205h90v-205h20q16 0 30 13t26 47l25 70q16 44 37 64.5t63 20.5q9 0 19 -1.5t18 -3.5q10 -3 18 -5v-40q-30 0 -42.5 -10t-17.5 -25l-25 -70q-16 -45 -32 -63.5t-39 -24.5v-4q27 -6 47.5 -25t33.5 -68l25 -95q4 -15 17 -25t43 -10v-40q-7 -3 -16 -5q-17 -5 -39 -5 q-42 0 -65.5 21.5t-34.5 63.5l-25 95q-17 60 -66 60h-20v-230h-90v230h-20q-23 0 -40.5 -15t-25.5 -45l-25 -95q-11 -42 -34.5 -63.5t-65.5 -21.5q-22 0 -39 5q-9 2 -16 5v40q30 0 43 10t17 25l25 95q13 49 33.5 68t47.5 25v4q-23 6 -39 24.5t-32 63.5l-25 70 q-5 15 -17.5 25t-42.5 10v40q8 2 18 5q8 2 17.5 3.5t19.5 1.5q42 0 63 -20.5t37 -64.5l25 -70q12 -34 26 -47t30 -13h20z" />
<glyph unicode="&#x437;" horiz-adv-x="380" d="M145 510q47 0 81.5 -6.5t57.5 -22.5t34.5 -43t11.5 -68q0 -24 -7 -41.5t-18 -29.5t-25.5 -19.5t-29.5 -12.5v-4q17 -5 33 -14t29 -24t20.5 -36t7.5 -49q0 -45 -11.5 -74t-36.5 -46t-64 -23.5t-93 -6.5q-30 0 -63.5 6t-56.5 14v40h120q57 0 86 18.5t29 71.5q0 52 -25.5 71 t-59.5 19h-85v60h75q34 0 59.5 17.5t25.5 62.5t-29 62.5t-86 17.5h-100v40q23 8 56.5 14t63.5 6z" />
<glyph unicode="&#x438;" horiz-adv-x="480" d="M325 350h-5l-160 -350h-95v500h90v-340h5l150 340h105v-500h-90v350z" />
<glyph unicode="&#x439;" horiz-adv-x="480" d="M325 350h-5l-160 -350h-95v500h90v-340h5l150 340h105v-500h-90v350zM235 630q30 0 55 12.5t40 27.5l40 -40q-19 -30 -52.5 -50t-82.5 -20t-82.5 20t-52.5 50l40 40q15 -15 40 -27.5t55 -12.5z" />
<glyph unicode="&#x43a;" horiz-adv-x="445" d="M269 263q27 -6 47.5 -25t33.5 -68l25 -95q4 -15 17 -25t43 -10v-40q-7 -3 -16 -5q-17 -5 -39 -5q-42 0 -65.5 21.5t-34.5 63.5l-25 95q-17 60 -66 60h-34v-230h-90v500h90v-205h34q16 0 30 13t26 47l25 70q16 44 37 64.5t63 20.5q9 0 19 -1.5t18 -3.5q10 -3 18 -5v-40 q-30 0 -42.5 -10t-17.5 -25l-25 -70q-16 -45 -32 -63.5t-39 -24.5v-4z" />
<glyph unicode="&#x43b;" horiz-adv-x="471" d="M406 500v-500h-90v435h-130l-16 -275q-5 -90 -37.5 -130t-77.5 -40q-23 0 -38.5 5t-16.5 5v40q30 0 53 28t27 92l20 340h306z" />
<glyph unicode="&#x43c;" horiz-adv-x="630" d="M317 185l118 315h105l35 -500h-85l-25 355h-5l-105 -280h-80l-105 280h-5l-25 -355h-85l35 500h105l118 -315h4z" />
<glyph unicode="&#x43d;" horiz-adv-x="475" d="M155 0h-90v500h90v-215h165v215h90v-500h-90v220h-165v-220z" />
<glyph unicode="&#x43e;" horiz-adv-x="460" d="M325 250q0 60 -8 99.5t-21 63t-30 33t-36 9.5t-36 -9.5t-30 -33t-21 -63t-8 -99.5t8 -99.5t21 -63t30 -33t36 -9.5t36 9.5t30 33t21 63t8 99.5zM415 250q0 -73 -12 -123t-35.5 -80.5t-58 -43.5t-79.5 -13t-79.5 13t-58 43.5t-35.5 80.5t-12 123t12 123t35.5 80.5t58 43.5 t79.5 13t79.5 -13t58 -43.5t35.5 -80.5t12 -123z" />
<glyph unicode="&#x43f;" horiz-adv-x="475" d="M155 0h-90v500h345v-500h-90v435h-165v-435z" />
<glyph unicode="&#x440;" horiz-adv-x="465" d="M150 470q19 19 47 29.5t58 10.5q39 0 70 -12.5t52 -42.5t32 -80t11 -125t-11 -125t-32 -80t-52 -42.5t-70 -12.5q-30 0 -53.5 7t-46.5 18v-215h-90v700h75l5 -30h5zM155 70q11 -8 31 -14t39 -6q24 0 43.5 8.5t33 31t21 61.5t7.5 99t-7.5 98.5t-21 61t-33 31.5t-43.5 9 q-19 0 -39 -6t-31 -14v-360z" />
<glyph unicode="&#x441;" horiz-adv-x="375" d="M250 450q-28 0 -49.5 -9t-36 -31.5t-22 -61t-7.5 -98.5t7.5 -99t23 -61.5t39 -31t55.5 -8.5h100v-40q-23 -8 -56.5 -14t-63.5 -6q-51 0 -87.5 12.5t-60.5 42.5t-35.5 80t-11.5 125t11.5 125t34.5 80t57.5 42.5t81.5 12.5q30 0 63.5 -6t56.5 -14v-40h-100z" />
<glyph unicode="&#x442;" horiz-adv-x="370" d="M360 500v-65h-130v-435h-90v435h-130v65h350z" />
<glyph unicode="&#x443;" horiz-adv-x="445" d="M230 -10q-49 0 -78 31.5t-42 88.5l-90 390h90l90 -390q7 -30 18 -42.5t24 -12.5l83 445h90l-95 -510q-20 -105 -59 -152.5t-106 -47.5q-23 0 -47 6t-43 14v40h70q19 0 33 5.5t25.5 21t20 43t16.5 70.5z" />
<glyph unicode="&#x444;" horiz-adv-x="600" d="M255 700h90v-195q101 -8 158 -69.5t57 -185.5t-57 -186t-158 -69v-195h-90v195q-101 7 -158 69t-57 186t57 185.5t158 69.5v195zM345 55q28 2 51 13t39.5 34t25.5 59t9 89q0 52 -9 88.5t-25.5 59.5t-39.5 34t-51 13v-390zM255 445q-28 -2 -51 -13t-39.5 -34t-25.5 -59.5 t-9 -88.5q0 -53 9 -89t25.5 -59t39.5 -34t51 -13v390z" />
<glyph unicode="&#x445;" horiz-adv-x="400" d="M291 500h90l-121 -245l125 -255h-90l-95 195l-95 -195h-90l125 255l-121 245h90l91 -185z" />
<glyph unicode="&#x446;" horiz-adv-x="490" d="M465 65v-210h-55q-11 30 -18.5 68.5t-11.5 76.5h-315v500h90v-435h160v435h90v-435h60z" />
<glyph unicode="&#x447;" horiz-adv-x="455" d="M45 500h90v-175q0 -49 27.5 -67t72.5 -18h65v260h90v-500h-90v190q-19 -4 -50 -7t-65 -3q-30 0 -55.5 6.5t-44.5 23t-29.5 44.5t-10.5 71v175z" />
<glyph unicode="&#x448;" horiz-adv-x="670" d="M65 0v500h90v-435h135v435h90v-435h135v435h90v-500h-540z" />
<glyph unicode="&#x449;" horiz-adv-x="690" d="M65 0v500h90v-435h135v435h90v-435h135v435h90v-435h60v-210h-55q-11 30 -18.5 68.5t-11.5 76.5h-515z" />
<glyph unicode="&#x44a;" horiz-adv-x="505" d="M210 305q23 4 46.5 7t53.5 3q36 0 64.5 -7t48.5 -25t31 -50t11 -83q0 -49 -11.5 -80t-34.5 -49t-57.5 -24.5t-81.5 -6.5q-45 0 -83.5 4.5t-76.5 15.5v425h-100v65h190v-195zM280 50q45 0 70 20t25 80t-25 80t-70 20h-70v-200h70z" />
<glyph unicode="&#x44b;" horiz-adv-x="630" d="M565 500v-500h-90v500h90zM225 50q42 0 66 20t24 80t-24 80t-66 20h-70v-200h70zM255 315q34 0 61.5 -7t47 -25t30.5 -50t11 -83q0 -49 -11.5 -80t-34 -49t-56 -24.5t-78.5 -6.5t-83.5 4.5t-76.5 15.5v490h90v-195q23 4 46.5 7t53.5 3z" />
<glyph unicode="&#x44c;" d="M155 305q23 4 46.5 7t53.5 3q36 0 64.5 -7t48.5 -25t31 -50t11 -83q0 -49 -11.5 -80t-34.5 -49t-57.5 -24.5t-81.5 -6.5q-45 0 -83.5 4.5t-76.5 15.5v490h90v-195zM225 50q45 0 70 20t25 80t-25 80t-70 20h-70v-200h70z" />
<glyph unicode="&#x44d;" horiz-adv-x="375" d="M85 225v65h155q-4 87 -31 123.5t-84 36.5h-100v40q23 8 56.5 14t63.5 6q47 0 81.5 -12.5t57.5 -42.5t34.5 -80t11.5 -125t-11.5 -125t-35.5 -80t-60.5 -42.5t-87.5 -12.5q-30 0 -63.5 6t-56.5 14v40h100q32 0 54.5 8.5t37.5 28.5t23 53.5t10 84.5h-155z" />
<glyph unicode="&#x44e;" horiz-adv-x="625" d="M155 500v-210h65q8 117 52.5 168.5t127.5 51.5q45 0 78.5 -13t56 -43.5t34 -80.5t11.5 -123t-11.5 -123t-34 -80.5t-56 -43.5t-78.5 -13q-83 0 -128 53t-52 177h-65v-220h-90v500h90zM400 45q19 0 35.5 9.5t28.5 33t19 63t7 99.5t-7 99.5t-19 63t-28.5 33t-35.5 9.5 t-35.5 -9.5t-28.5 -33t-19 -63t-7 -99.5t7 -99.5t19 -63t28.5 -33t35.5 -9.5z" />
<glyph unicode="&#x44f;" horiz-adv-x="445" d="M220 450q-45 0 -70 -19.5t-25 -75.5t25 -75.5t70 -19.5h70v190h-70zM156 217q-25 1 -47 11.5t-38.5 28.5t-26 43t-9.5 55q0 47 12.5 77t36.5 47.5t58.5 24t77.5 6.5q45 0 83.5 -4.5t76.5 -15.5v-490h-90v195h-34q-47 0 -66 -50l-25 -70q-16 -44 -37 -64.5t-63 -20.5 q-19 0 -37 5q-10 2 -18 5v40q30 0 42.5 10t17.5 25l25 70q12 34 26.5 48t34.5 20v4z" />
<glyph unicode="&#x451;" horiz-adv-x="440" d="M395 220h-260q0 -49 8 -81.5t24.5 -52t43 -28t64.5 -8.5h100v-40q-23 -8 -56.5 -14t-63.5 -6q-56 0 -96 12.5t-65.5 42.5t-37 80t-11.5 125t11 125t33 80t55 42.5t76 12.5t76 -12.5t55 -42.5t33 -80t11 -125v-30zM305 280q0 51 -7 84.5t-18.5 53.5t-27 28.5t-32.5 8.5 t-32.5 -8.5t-27 -28.5t-18.5 -53.5t-7 -84.5h170zM185 680v-110h-90v110h90zM345 680v-110h-90v110h90z" />
<glyph unicode="&#x452;" horiz-adv-x="475" d="M335 330q0 26 -7 43.5t-20 28t-30 14.5t-38 4q-19 0 -39 -6t-31 -14v-400h-90v545h-60v65h60v90h90v-90h140v-45q-23 -8 -56.5 -14t-63.5 -6h-20v-90q23 11 49.5 18t60.5 7q32 0 58.5 -6.5t46 -23.5t30 -46t10.5 -74v-180q0 -90 -30.5 -125t-94.5 -35q-19 0 -34.5 4.5 t-30.5 15.5v40h40q30 0 45 20t15 80v180z" />
<glyph unicode="&#x453;" horiz-adv-x="365" d="M355 500v-65h-200v-435h-90v500h290zM175 560l35 130h95l-70 -130h-60z" />
<glyph unicode="&#x454;" horiz-adv-x="375" d="M135 225q2 -51 9.5 -84.5t22.5 -53.5t38 -28.5t55 -8.5h100v-40q-23 -8 -56.5 -14t-63.5 -6q-51 0 -87.5 12.5t-60.5 42.5t-35.5 80t-11.5 125t11.5 125t34.5 80t57.5 42.5t81.5 12.5q30 0 63.5 -6t56.5 -14v-40h-100q-57 0 -84 -36.5t-31 -123.5h155v-65h-155z" />
<glyph unicode="&#x455;" horiz-adv-x="395" d="M125 380q0 -30 17.5 -47.5t43.5 -30.5t56.5 -24.5t56.5 -29.5t43.5 -45.5t17.5 -72.5q0 -41 -11.5 -68t-36 -43t-62.5 -22.5t-90 -6.5q-30 0 -63.5 6t-56.5 14v40h100q68 0 99 17.5t31 62.5q0 30 -17.5 47.5t-43.5 30.5t-56.5 24.5t-56.5 29.5t-43.5 45.5t-17.5 72.5 q0 75 45 102.5t135 27.5q30 0 63.5 -6t56.5 -14v-40h-100q-53 0 -81.5 -16t-28.5 -54z" />
<glyph unicode="&#x456;" horiz-adv-x="220" d="M155 0h-90v500h90v-500zM155 680v-110h-90v110h90z" />
<glyph unicode="&#x457;" horiz-adv-x="220" d="M155 0h-90v500h90v-500zM75 680v-110h-90v110h90zM235 680v-110h-90v110h90z" />
<glyph unicode="&#x458;" horiz-adv-x="240" d="M170 -40q0 -53 -10.5 -86t-29.5 -51.5t-44.5 -25.5t-55.5 -7q-23 0 -47 6t-43 14v40h70q11 0 23.5 4.5t23 16.5t17 33.5t6.5 55.5v540h90v-540zM170 680v-110h-90v110h90z" />
<glyph unicode="&#x459;" horiz-adv-x="700" d="M405 305q23 4 46.5 7t53.5 3q36 0 64.5 -7t48.5 -25t31 -50t11 -83q0 -49 -11.5 -80t-34.5 -49t-57.5 -24.5t-81.5 -6.5q-45 0 -83.5 4.5t-76.5 15.5v425h-129l-16 -275q-5 -90 -37.5 -130t-77.5 -40q-23 0 -38.5 5t-16.5 5v40q30 0 53 28t27 92l20 340h305v-195zM475 50 q45 0 70 20t25 80t-25 80t-70 20h-70v-200h70z" />
<glyph unicode="&#x45a;" horiz-adv-x="705" d="M410 285q23 4 46.5 7t53.5 3q36 0 64.5 -6.5t48.5 -24t31 -47.5t11 -77q0 -45 -11.5 -74t-34.5 -46t-57.5 -23.5t-81.5 -6.5q-45 0 -83.5 4.5t-76.5 15.5v220h-165v-230h-90v500h90v-205h165v205h90v-215zM480 50q45 0 70 18.5t25 71.5t-25 71.5t-70 18.5h-70v-180h70z " />
<glyph unicode="&#x45b;" horiz-adv-x="490" d="M170 545v-90q23 11 49.5 18t60.5 7q32 0 58.5 -6.5t46 -23.5t30 -46t10.5 -74v-330h-90v330q0 26 -7 43.5t-20 28t-30 14.5t-38 4q-19 0 -39 -6t-31 -14v-400h-90v545h-60v65h60v90h90v-90h140v-45q-23 -8 -56.5 -14t-63.5 -6h-20z" />
<glyph unicode="&#x45c;" horiz-adv-x="445" d="M195 560l35 130h95l-70 -130h-60zM269 263q27 -6 47.5 -25t33.5 -68l25 -95q4 -15 17 -25t43 -10v-40q-7 -3 -16 -5q-17 -5 -39 -5q-42 0 -65.5 21.5t-34.5 63.5l-25 95q-17 60 -66 60h-34v-230h-90v500h90v-205h34q16 0 30 13t26 47l25 70q16 44 37 64.5t63 20.5 q9 0 19 -1.5t18 -3.5q10 -3 18 -5v-40q-30 0 -42.5 -10t-17.5 -25l-25 -70q-16 -45 -32 -63.5t-39 -24.5v-4z" />
<glyph unicode="&#x45e;" horiz-adv-x="445" d="M230 -10q-49 0 -78 31.5t-42 88.5l-90 390h90l90 -390q7 -30 18 -42.5t24 -12.5l83 445h90l-95 -510q-20 -105 -59 -152.5t-106 -47.5q-23 0 -47 6t-43 14v40h70q19 0 33 5.5t25.5 21t20 43t16.5 70.5zM225 630q30 0 55 12.5t40 27.5l40 -40q-19 -30 -52.5 -50t-82.5 -20 t-82.5 20t-52.5 50l40 40q15 -15 40 -27.5t55 -12.5z" />
<glyph unicode="&#x45f;" horiz-adv-x="475" d="M207 -140l-15 140h-127v500h90v-435h165v435h90v-500h-128l-15 -140h-60z" />
<glyph unicode="&#x490;" horiz-adv-x="410" d="M70 700h248l7 85h65v-155h-230v-630h-90v700z" />
<glyph unicode="&#x491;" horiz-adv-x="365" d="M355 435h-200v-435h-90v500h217l8 90h65v-155z" />
<glyph unicode="&#x2013;" horiz-adv-x="460" d="M30 315h400v-70h-400v70z" />
<glyph unicode="&#x2014;" horiz-adv-x="640" d="M30 315h580v-70h-580v70z" />
<glyph unicode="&#x2018;" horiz-adv-x="170" d="M135 480h-95l30 220h65v-220z" />
<glyph unicode="&#x2019;" horiz-adv-x="170" d="M40 700h95l-30 -220h-65v220z" />
<glyph unicode="&#x201a;" horiz-adv-x="170" d="M40 105h95l-30 -220h-65v220z" />
<glyph unicode="&#x201c;" horiz-adv-x="320" d="M280 480h-95l30 220h65v-220zM130 480h-95l30 220h65v-220z" />
<glyph unicode="&#x201d;" horiz-adv-x="320" d="M40 700h95l-30 -220h-65v220zM190 700h95l-30 -220h-65v220z" />
<glyph unicode="&#x201e;" horiz-adv-x="320" d="M40 105h95l-30 -220h-65v220zM190 105h95l-30 -220h-65v220z" />
<glyph unicode="&#x2020;" d="M270 -200h-90v590h-160v70h160v240h90v-240h160v-70h-160v-590z" />
<glyph unicode="&#x2021;" d="M270 460h160v-70h-160v-280h160v-70h-160v-240h-90v240h-160v70h160v280h-160v70h160v240h90v-240z" />
<glyph unicode="&#x2022;" horiz-adv-x="250" d="M205 270h-160v159h160v-159z" />
<glyph unicode="&#x2026;" horiz-adv-x="510" d="M130 105v-110h-90v110h90zM300 105v-110h-90v110h90zM470 105v-110h-90v110h90z" />
<glyph unicode="&#x2030;" horiz-adv-x="990" d="M580 700l-390 -700h-90l390 700h90zM575 140q0 49 -17.5 69.5t-47.5 20.5t-47.5 -20.5t-17.5 -69.5t17.5 -69.5t47.5 -20.5t47.5 20.5t17.5 69.5zM650 140q0 -75 -36 -112.5t-104 -37.5t-104 37.5t-36 112.5t36 112.5t104 37.5t104 -37.5t36 -112.5zM235 560 q0 49 -17.5 69.5t-47.5 20.5t-47.5 -20.5t-17.5 -69.5t17.5 -69.5t47.5 -20.5t47.5 20.5t17.5 69.5zM310 560q0 -75 -36 -112.5t-104 -37.5t-104 37.5t-36 112.5t36 112.5t104 37.5t104 -37.5t36 -112.5zM885 140q0 49 -17.5 69.5t-47.5 20.5t-47.5 -20.5t-17.5 -69.5 t17.5 -69.5t47.5 -20.5t47.5 20.5t17.5 69.5zM960 140q0 -75 -36 -112.5t-104 -37.5t-104 37.5t-36 112.5t36 112.5t104 37.5t104 -37.5t36 -112.5z" />
<glyph unicode="&#x2039;" horiz-adv-x="295" d="M120 252v-4l145 -198l-65 -40l-180 240l180 240l65 -40z" />
<glyph unicode="&#x203a;" horiz-adv-x="295" d="M30 450l65 40l180 -240l-180 -240l-65 40l145 198v4z" />
<glyph unicode="&#x20ac;" horiz-adv-x="465" d="M20 450h65q7 75 24.5 125t44 80t61 42.5t75.5 12.5q45 0 86 -6t64 -14v-45h-130q-24 0 -46 -8.5t-40 -30.5t-30.5 -60t-18.5 -96h205l-10 -65h-200v-70h185l-10 -65h-170q6 -58 18.5 -96t31.5 -60t43 -30.5t52 -8.5h130v-45q-23 -8 -64 -14t-86 -6t-81.5 12.5t-63.5 42.5 t-45 80t-25 125h-75l10 65h60v70h-70z" />
<glyph unicode="&#x2116;" horiz-adv-x="850" d="M560 360h240v-70h-240v70zM745 560q0 49 -17.5 69.5t-47.5 20.5t-47.5 -20.5t-17.5 -69.5t17.5 -69.5t47.5 -20.5t47.5 20.5t17.5 69.5zM820 560q0 -75 -36 -112.5t-104 -37.5t-104 37.5t-36 112.5t36 112.5t104 37.5t104 -37.5t36 -112.5zM160 0h-90v700h100l205 -495h5 v495h90v-700h-100l-205 495h-5v-495z" />
<glyph unicode="&#x2122;" horiz-adv-x="665" d="M255 700v-50h-90v-250h-65v250h-90v50h245zM455 515l83 185h77l20 -300h-64l-14 205l-72 -160h-60l-72 160l-14 -205h-64l20 300h77z" />
<glyph unicode="&#xe000;" horiz-adv-x="500" d="M0 500h500v-500h-500v500z" />
<glyph horiz-adv-x="0" />
</font>
</defs>
</svg>
